SplineFontDB: 3.0
FontName: Rokkitt-Thin
FullName: Rokkitt Thin
FamilyName: Rokkitt
Weight: Thin
Copyright: Digitized data Copyright (c) 2011-2013, vernon adams.
Version: 2
ItalicAngle: 0
UnderlinePosition: 0
UnderlineWidth: 0
Ascent: 1638
Descent: 410
sfntRevision: 0x00000000
UFOAscent: 1152
UFODescent: -410
LayerCount: 2
Layer: 0 0 "Back"  1
Layer: 1 0 "Fore"  0
FSType: 0
OS2Version: 0
OS2_WeightWidthSlopeOnly: 0
OS2_UseTypoMetrics: 1
CreationTime: 1391745195
ModificationTime: 1391745761
PfmFamily: 17
TTFWeight: 100
TTFWidth: 5
LineGap: 0
VLineGap: 0
OS2TypoAscent: 1823
OS2TypoAOffset: 0
OS2TypoDescent: -392
OS2TypoDOffset: 0
OS2TypoLinegap: 0
OS2WinAscent: 1823
OS2WinAOffset: 0
OS2WinDescent: 392
OS2WinDOffset: 0
HheadAscent: 1823
HheadAOffset: 0
HheadDescent: -392
HheadDOffset: 0
OS2Vendor: 'NeWT'
Lookup: 258 0 0 "'kern' Horizontal Kerning in Latin lookup 0"  {"'kern' Horizontal Kerning in Latin lookup 0 subtable"  } ['kern' ('latn' <'dflt' > ) ]
MarkAttachClasses: 1
DEI: 91125
LangName: 1033 "" "" "" "" "" "Version 2" "" "Rokkitt is a trademark of Vernon Adams and may be registered in certain jurisdictions." "newtypography" "Vernon Adams" "" "newtypography.co.uk" "newtypography.co.uk" "Copyright (c) 2013, vernon adams.+AAoACgAA-This Font Software is licensed under the SIL Open Font License, Version 1.1.+AAoA-This license is available with a FAQ at:+AAoA-http://scripts.sil.org/OFL+AAoA" "http://scripts.sil.org/OFL" 
PickledData: "(dp1
S'com.typemytype.robofont.shouldAddPointsInSplineConversion'
p2
I1
sS'com.petr.ptt'
p3
(dp4
S'originals'
p5
(dp6
S'maxp'
p7
(dp8
S'tableTag'
p9
S'maxp'
p10
sS'numGlyphs'
p11
I423
sS'tableVersion'
p12
I20480
ssssS'com.schriftgestaltung.weight'
p13
S'Light'
p14
sS'com.typemytype.robofont.compileSettings.autohint'
p15
I0
sS'GSDimensionPlugin.Dimensions'
p16
(dp17
S'1F09728C-766D-4240-AE17-E499EF32E23D'
p18
(dp19
sS'98C086B7-81AA-4491-8494-0C6A76849168'
p20
(dp21
sS'EFCDB4D9-E20B-4A8D-9DB5-150AD166B0AE'
p22
(dp23

StartChar: A
Encoding: 65 65 0
Width: 1383
VWidth: 0
Flags: HW
PickledData: "(dp1
S'org.robofab.postScriptHintData'
p2
(dp3
sS'com.typemytype.robofont.layerData'
p4
(dp5
S'b'
(dp6
S'name'
p7
S'A'
sS'lib'
p8
(dp9
sS'unicodes'
p10
(tsS'width'
p11
I1383
sS'contours'
p12
(tsS'components'
p13
(tsS'anchors'
p14
(tsss."
LayerCount: 2
Fore
SplineSet
92 0 m 257
 92 34 l 257
 247 34 l 257
 652 1118 l 257
 505 1118 l 257
 505 1152 l 257
 883 1152 l 257
 883 1118 l 257
 732 1118 l 257
 1136 34 l 257
 1291 34 l 257
 1291 0 l 257
 941 0 l 257
 941 34 l 257
 1090 34 l 257
 922 488 l 257
 462 488 l 257
 294 34 l 257
 442 34 l 257
 442 0 l 257
 92 0 l 257
472 520 m 257
 912 520 l 257
 693 1111 l 257
 690 1111 l 257
 472 520 l 257
EndSplineSet
EndChar

StartChar: AE
Encoding: 198 198 1
Width: 2243
VWidth: 0
Flags: HW
PickledData: "(dp1
S'org.robofab.postScriptHintData'
p2
(dp3
sS'com.typemytype.robofont.layerData'
p4
(dp5
S'b'
(dp6
S'name'
p7
S'AE'
p8
sS'lib'
p9
(dp10
sS'unicodes'
p11
(tsS'width'
p12
I2243
sS'contours'
p13
(tsS'components'
p14
(tsS'anchors'
p15
(tsss."
LayerCount: 2
Fore
SplineSet
651 471 m 257
 1117 471 l 257
 1014 1118 l 257
 1006 1118 l 257
 651 471 l 257
174 0 m 257
 174 34 l 257
 354 34 l 257
 963 1118 l 257
 821 1118 l 257
 821 1152 l 257
 1791 1152 l 257
 1854 754 l 257
 1815 754 l 257
 1757 1118 l 257
 1059 1118 l 257
 1144 580 l 257
 1594 580 l 257
 1562 759 l 257
 1600 759 l 257
 1678 343 l 257
 1640 343 l 257
 1601 546 l 257
 1150 546 l 257
 1233 34 l 257
 1990 34 l 257
 1933 395 l 257
 1972 395 l 257
 2037 0 l 257
 1024 0 l 257
 1024 34 l 257
 1187 34 l 257
 1121 437 l 257
 631 437 l 257
 407 34 l 257
 555 34 l 257
 555 0 l 257
 174 0 l 257
EndSplineSet
EndChar

StartChar: B
Encoding: 66 66 13
Width: 1315
VWidth: 0
Flags: HW
PickledData: "(dp1
S'org.robofab.postScriptHintData'
p2
(dp3
sS'com.fontlab.hintData'
p4
(dp5
S'vhints'
p6
((dp7
S'position'
p8
I130
sS'width'
p9
I396
s(dp10
g8
I1084
sg9
I39
s(dp11
g8
I1153
sg9
I42
stp12
sS'hhints'
p13
((dp14
g8
I0
sg9
I34
s(dp15
g8
I589
sg9
I34
s(dp16
g8
I1118
sg9
I34
stp17
ssS'com.typemytype.robofont.layerData'
p18
(dp19
S'b'
(dp20
S'name'
p21
S'B'
sS'lib'
p22
(dp23
sS'unicodes'
p24
(tsg9
I1315
sS'contours'
p25
((dp26
S'points'
p27
((dp28
S'segmentType'
p29
S'line'
p30
sS'x'
I353
sS'smooth'
p31
I0
sS'y'
I1095
s(dp32
g29
S'line'
p33
sS'x'
I740
sg31
I1
sS'y'
I1095
s(dp34
S'y'
I1095
sS'x'
I917
sg31
I0
s(dp35
S'y'
I983
sS'x'
I1004
sg31
I0
s(dp36
g29
S'curve'
p37
sS'x'
I1004
sg31
I1
sS'y'
I868
s(dp38
S'y'
I751
sS'x'
I1004
sg31
I0
s(dp39
S'y'
I634
sS'x'
I928
sg31
I0
s(dp40
g29
S'curve'
p41
sS'x'
I784
sg31
I1
sS'y'
I634
s(dp42
g29
S'line'
p43
sS'x'
I353
sg31
I0
sS'y'
I634
stp44
s(dp45
g27
((dp46
g29
S'line'
p47
sS'x'
I353
sg31
I0
sS'y'
I573
s(dp48
g29
S'line'
p49
sS'x'
I793
sg31
I1
sS'y'
I573
s(dp50
S'y'
I573
sS'x'
I979
sg31
I0
s(dp51
S'y'
I439
sS'x'
I1072
sg31
I0
s(dp52
g29
S'curve'
p53
sS'x'
I1072
sg31
I1
sS'y'
I320
s(dp54
S'y'
I187
sS'x'
I1072
sg31
I0
s(dp55
S'y'
I58
sS'x'
I985
sg31
I0
s(dp56
g29
S'curve'
p57
sS'x'
I807
sg31
I1
sS'y'
I58
s(dp58
g29
S'line'
p59
sS'x'
I353
sg31
I0
sS'y'
I58
stp60
s(dp61
g27
((dp62
g29
S'line'
p63
sS'x'
I807
sg31
I1
sS'y'
I0
s(dp64
S'y'
I0
sS'x'
I1031
sg31
I0
s(dp65
S'y'
I158
sS'x'
I1146
sg31
I0
s(dp66
g29
S'curve'
p67
sS'x'
I1146
sg31
I1
sS'y'
I316
s(dp68
S'y'
I439
sS'x'
I1146
sg31
I0
s(dp69
S'y'
I568
sS'x'
I1074
sg31
I0
s(dp70
g29
S'curve'
p71
sS'x'
I919
sg31
I0
sS'y'
I611
s(dp72
S'y'
I669
sS'x'
I1029
sg31
I0
s(dp73
S'y'
I769
sS'x'
I1079
sg31
I0
s(dp74
g29
S'curve'
p75
sS'x'
I1079
sg31
I1
sS'y'
I870
s(dp76
S'y'
I1012
sS'x'
I1079
sg31
I0
s(dp77
S'y'
I1154
sS'x'
I964
sg31
I0
s(dp78
g29
S'curve'
p79
sS'x'
I740
sg31
I1
sS'y'
I1154
s(dp80
g29
S'line'
p81
sS'x'
I122
sg31
I0
sS'y'
I1154
s(dp82
g29
S'line'
p83
sS'x'
I122
sg31
I0
sS'y'
I1095
s(dp84
g29
S'line'
p85
sS'x'
I278
sg31
I0
sS'y'
I1095
s(dp86
g29
S'line'
p87
sS'x'
I278
sg31
I0
sS'y'
I58
s(dp88
g29
S'line'
p89
sS'x'
I135
sg31
I0
sS'y'
I58
s(dp90
g29
S'line'
p91
sS'x'
I135
sg31
I0
sS'y'
I0
stp92
stp93
sS'components'
p94
(tsS'anchors'
p95
(tsss."
HStem: 0 34<130 306 130 328 350 526 526 897> 589 34<350 864 350 964.5> 1118 34<130 306 306 306 350 526 526 795>
VStem: 130 396<0 34 0 0> 1084 39<802.5 958> 1153 42<230 378 220.5 390.5>
LayerCount: 2
Fore
SplineSet
329 1152 m 257
 526 1152 l 257
 795 1152 l 258
 1007 1152 1123 1060 1123 873 c 256
 1123 732 1059 628 949 609 c 257
 1143 578 1195 442 1195 314 c 256
 1195 127 1074 0 897 0 c 258
 526 0 l 257
 328 0 l 257
 130 0 l 257
 130 34 l 257
 306 34 l 257
 306 1118 l 257
 130 1118 l 257
 130 1152 l 257
 329 1152 l 257
526 1118 m 257
 350 1118 l 257
 350 623 l 257
 864 623 l 258
 1022 623 1084 731 1084 873 c 256
 1084 1043 981 1118 795 1118 c 258
 526 1118 l 257
350 589 m 257
 350 34 l 257
 526 34 l 257
 897 34 l 258
 1050 34 1153 146 1153 314 c 256
 1153 467 1065 589 864 589 c 258
 350 589 l 257
EndSplineSet
EndChar

StartChar: C
Encoding: 67 67 15
Width: 1411
VWidth: 0
Flags: HW
PickledData: "(dp1
S'org.robofab.postScriptHintData'
p2
(dp3
sS'com.fontlab.hintData'
p4
(dp5
S'vhints'
p6
((dp7
S'position'
p8
I122
sS'width'
p9
I44
s(dp10
g8
I1197
sg9
I46
stp11
sS'hhints'
p12
((dp13
g8
I-22
sg9
I36
s(dp14
g8
I1136
sg9
I36
stp15
ssS'com.typemytype.robofont.layerData'
p16
(dp17
S'b'
(dp18
S'name'
p19
S'C'
sS'lib'
p20
(dp21
sS'unicodes'
p22
(tsg9
I1411
sS'contours'
p23
(tsS'components'
p24
(tsS'anchors'
p25
(tsss."
HStem: -22 36<584 806 584 826.5> 1136 36<538.5 846.5>
VStem: 122 44<386.5 723.5 386.5 745> 1197 46<904 1152 904 904>
LayerCount: 2
Fore
SplineSet
715 -22 m 256
 449 -22 122 154 122 582 c 256
 122 908 361 1172 715 1172 c 256
 980 1172 1108 1070 1197 904 c 257
 1197 1152 l 257
 1243 1152 l 257
 1243 836 l 257
 1211 820 l 257
 1104 1032 978 1136 715 1136 c 256
 362 1136 166 867 166 580 c 256
 166 193 453 14 715 14 c 256
 897 14 1096 72 1215 268 c 257
 1241 245 l 257
 1117 53 938 -22 715 -22 c 256
EndSplineSet
EndChar

StartChar: D
Encoding: 68 68 22
Width: 1434
VWidth: 0
Flags: HW
PickledData: "(dp1
S'org.robofab.postScriptHintData'
p2
(dp3
sS'com.fontlab.hintData'
p4
(dp5
S'vhints'
p6
((dp7
S'position'
p8
I130
sS'width'
p9
I396
s(dp10
g8
I1264
sg9
I42
stp11
sS'hhints'
p12
((dp13
g8
I0
sg9
I34
s(dp14
g8
I1118
sg9
I34
stp15
ssS'com.typemytype.robofont.layerData'
p16
(dp17
S'b'
(dp18
S'name'
p19
S'D'
sS'lib'
p20
(dp21
sS'unicodes'
p22
(tsg9
I1434
sS'contours'
p23
(tsS'components'
p24
(tsS'anchors'
p25
(tsss."
HStem: 0 34<130 306 130 328 350 526 526 822> 1118 34<130 306 306 306 350 526 526 826>
VStem: 130 396<0 34 0 0> 1264 42<445.5 696.5 445.5 696.5>
LayerCount: 2
Fore
SplineSet
328 1152 m 257
 526 1152 l 257
 826 1152 l 258
 1156 1152 1306 823 1306 570 c 256
 1306 321 1148 0 832 0 c 258
 526 0 l 257
 328 0 l 257
 130 0 l 257
 130 34 l 257
 306 34 l 257
 306 1118 l 257
 130 1118 l 257
 130 1152 l 257
 328 1152 l 257
526 1118 m 257
 350 1118 l 257
 350 34 l 257
 526 34 l 257
 822 34 l 258
 1116 34 1264 319 1264 570 c 256
 1264 823 1116 1118 828 1118 c 258
 526 1118 l 257
EndSplineSet
EndChar

StartChar: Delta
Encoding: 916 916 26
Width: 1167
VWidth: 0
Flags: HW
PickledData: "(dp1
S'org.robofab.postScriptHintData'
p2
(dp3
s."
LayerCount: 2
Fore
SplineSet
129 34 m 257
 1040 34 l 257
 563 1117 l 257
 129 34 l 257
84 0 m 257
 84 26 l 257
 542 1152 l 257
 588 1152 l 257
 1083 26 l 257
 1083 0 l 257
 84 0 l 257
EndSplineSet
EndChar

StartChar: E
Encoding: 69 69 29
Width: 1227
VWidth: 0
Flags: HW
PickledData: "(dp1
S'org.robofab.postScriptHintData'
p2
(dp3
sS'com.fontlab.hintData'
p4
(dp5
S'vhints'
p6
((dp7
S'position'
p8
I130
sS'width'
p9
I396
stp10
ssS'com.typemytype.robofont.layerData'
p11
(dp12
S'b'
(dp13
S'name'
p14
S'E'
sS'lib'
p15
(dp16
sS'unicodes'
p17
(tsg9
I1227
sS'contours'
p18
(tsS'components'
p19
(tsS'anchors'
p20
(tsss."
VStem: 130 396<0 34 0 0>
LayerCount: 2
Fore
SplineSet
782 380 m 257
 782 569 l 257
 350 569 l 257
 350 34 l 257
 526 34 l 257
 1047 34 l 257
 1047 332 l 257
 1087 332 l 257
 1087 0 l 257
 526 0 l 257
 323 0 l 257
 130 0 l 257
 130 34 l 257
 306 34 l 257
 306 1118 l 257
 130 1118 l 257
 130 1152 l 257
 323 1152 l 257
 526 1152 l 257
 1059 1152 l 257
 1059 826 l 257
 1019 826 l 257
 1019 1118 l 257
 526 1118 l 257
 350 1118 l 257
 350 603 l 257
 781 603 l 257
 781 780 l 257
 821 780 l 257
 821 380 l 257
 782 380 l 257
EndSplineSet
EndChar

StartChar: Eng
Encoding: 330 330 38
Width: 1444
VWidth: 0
Flags: HW
PickledData: "(dp1
S'org.robofab.postScriptHintData'
p2
(dp3
sS'com.fontlab.hintData'
p4
(dp5
S'vhints'
p6
((dp7
S'position'
p8
I1194
sS'width'
p9
I44
stp10
sS'hhints'
p11
((dp12
g8
I-374
sg9
I34
stp13
ss."
HStem: -374 34<870 980.5 870 983.5>
VStem: 1194 44<-125.5 0 -17 0 -17 0 63 1118 63 63>
LayerCount: 2
Fore
SplineSet
867 -374 m 257
 870 -340 l 257
 1091 -340 1194 -220 1194 -31 c 258
 1194 0 l 257
 328 1073 l 257
 328 34 l 257
 477 34 l 257
 477 0 l 257
 140 0 l 257
 140 34 l 257
 284 34 l 257
 284 1118 l 257
 140 1118 l 257
 140 1152 l 257
 318 1152 l 257
 1194 63 l 257
 1194 1118 l 257
 1043 1118 l 257
 1043 1152 l 257
 1361 1152 l 257
 1361 1118 l 257
 1238 1118 l 257
 1238 0 l 257
 1238 -17 l 258
 1238 -261 1100 -374 867 -374 c 257
EndSplineSet
EndChar

StartChar: Euro
Encoding: 8364 8364 41
Width: 1408
VWidth: 0
Flags: HW
PickledData: "(dp1
S'org.robofab.postScriptHintData'
p2
(dp3
sS'com.fontlab.hintData'
p4
(dp5
S'vhints'
p6
((dp7
S'position'
p8
I122
sS'width'
p9
I44
s(dp10
g8
I1197
sg9
I46
stp11
sS'hhints'
p12
((dp13
g8
I-22
sg9
I36
s(dp14
g8
I1136
sg9
I36
stp15
ss."
HStem: -22 36 1136 36
VStem: 122 44 1197 46
LayerCount: 2
Fore
SplineSet
-25 636 m 257
 1 669 l 257
 628 669 l 257
 602 636 l 257
 -25 636 l 257
-25 446 m 257
 1 479 l 257
 628 479 l 257
 602 446 l 257
 -25 446 l 257
EndSplineSet
Refer: 15 67 N 1 0 0 1 0 0 2
EndChar

StartChar: F
Encoding: 70 70 42
Width: 1177
VWidth: 0
Flags: HW
PickledData: "(dp1
S'org.robofab.postScriptHintData'
p2
(dp3
sS'com.fontlab.hintData'
p4
(dp5
S'vhints'
p6
((dp7
S'position'
p8
I130
sS'width'
p9
I396
stp10
ssS'com.typemytype.robofont.layerData'
p11
(dp12
S'b'
(dp13
S'name'
p14
S'F'
sS'lib'
p15
(dp16
sS'unicodes'
p17
(tsg9
I1177
sS'contours'
p18
((dp19
S'points'
p20
((dp21
S'segmentType'
p22
S'line'
p23
sS'x'
I990
sS'smooth'
p24
I0
sS'y'
I1086
s(dp25
g22
S'line'
p26
sS'x'
I990
sg24
I0
sS'y'
I802
s(dp27
g22
S'line'
p28
sS'x'
I1062
sg24
I0
sS'y'
I802
s(dp29
g22
S'line'
p30
sS'x'
I1062
sg24
I0
sS'y'
I1152
s(dp31
g22
S'line'
p32
sS'x'
I122
sg24
I0
sS'y'
I1152
s(dp33
g22
S'line'
p34
sS'x'
I122
sg24
I0
sS'y'
I1086
s(dp35
g22
S'line'
p36
sS'x'
I286
sg24
I0
sS'y'
I1086
s(dp37
g22
S'line'
p38
sS'x'
I286
sg24
I0
sS'y'
I1039
s(dp39
g22
S'line'
p40
sS'x'
I363
sg24
I0
sS'y'
I1039
s(dp41
g22
S'line'
p42
sS'x'
I363
sg24
I0
sS'y'
I1086
stp43
s(dp44
g20
((dp45
g22
S'line'
p46
sS'x'
I286
sg24
I0
sS'y'
I1039
s(dp47
g22
S'line'
p48
sS'x'
I286
sg24
I0
sS'y'
I677
s(dp49
g22
S'line'
p50
sS'x'
I363
sg24
I0
sS'y'
I677
s(dp51
g22
S'line'
p52
sS'x'
I363
sg24
I0
sS'y'
I1039
stp53
s(dp54
g20
((dp55
g22
S'line'
p56
sS'x'
I286
sg24
I0
sS'y'
I677
s(dp57
g22
S'line'
p58
sS'x'
I286
sg24
I0
sS'y'
I65
s(dp59
g22
S'line'
p60
sS'x'
I122
sg24
I0
sS'y'
I65
s(dp61
g22
S'line'
p62
sS'x'
I122
sg24
I0
sS'y'
I0
s(dp63
g22
S'line'
p64
sS'x'
I552
sg24
I0
sS'y'
I0
s(dp65
g22
S'line'
p66
sS'x'
I552
sg24
I0
sS'y'
I65
s(dp67
g22
S'line'
p68
sS'x'
I363
sg24
I0
sS'y'
I65
s(dp69
g22
S'line'
p70
sS'x'
I363
sg24
I0
sS'y'
I539
s(dp71
g22
S'line'
p72
sS'x'
I824
sg24
I0
sS'y'
I539
s(dp73
g22
S'line'
p74
sS'x'
I824
sg24
I0
sS'y'
I378
s(dp75
g22
S'line'
p76
sS'x'
I886
sg24
I0
sS'y'
I378
s(dp77
g22
S'line'
p78
sS'x'
I886
sg24
I0
sS'y'
I764
s(dp79
g22
S'line'
p80
sS'x'
I824
sg24
I0
sS'y'
I764
s(dp81
g22
S'line'
p82
sS'x'
I824
sg24
I0
sS'y'
I601
s(dp83
g22
S'line'
p84
sS'x'
I363
sg24
I0
sS'y'
I601
s(dp85
g22
S'line'
p86
sS'x'
I363
sg24
I0
sS'y'
I677
stp87
stp88
sS'components'
p89
(tsS'anchors'
p90
(tsss."
VStem: 130 396<0 34 0 34>
LayerCount: 2
Fore
SplineSet
851 390 m 257
 851 575 l 257
 350 575 l 257
 350 34 l 257
 526 34 l 257
 526 0 l 257
 130 0 l 257
 130 34 l 257
 306 34 l 257
 306 1118 l 257
 130 1118 l 257
 130 1152 l 257
 323 1152 l 257
 526 1152 l 257
 1075 1152 l 257
 1075 796 l 257
 1039 796 l 257
 1039 1118 l 257
 526 1118 l 257
 350 1118 l 257
 350 609 l 257
 851 609 l 257
 851 770 l 257
 887 770 l 257
 887 390 l 257
 851 390 l 257
EndSplineSet
EndChar

StartChar: G
Encoding: 71 71 44
Width: 1394
VWidth: 0
Flags: HW
PickledData: "(dp1
S'org.robofab.postScriptHintData'
p2
(dp3
sS'com.fontlab.hintData'
p4
(dp5
S'vhints'
p6
((dp7
S'position'
p8
I119
sS'width'
p9
I42
s(dp10
g8
I1157
sg9
I44
s(dp11
g8
I1203
sg9
I42
stp12
sS'hhints'
p13
((dp14
g8
I-22
sg9
I36
s(dp15
g8
I1138
sg9
I36
stp16
ssS'com.typemytype.robofont.layerData'
p17
(dp18
S'b'
(dp19
S'name'
p20
S'G'
sS'lib'
p21
(dp22
sS'unicodes'
p23
(tsg9
I1394
sS'contours'
p24
(tsS'components'
p25
(tsS'anchors'
p26
(tsss."
HStem: -22 36<539.5 795.5 539.5 802> 1138 36<539.5 799.5 526.5 810>
VStem: 119 42<407.5 753 407.5 764> 1157 44<945 1152 945 945> 1203 42<509 509>
LayerCount: 2
Fore
SplineSet
707 -22 m 256
 346 -22 119 211 119 582 c 256
 119 946 346 1174 707 1174 c 256
 892 1174 1066 1093 1157 945 c 257
 1157 1152 l 257
 1201 1152 l 257
 1201 851 l 257
 1169 851 l 257
 1091 1034 913 1138 707 1138 c 256
 372 1138 161 924 161 582 c 256
 161 233 372 14 707 14 c 256
 884 14 1198 110 1203 509 c 257
 948 509 l 257
 948 543 l 257
 1245 543 l 257
 1245 59 897 -22 707 -22 c 256
EndSplineSet
EndChar

StartChar: H
Encoding: 72 72 51
Width: 1506
VWidth: 0
Flags: HW
PickledData: "(dp1
S'org.robofab.postScriptHintData'
p2
(dp3
sS'com.fontlab.hintData'
p4
(dp5
S'vhints'
p6
((dp7
S'position'
p8
I130
sS'width'
p9
I396
s(dp10
g8
I979
sg9
I396
stp11
ssS'com.typemytype.robofont.layerData'
p12
(dp13
S'b'
(dp14
S'name'
p15
S'H'
sS'lib'
p16
(dp17
sS'unicodes'
p18
(tsg9
I1506
sS'contours'
p19
(tsS'components'
p20
(tsS'anchors'
p21
(tsss."
VStem: 130 396<0 34 0 34 1118 1152> 979 396<0 34 0 34 1118 1152>
LayerCount: 2
Fore
SplineSet
130 0 m 257
 130 34 l 257
 306 34 l 257
 306 1118 l 257
 130 1118 l 257
 130 1152 l 257
 526 1152 l 257
 526 1118 l 257
 350 1118 l 257
 350 598 l 257
 1155 598 l 257
 1155 1118 l 257
 979 1118 l 257
 979 1152 l 257
 1375 1152 l 257
 1375 1118 l 257
 1199 1118 l 257
 1199 34 l 257
 1375 34 l 257
 1375 0 l 257
 979 0 l 257
 979 34 l 257
 1155 34 l 257
 1155 564 l 257
 350 564 l 257
 350 34 l 257
 526 34 l 257
 526 0 l 257
 130 0 l 257
EndSplineSet
EndChar

StartChar: Hbar
Encoding: 294 294 52
Width: 1471
VWidth: 0
Flags: HW
PickledData: "(dp1
S'org.robofab.postScriptHintData'
p2
(dp3
sS'com.fontlab.hintData'
p4
(dp5
S'vhints'
p6
((dp7
S'position'
p8
I130
sS'width'
p9
I396
s(dp10
g8
I979
sg9
I396
stp11
ssS'com.typemytype.robofont.layerData'
p12
(dp13
S'b'
(dp14
S'name'
p15
S'Hbar'
p16
sS'lib'
p17
(dp18
sS'unicodes'
p19
(tsg9
I1471
sS'contours'
p20
(tsS'components'
p21
(tsS'anchors'
p22
(tsss."
VStem: 130 396 979 396
LayerCount: 2
Fore
SplineSet
151 839 m 257
 151 877 l 257
 1316 877 l 257
 1316 839 l 257
 151 839 l 257
EndSplineSet
Refer: 51 72 N 1 0 0 1 0 0 2
EndChar

StartChar: I
Encoding: 73 73 54
Width: 626
VWidth: 0
Flags: HW
PickledData: "(dp1
S'org.robofab.postScriptHintData'
p2
(dp3
sS'com.fontlab.hintData'
p4
(dp5
S'vhints'
p6
((dp7
S'position'
p8
I114
sS'width'
p9
I396
stp10
ssS'com.typemytype.robofont.layerData'
p11
(dp12
S'b'
(dp13
S'name'
p14
S'I'
sS'lib'
p15
(dp16
sS'unicodes'
p17
(tsg9
I626
sS'contours'
p18
(tsS'components'
p19
(tsS'anchors'
p20
(tsss."
VStem: 114 396<0 34 0 34 1118 1152>
LayerCount: 2
Fore
SplineSet
114 0 m 257
 114 34 l 257
 290 34 l 257
 290 1118 l 257
 114 1118 l 257
 114 1152 l 257
 510 1152 l 257
 510 1118 l 257
 334 1118 l 257
 334 34 l 257
 510 34 l 257
 510 0 l 257
 114 0 l 257
EndSplineSet
EndChar

StartChar: J
Encoding: 74 74 65
Width: 551
VWidth: 0
Flags: HW
PickledData: "(dp1
S'org.robofab.postScriptHintData'
p2
(dp3
sS'com.fontlab.hintData'
p4
(dp5
S'vhints'
p6
((dp7
S'position'
p8
I318
sS'width'
p9
I44
stp10
sS'hhints'
p11
((dp12
g8
I-40
sg9
I34
stp13
ssS'com.typemytype.robofont.layerData'
p14
(dp15
S'b'
(dp16
S'name'
p17
S'J'
sS'lib'
p18
(dp19
sS'unicodes'
p20
(tsg9
I551
sS'contours'
p21
(tsS'components'
p22
(tsS'anchors'
p23
(tsss."
HStem: -40 34<107 212 212 212>
VStem: 318 44<161 173 173 1118>
LayerCount: 2
Fore
SplineSet
107 -40 m 257
 107 -6 l 257
 229 -6 l 258
 307 -6 318 42 318 173 c 258
 318 1118 l 257
 189 1118 l 257
 189 1152 l 257
 483 1152 l 257
 483 1118 l 257
 362 1118 l 257
 362 161 l 258
 362 -20 313 -39 212 -40 c 258
 107 -40 l 257
EndSplineSet
EndChar

StartChar: K
Encoding: 75 75 67
Width: 1304
VWidth: 0
Flags: HW
PickledData: "(dp1
S'org.robofab.postScriptHintData'
p2
(dp3
sS'com.typemytype.robofont.guides'
p4
((dp5
S'y'
I593
sS'x'
I467
sS'magnetic'
p6
I5
sS'angle'
p7
I0
sS'isGlobal'
p8
I0
stp9
sS'com.typemytype.robofont.layerData'
p10
(dp11
S'b'
(dp12
S'name'
p13
S'K'
sS'lib'
p14
(dp15
sS'unicodes'
p16
(tsS'width'
p17
I1304
sS'contours'
p18
(tsS'components'
p19
(tsS'anchors'
p20
(tsssS'com.fontlab.hintData'
p21
(dp22
S'vhints'
p23
((dp24
S'position'
p25
I130
sg17
I396
stp26
ss."
VStem: 130 396<0 34 0 34 1118 1152>
LayerCount: 2
Fore
SplineSet
840 0 m 257
 840 34 l 257
 997 34 l 257
 350 586.293 l 257
 350 34 l 257
 526 34 l 257
 526 0 l 257
 130 0 l 257
 130 34 l 257
 306 34 l 257
 306 1118 l 257
 130 1118 l 257
 130 1152 l 257
 526 1152 l 257
 526 1118 l 257
 350 1118 l 257
 350 589.749 l 257
 954 1118 l 257
 794 1118 l 257
 794 1152 l 257
 1179 1152 l 257
 1179 1118 l 257
 1004 1118 l 257
 408 588 l 257
 1052 34 l 257
 1215 34 l 257
 1215 0 l 257
 840 0 l 257
EndSplineSet
EndChar

StartChar: L
Encoding: 76 76 69
Width: 1055
VWidth: 0
Flags: HW
PickledData: "(dp1
S'org.robofab.postScriptHintData'
p2
(dp3
sS'com.fontlab.hintData'
p4
(dp5
S'vhints'
p6
((dp7
S'position'
p8
I130
sS'width'
p9
I396
stp10
ssS'com.typemytype.robofont.layerData'
p11
(dp12
S'b'
(dp13
S'name'
p14
S'L'
sS'lib'
p15
(dp16
sS'unicodes'
p17
(tsg9
I1055
sS'contours'
p18
(tsS'components'
p19
(tsS'anchors'
p20
(tsss."
VStem: 130 396<0 34 0 0 1118 1152>
AnchorPoint: "caron.alt" 510 804 basechar 0
LayerCount: 2
Fore
SplineSet
350 34 m 257
 526 34 l 257
 966 34 l 257
 966 358 l 257
 1002 358 l 257
 1002 0 l 257
 526 0 l 257
 322 0 l 257
 130 0 l 257
 130 34 l 257
 306 34 l 257
 306 1118 l 257
 130 1118 l 257
 130 1152 l 257
 526 1152 l 257
 526 1118 l 257
 350 1118 l 257
 350 34 l 257
EndSplineSet
EndChar

StartChar: Lslash
Encoding: 321 321 75
Width: 1243
VWidth: 0
Flags: HW
PickledData: "(dp1
S'org.robofab.postScriptHintData'
p2
(dp3
sS'com.fontlab.hintData'
p4
(dp5
S'vhints'
p6
((dp7
S'position'
p8
I130
sS'width'
p9
I396
stp10
ssS'com.typemytype.robofont.layerData'
p11
(dp12
S'b'
(dp13
S'name'
p14
S'Lslash'
p15
sS'lib'
p16
(dp17
sS'unicodes'
p18
(tsg9
I1243
sS'contours'
p19
(tsS'components'
p20
(tsS'anchors'
p21
(tsss."
VStem: 130 396
LayerCount: 2
Fore
SplineSet
124 434 m 257
 124 481 l 257
 524 742 l 257
 524 691 l 257
 124 434 l 257
EndSplineSet
Refer: 69 76 N 1 0 0 1 0 0 2
EndChar

StartChar: M
Encoding: 77 77 76
Width: 1606
VWidth: 0
Flags: HW
PickledData: "(dp1
S'org.robofab.postScriptHintData'
p2
(dp3
sS'com.typemytype.robofont.layerData'
p4
(dp5
S'b'
(dp6
S'name'
p7
S'M'
sS'lib'
p8
(dp9
sS'unicodes'
p10
(tsS'width'
p11
I1606
sS'contours'
p12
(tsS'components'
p13
(tsS'anchors'
p14
(tsss."
LayerCount: 2
Fore
SplineSet
146 0 m 257
 146 34 l 257
 299 34 l 257
 299 1118 l 257
 146 1118 l 257
 146 1152 l 257
 342 1152 l 257
 819 190 l 257
 1267 1152 l 257
 1467 1152 l 257
 1467 1118 l 257
 1314 1118 l 257
 1314 34 l 257
 1467 34 l 257
 1467 0 l 257
 1112 0 l 257
 1112 34 l 257
 1270 34 l 257
 1270 1058 l 257
 822 105 l 257
 818 105 l 257
 343 1058 l 257
 343 34 l 257
 499 34 l 257
 499 0 l 257
 146 0 l 257
EndSplineSet
EndChar

StartChar: N
Encoding: 78 78 78
Width: 1444
VWidth: 0
Flags: HW
PickledData: "(dp1
S'org.robofab.postScriptHintData'
p2
(dp3
sS'com.typemytype.robofont.layerData'
p4
(dp5
S'b'
(dp6
S'name'
p7
S'N'
sS'lib'
p8
(dp9
sS'unicodes'
p10
(tsS'width'
p11
I1444
sS'contours'
p12
(tsS'components'
p13
(tsS'anchors'
p14
(tsss."
LayerCount: 2
Fore
SplineSet
140 0 m 257
 140 34 l 257
 284 34 l 257
 284 1118 l 257
 140 1118 l 257
 140 1152 l 257
 318 1152 l 257
 1194 63 l 257
 1194 1118 l 257
 1043 1118 l 257
 1043 1152 l 257
 1361 1152 l 257
 1361 1118 l 257
 1238 1118 l 257
 1238 0 l 257
 1194 0 l 257
 328 1073 l 257
 328 34 l 257
 477 34 l 257
 477 0 l 257
 140 0 l 257
EndSplineSet
EndChar

StartChar: O
Encoding: 79 79 84
Width: 1456
VWidth: 0
Flags: HW
PickledData: "(dp1
S'org.robofab.postScriptHintData'
p2
(dp3
sS'com.fontlab.hintData'
p4
(dp5
S'vhints'
p6
((dp7
S'position'
p8
I128
sS'width'
p9
I42
s(dp10
g8
I1286
sg9
I42
stp11
sS'hhints'
p12
((dp13
g8
I-22
sg9
I36
s(dp14
g8
I1138
sg9
I36
stp15
ssS'com.typemytype.robofont.layerData'
p16
(dp17
S'b'
(dp18
S'name'
p19
S'O'
sS'lib'
p20
(dp21
sS'unicodes'
p22
(tsg9
I1456
sS'contours'
p23
(tsS'components'
p24
(tsS'anchors'
p25
(tsss."
HStem: -22 36<728 919 532.5 937.5> 1138 36<534.5 919>
VStem: 128 42<436 702 436 712> 1286 42<441 702>
LayerCount: 2
Fore
SplineSet
728 14 m 256
 1110 14 1286 310 1286 572 c 256
 1286 832 1110 1138 728 1138 c 256
 341 1138 170 832 170 572 c 256
 170 300 337 14 728 14 c 256
728 -22 m 256
 309 -23 128 291 128 572 c 256
 128 852 313 1174 728 1174 c 256
 1144 1174 1328 851 1328 572 c 256
 1328 289 1147 -22 728 -22 c 256
EndSplineSet
EndChar

StartChar: OE
Encoding: 338 338 85
Width: 1953
VWidth: 0
Flags: HW
PickledData: "(dp1
S'org.robofab.postScriptHintData'
p2
(dp3
sS'com.fontlab.hintData'
p4
(dp5
S'vhints'
p6
((dp7
S'position'
p8
I128
sS'width'
p9
I42
stp10
sS'hhints'
p11
((dp12
g8
I0
sg9
I40
s(dp13
g8
I1112
sg9
I40
stp14
ssS'com.typemytype.robofont.layerData'
p15
(dp16
S'b'
(dp17
S'name'
p18
S'OE'
p19
sS'lib'
p20
(dp21
sS'unicodes'
p22
(tsg9
I1953
sS'contours'
p23
(tsS'components'
p24
(tsS'anchors'
p25
(tsss."
HStem: 0 40<783 998 1041 1773> 1112 40<783 998 998 998 1042 1743 1743 1743>
VStem: 128 42<570 570>
LayerCount: 2
Fore
SplineSet
783 40 m 258
 998 40 l 257
 998 1112 l 257
 783 1112 l 258
 408 1112 170 913 170 570 c 256
 170 240 403 40 783 40 c 258
783 0 m 258
 375 0 129 212 128 570 c 256
 129 935 375 1152 783 1152 c 258
 1783 1152 l 257
 1783 782 l 257
 1743 782 l 257
 1743 1112 l 257
 1042 1112 l 257
 1042 580 l 257
 1530 580 l 257
 1530 759 l 257
 1570 759 l 257
 1570 343 l 257
 1530 343 l 257
 1530 542 l 257
 1041 542 l 257
 1041 40 l 257
 1773 40 l 257
 1773 395 l 257
 1813 395 l 257
 1813 0 l 257
 783 0 l 258
EndSplineSet
EndChar

StartChar: Omega
Encoding: 937 937 93
Width: 1426
VWidth: 0
Flags: HW
PickledData: "(dp1
S'org.robofab.postScriptHintData'
p2
(dp3
sS'com.fontlab.hintData'
p4
(dp5
S'vhints'
p6
((dp7
S'position'
p8
I172
sS'width'
p9
I41
s(dp10
g8
I1213
sg9
I41
stp11
sS'hhints'
p12
((dp13
g8
I1139
sg9
I35
stp14
ss."
HStem: 1139 35<546.5 879.5>
VStem: 172 41<528 768.5 528 771> 1213 41<528 768.5>
LayerCount: 2
Fore
SplineSet
191 0 m 257
 191 34 l 257
 511 34 l 257
 283 168 172 409 172 629 c 256
 172 913 356 1174 713 1174 c 256
 1070 1174 1254 913 1254 629 c 256
 1254 409 1143 168 915 34 c 257
 1235 34 l 257
 1235 0 l 257
 878 0 l 257
 878 38 l 257
 1102 177 1213 420 1213 636 c 256
 1213 901 1046 1139 713 1139 c 256
 380 1139 213 901 213 636 c 256
 213 420 324 177 548 38 c 257
 548 0 l 257
 191 0 l 257
EndSplineSet
EndChar

StartChar: Oslash
Encoding: 216 216 94
Width: 1598
VWidth: 0
Flags: HW
PickledData: "(dp1
S'org.robofab.postScriptHintData'
p2
(dp3
sS'com.fontlab.hintData'
p4
(dp5
S'vhints'
p6
((dp7
S'position'
p8
I136
sS'width'
p9
I42
s(dp10
g8
I1294
sg9
I42
stp11
sS'hhints'
p12
((dp13
g8
I-32
sg9
I36
s(dp14
g8
I1128
sg9
I36
stp15
ssS'com.typemytype.robofont.layerData'
p16
(dp17
S'b'
(dp18
S'name'
p19
S'Oslash'
p20
sS'lib'
p21
(dp22
sS'unicodes'
p23
(tsg9
I1598
sS'contours'
p24
(tsS'components'
p25
(tsS'anchors'
p26
(tsss."
HStem: -32 36 1128 36
VStem: 136 42 1294 42
LayerCount: 2
Fore
SplineSet
266 -71 m 257
 239 -51 l 257
 1215 1213 l 257
 1239 1195 l 257
 266 -71 l 257
EndSplineSet
Refer: 84 79 N 1 0 0 1 8 -10 2
EndChar

StartChar: P
Encoding: 80 80 97
Width: 1226
VWidth: 0
Flags: HW
PickledData: "(dp1
S'org.robofab.postScriptHintData'
p2
(dp3
sS'com.fontlab.hintData'
p4
(dp5
S'vhints'
p6
((dp7
S'position'
p8
I130
sS'width'
p9
I396
s(dp10
g8
I1031
sg9
I44
stp11
sS'hhints'
p12
((dp13
g8
I500
sg9
I34
s(dp14
g8
I1118
sg9
I34
stp15
ssS'com.typemytype.robofont.layerData'
p16
(dp17
S'b'
(dp18
S'name'
p19
S'P'
sS'lib'
p20
(dp21
sS'unicodes'
p22
(tsg9
I1226
sS'contours'
p23
((dp24
S'points'
p25
((dp26
S'segmentType'
p27
S'line'
p28
sS'x'
I353
sS'smooth'
p29
I0
sS'y'
I1095
s(dp30
g27
S'line'
p31
sS'x'
I759
sg29
I1
sS'y'
I1095
s(dp32
S'y'
I1095
sS'x'
I936
sg29
I0
s(dp33
S'y'
I960
sS'x'
I1024
sg29
I0
s(dp34
g27
S'curve'
p35
sS'x'
I1024
sg29
I1
sS'y'
I823
s(dp36
S'y'
I683
sS'x'
I1024
sg29
I0
s(dp37
S'y'
I544
sS'x'
I934
sg29
I0
s(dp38
g27
S'curve'
p39
sS'x'
I759
sg29
I1
sS'y'
I544
s(dp40
g27
S'line'
p41
sS'x'
I353
sg29
I0
sS'y'
I544
stp42
s(dp43
g25
((dp44
g27
S'line'
p45
sS'x'
I135
sg29
I0
sS'y'
I0
s(dp46
g27
S'line'
p47
sS'x'
I512
sg29
I0
sS'y'
I0
s(dp48
g27
S'line'
p49
sS'x'
I512
sg29
I0
sS'y'
I58
s(dp50
g27
S'line'
p51
sS'x'
I353
sg29
I0
sS'y'
I58
s(dp52
g27
S'line'
p53
sS'x'
I353
sg29
I0
sS'y'
I483
s(dp54
g27
S'line'
p55
sS'x'
I759
sg29
I1
sS'y'
I483
s(dp56
S'y'
I483
sS'x'
I984
sg29
I0
s(dp57
S'y'
I656
sS'x'
I1098
sg29
I0
s(dp58
g27
S'curve'
p59
sS'x'
I1098
sg29
I1
sS'y'
I826
s(dp60
S'y'
I989
sS'x'
I1098
sg29
I0
s(dp61
S'y'
I1154
sS'x'
I984
sg29
I0
s(dp62
g27
S'curve'
p63
sS'x'
I759
sg29
I1
sS'y'
I1154
s(dp64
g27
S'line'
p65
sS'x'
I122
sg29
I0
sS'y'
I1154
s(dp66
g27
S'line'
p67
sS'x'
I122
sg29
I0
sS'y'
I1095
s(dp68
g27
S'line'
p69
sS'x'
I278
sg29
I0
sS'y'
I1095
s(dp70
g27
S'line'
p71
sS'x'
I278
sg29
I0
sS'y'
I58
s(dp72
g27
S'line'
p73
sS'x'
I135
sg29
I0
sS'y'
I58
stp74
stp75
sS'components'
p76
(tsS'anchors'
p77
(tsss."
HStem: 500 34<449 766 766 767 449 863> 1118 34<130 306 306 306 350 526 526 753 753 754>
VStem: 130 396<0 34 0 34> 1031 44<851 851>
LayerCount: 2
Fore
SplineSet
448 500 m 257
 449 534 l 257
 767 534 l 258
 934 534 1032 652 1031 851 c 256
 1030 1019 927 1118 753 1118 c 258
 526 1118 l 257
 350 1118 l 257
 350 34 l 257
 526 34 l 257
 526 0 l 257
 130 0 l 257
 130 34 l 257
 306 34 l 257
 306 1118 l 257
 130 1118 l 257
 130 1152 l 257
 326 1152 l 257
 526 1152 l 257
 754 1152 l 258
 956 1152 1075 1041 1075 852 c 256
 1075 631 960 500 766 500 c 258
 448 500 l 257
EndSplineSet
EndChar

StartChar: Q
Encoding: 81 81 99
Width: 1438
VWidth: 0
Flags: HW
PickledData: "(dp1
S'org.robofab.postScriptHintData'
p2
(dp3
sS'com.fontlab.hintData'
p4
(dp5
S'vhints'
p6
((dp7
S'position'
p8
I128
sS'width'
p9
I42
s(dp10
g8
I1286
sg9
I42
stp11
sS'hhints'
p12
((dp13
g8
I-22
sg9
I36
s(dp14
g8
I1138
sg9
I36
stp15
ssS'com.typemytype.robofont.layerData'
p16
(dp17
S'b'
(dp18
S'name'
p19
S'Q'
sS'lib'
p20
(dp21
sS'unicodes'
p22
(tsg9
I1438
sS'contours'
p23
(tsS'components'
p24
(tsS'anchors'
p25
(tsss."
HStem: -22 36 1138 36
VStem: 128 42 1286 42
LayerCount: 2
Fore
SplineSet
1154 -174 m 257
 1104.63 -191.015 1063.94 -198.841 1027.9 -198.841 c 256
 913.542 -198.841 846.03 -120.054 697 -6 c 257
 746 -4 l 257
 868.158 -101.119 929.292 -167.151 1030.74 -167.151 c 256
 1063 -167.151 1099.33 -160.475 1143 -146 c 257
 1154 -174 l 257
EndSplineSet
Refer: 84 79 N 1 0 0 1 0 0 2
EndChar

StartChar: R
Encoding: 82 82 100
Width: 1296
VWidth: 0
Flags: HW
PickledData: "(dp1
S'org.robofab.postScriptHintData'
p2
(dp3
sS'com.fontlab.hintData'
p4
(dp5
S'vhints'
p6
((dp7
S'position'
p8
I130
sS'width'
p9
I396
s(dp10
g8
I1036
sg9
I42
stp11
sS'hhints'
p12
((dp13
g8
I539
sg9
I34
s(dp14
g8
I1118
sg9
I34
stp15
ssS'com.typemytype.robofont.layerData'
p16
(dp17
S'b'
(dp18
S'name'
p19
S'R'
sS'lib'
p20
(dp21
sS'unicodes'
p22
(tsg9
I1296
sS'contours'
p23
((dp24
S'points'
p25
((dp26
S'segmentType'
p27
S'line'
p28
sS'x'
I135
sS'smooth'
p29
I0
sS'y'
I0
s(dp30
g27
S'line'
p31
sS'x'
I512
sg29
I0
sS'y'
I0
s(dp32
g27
S'line'
p33
sS'x'
I512
sg29
I0
sS'y'
I58
s(dp34
g27
S'line'
p35
sS'x'
I353
sg29
I0
sS'y'
I58
s(dp36
g27
S'line'
p37
sS'x'
I353
sg29
I0
sS'y'
I539
s(dp38
g27
S'line'
p39
sS'x'
I641
sg29
I0
sS'y'
I539
s(dp40
g27
S'line'
p41
sS'x'
I961
sg29
I0
sS'y'
I0
s(dp42
g27
S'line'
p43
sS'x'
I1178
sg29
I0
sS'y'
I0
s(dp44
g27
S'line'
p45
sS'x'
I1178
sg29
I0
sS'y'
I58
s(dp46
g27
S'line'
p47
sS'x'
I1015
sg29
I0
sS'y'
I58
s(dp48
g27
S'line'
p49
sS'x'
I721
sg29
I0
sS'y'
I539
s(dp50
S'y'
I539
sS'x'
I945
sg29
I0
s(dp51
S'y'
I696
sS'x'
I1059
sg29
I0
s(dp52
g27
S'curve'
p53
sS'x'
I1059
sg29
I1
sS'y'
I848
s(dp54
S'y'
I1000
sS'x'
I1059
sg29
I0
s(dp55
S'y'
I1154
sS'x'
I945
sg29
I0
s(dp56
g27
S'curve'
p57
sS'x'
I721
sg29
I1
sS'y'
I1154
s(dp58
g27
S'line'
p59
sS'x'
I122
sg29
I0
sS'y'
I1154
s(dp60
g27
S'line'
p61
sS'x'
I122
sg29
I0
sS'y'
I1095
s(dp62
g27
S'line'
p63
sS'x'
I278
sg29
I0
sS'y'
I1095
s(dp64
g27
S'line'
p65
sS'x'
I278
sg29
I0
sS'y'
I58
s(dp66
g27
S'line'
p67
sS'x'
I135
sg29
I0
sS'y'
I58
stp68
s(dp69
g25
((dp70
g27
S'line'
p71
sS'x'
I353
sg29
I0
sS'y'
I1095
s(dp72
g27
S'line'
p73
sS'x'
I721
sg29
I1
sS'y'
I1095
s(dp74
S'y'
I1095
sS'x'
I898
sg29
I0
s(dp75
S'y'
I971
sS'x'
I985
sg29
I0
s(dp76
g27
S'curve'
p77
sS'x'
I985
sg29
I1
sS'y'
I845
s(dp78
S'y'
I723
sS'x'
I985
sg29
I0
s(dp79
S'y'
I600
sS'x'
I896
sg29
I0
s(dp80
g27
S'curve'
p81
sS'x'
I721
sg29
I1
sS'y'
I600
s(dp82
g27
S'line'
p83
sS'x'
I353
sg29
I0
sS'y'
I600
stp84
stp85
sS'components'
p86
(tsS'anchors'
p87
(tsss."
HStem: 539 34<419 661 661 661 419 853.5> 1118 34<130 306 306 306 350 526 526 759>
VStem: 130 396<0 34 0 34> 1036 42<786 909>
LayerCount: 2
Fore
SplineSet
1000 0 m 257
 661 539 l 257
 419 539 l 257
 419 573 l 257
 702 573 l 258
 978 573 1036 727 1036 845 c 256
 1036 973 971 1118 764 1118 c 258
 526 1118 l 257
 350 1118 l 257
 350 34 l 257
 526 34 l 257
 526 0 l 257
 130 0 l 257
 130 34 l 257
 306 34 l 257
 306 1118 l 257
 130 1118 l 257
 130 1152 l 257
 327 1152 l 257
 526 1152 l 257
 759 1152 l 258
 995 1152 1078 988 1078 845 c 256
 1078 698 996 539 711 539 c 257
 1029 34 l 257
 1198 34 l 257
 1198 0 l 257
 1000 0 l 257
EndSplineSet
EndChar

StartChar: S
Encoding: 83 83 104
Width: 1143
VWidth: 0
Flags: HW
PickledData: "(dp1
S'org.robofab.postScriptHintData'
p2
(dp3
sS'com.fontlab.hintData'
p4
(dp5
S'vhints'
p6
((dp7
S'position'
p8
I181
sS'width'
p9
I44
s(dp10
g8
I917
sg9
I44
s(dp11
g8
I988
sg9
I42
stp12
sS'hhints'
p13
((dp14
g8
I-22
sg9
I36
s(dp15
g8
I1138
sg9
I36
stp16
ssS'com.typemytype.robofont.layerData'
p17
(dp18
S'b'
(dp19
S'name'
p20
S'S'
sS'lib'
p21
(dp22
sS'unicodes'
p23
(tsg9
I1143
sS'contours'
p24
((dp25
S'points'
p26
((dp27
S'segmentType'
p28
S'curve'
p29
sS'x'
I636
sS'smooth'
p30
I1
sS'y'
S'-23'
p31
s(dp32
S'y'
S'-23'
p33
sS'x'
I930
sg30
I0
s(dp34
S'y'
I171
sS'x'
I1026
sg30
I0
s(dp35
g28
S'curve'
p36
sS'x'
I1026
sg30
I1
sS'y'
I295
s(dp37
S'y'
I543
sS'x'
I1026
sg30
I0
s(dp38
S'y'
I599
sS'x'
I829
sg30
I0
s(dp39
g28
S'curve'
p40
sS'x'
I606
sg30
I1
sS'y'
I622
s(dp41
S'y'
I643
sS'x'
I405
sg30
I0
s(dp42
S'y'
I667
sS'x'
I269
sg30
I0
s(dp43
g28
S'curve'
p44
sS'x'
I269
sg30
I1
sS'y'
I851
s(dp45
S'y'
I998
sS'x'
I269
sg30
I0
s(dp46
S'y'
I1104
sS'x'
I360
sg30
I0
s(dp47
g28
S'curve'
p48
sS'x'
I573
sg30
I1
sS'y'
I1104
s(dp49
S'y'
I1104
sS'x'
I719
sg30
I0
s(dp50
S'y'
I1024
sS'x'
I885
sg30
I0
s(dp51
g28
S'curve'
p52
sS'x'
I885
sg30
I1
sS'y'
I941
s(dp53
g28
S'line'
p54
sS'x'
I885
sg30
I0
sS'y'
I839
s(dp55
g28
S'line'
p56
sS'x'
I959
sg30
I0
sS'y'
I839
s(dp57
g28
S'line'
p58
sS'x'
I959
sg30
I0
sS'y'
I1152
s(dp59
g28
S'line'
p60
sS'x'
I885
sg30
I0
sS'y'
I1152
s(dp61
g28
S'line'
p62
sS'x'
I885
sg30
I0
sS'y'
I1049
s(dp63
S'y'
I1131
sS'x'
I828
sg30
I0
s(dp64
S'y'
I1172
sS'x'
I673
sg30
I0
s(dp65
g28
S'curve'
p66
sS'x'
I561
sg30
I1
sS'y'
I1172
s(dp67
S'y'
I1172
sS'x'
I360
sg30
I0
s(dp68
S'y'
I1066
sS'x'
I184
sg30
I0
s(dp69
g28
S'curve'
p70
sS'x'
I184
sg30
I1
sS'y'
I863
s(dp71
S'y'
I635
sS'x'
I184
sg30
I0
s(dp72
S'y'
I579
sS'x'
I332
sg30
I0
s(dp73
g28
S'curve'
p74
sS'x'
I584
sg30
I1
sS'y'
I553
s(dp75
S'y'
I531
sS'x'
I805
sg30
I0
s(dp76
S'y'
I488
sS'x'
I942
sg30
I0
s(dp77
g28
S'curve'
p78
sS'x'
I942
sg30
I1
sS'y'
I300
s(dp79
S'y'
I169
sS'x'
I942
sg30
I0
s(dp80
S'y'
I47
sS'x'
I831
sg30
I0
s(dp81
g28
S'curve'
p82
sS'x'
I644
sg30
I1
sS'y'
I47
s(dp83
S'y'
I47
sS'x'
I448
sg30
I0
s(dp84
S'y'
I118
sS'x'
I261
sg30
I0
s(dp85
g28
S'curve'
p86
sS'x'
I261
sg30
I1
sS'y'
I247
s(dp87
g28
S'line'
p88
sS'x'
I261
sg30
I0
sS'y'
I387
s(dp89
g28
S'line'
p90
sS'x'
I187
sg30
I0
sS'y'
I387
s(dp91
g28
S'line'
p92
sS'x'
I187
sg30
I0
sS'y'
S'-1'
p93
s(dp94
g28
S'line'
p95
sS'x'
I261
sg30
I0
sS'y'
S'-1'
p96
s(dp97
g28
S'line'
p98
sS'x'
I261
sg30
I0
sS'y'
I122
s(dp99
S'y'
I22
sS'x'
I335
sg30
I0
s(dp100
S'y'
S'-23'
p101
sS'x'
I496
sg30
I0
stp102
stp103
sS'components'
p104
(tsS'anchors'
p105
(tsss."
HStem: -22 36<537.5 775 517 813> 1138 36<465 631.5 465 678>
VStem: 181 44<-1 153 231 387 -1 153> 917 44<847 1152 1037 1037 1037 1152> 988 42<244.5 406>
LayerCount: 2
Fore
SplineSet
641 -22 m 256
 434 -22 276 24 225 153 c 257
 225 -1 l 257
 181 -1 l 257
 181 387 l 257
 225 387 l 257
 225 231 l 257
 266 80 390 14 644 14 c 256
 906 14 988 158 988 300 c 256
 988 512 836 542 609 560 c 256
 402 576 180 599 180 859 c 256
 180 1074 357 1174 573 1174 c 256
 690 1174 868 1127 917 1037 c 257
 917 1152 l 257
 961 1152 l 257
 961 847 l 257
 917 847 l 257
 918 958 l 258
 918 1044 779 1138 577 1138 c 256
 325 1138 222 1011 222 856 c 256
 222 638 410 617 614 598 c 256
 831 578 1030 562 1030 292 c 256
 1030 197 985 -22 641 -22 c 256
EndSplineSet
EndChar

StartChar: Sigma
Encoding: 931 931 112
Width: 838
VWidth: 0
Flags: HW
PickledData: "(dp1
S'org.robofab.postScriptHintData'
p2
(dp3
s."
LayerCount: 2
Fore
SplineSet
122 0 m 257
 122 31 l 257
 549 569 l 257
 139 1124 l 257
 139 1152 l 257
 777 1152 l 257
 777 1118 l 257
 193 1118 l 257
 599 569 l 257
 177 34 l 257
 811 34 l 257
 811 0 l 257
 122 0 l 257
EndSplineSet
EndChar

StartChar: T
Encoding: 84 84 113
Width: 1147
VWidth: 0
Flags: HW
PickledData: "(dp1
S'org.robofab.postScriptHintData'
p2
(dp3
sS'com.fontlab.hintData'
p4
(dp5
S'vhints'
p6
((dp7
S'position'
p8
I367
sS'width'
p9
I396
stp10
ssS'com.typemytype.robofont.layerData'
p11
(dp12
S'b'
(dp13
S'name'
p14
S'T'
sS'lib'
p15
(dp16
sS'unicodes'
p17
(tsg9
I1147
sS'contours'
p18
(tsS'components'
p19
(tsS'anchors'
p20
(tsss."
VStem: 367 396<0 34 0 34>
LayerCount: 2
Fore
SplineSet
52 777 m 257
 52 1152 l 257
 367 1152 l 257
 763 1152 l 257
 1097 1152 l 257
 1097 777 l 257
 1053 777 l 257
 1053 1118 l 257
 763 1118 l 257
 587 1118 l 257
 587 34 l 257
 763 34 l 257
 763 0 l 257
 367 0 l 257
 367 34 l 257
 543 34 l 257
 543 1118 l 257
 367 1118 l 257
 92 1118 l 257
 92 777 l 257
 52 777 l 257
EndSplineSet
EndChar

StartChar: Thorn
Encoding: 222 222 118
Width: 1226
VWidth: 0
Flags: HW
PickledData: "(dp1
S'org.robofab.postScriptHintData'
p2
(dp3
sS'com.fontlab.hintData'
p4
(dp5
S'vhints'
p6
((dp7
S'position'
p8
I130
sS'width'
p9
I396
s(dp10
g8
I1008
sg9
I44
stp11
sS'hhints'
p12
((dp13
g8
I342
sg9
I34
s(dp14
g8
I880
sg9
I34
stp15
ssS'com.typemytype.robofont.layerData'
p16
(dp17
S'b'
(dp18
S'name'
p19
S'Thorn'
p20
sS'lib'
p21
(dp22
sS'unicodes'
p23
(tsg9
I1226
sS'contours'
p24
(tsS'components'
p25
(tsS'anchors'
p26
(tsss."
HStem: 342 34<449 743 743 744 449 840> 880 34<350 730 730 731 350 817>
VStem: 130 396<0 34 0 34 1118 1152> 1008 44<653 653>
LayerCount: 2
Fore
SplineSet
448 342 m 257
 449 376 l 257
 744 376 l 258
 911 376 1009 479 1008 653 c 256
 1007 796 904 880 730 880 c 258
 350 880 l 257
 350 34 l 257
 526 34 l 257
 526 0 l 257
 130 0 l 257
 130 34 l 257
 306 34 l 257
 306 1118 l 257
 130 1118 l 257
 130 1152 l 257
 526 1152 l 257
 526 1118 l 257
 350 1118 l 257
 350 914 l 257
 731 914 l 258
 933 914 1052 817 1052 654 c 256
 1052 458 937 342 743 342 c 258
 448 342 l 257
EndSplineSet
EndChar

StartChar: U
Encoding: 85 85 119
Width: 1514
VWidth: 0
Flags: HW
PickledData: "(dp1
S'org.robofab.postScriptHintData'
p2
(dp3
sS'com.fontlab.hintData'
p4
(dp5
S'vhints'
p6
((dp7
S'position'
p8
I243
sS'width'
p9
I45
s(dp10
g8
I1238
sg9
I45
stp11
sS'hhints'
p12
((dp13
g8
I-22
sg9
I36
stp14
ssS'com.typemytype.robofont.layerData'
p15
(dp16
S'b'
(dp17
S'name'
p18
S'U'
sS'lib'
p19
(dp20
sS'unicodes'
p21
(tsg9
I1514
sS'contours'
p22
(tsS'components'
p23
(tsS'anchors'
p24
(tsss."
HStem: -22 36<609.5 890 609.5 903>
VStem: 243 45<252 1118 372 1118 372 1118> 1238 45<262.5 1118 368 1118>
LayerCount: 2
Fore
SplineSet
745 -22 m 256
 452 -22 243 136 243 368 c 258
 243 1118 l 257
 90 1118 l 257
 90 1152 l 257
 439 1152 l 257
 439 1118 l 257
 288 1118 l 257
 288 372 l 258
 288 159 474 14 745 14 c 256
 1035 14 1238 157 1238 368 c 258
 1238 1118 l 257
 1087 1118 l 257
 1087 1152 l 257
 1442 1152 l 257
 1442 1118 l 257
 1283 1118 l 257
 1283 368 l 258
 1283 136 1061 -22 745 -22 c 256
EndSplineSet
EndChar

StartChar: V
Encoding: 86 86 130
Width: 1228
VWidth: 0
Flags: HW
PickledData: "(dp1
S'org.robofab.postScriptHintData'
p2
(dp3
sS'com.typemytype.robofont.layerData'
p4
(dp5
S'b'
(dp6
S'name'
p7
S'V'
sS'lib'
p8
(dp9
sS'unicodes'
p10
(tsS'width'
p11
I1228
sS'contours'
p12
(tsS'components'
p13
(tsS'anchors'
p14
(tsss."
LayerCount: 2
Fore
SplineSet
591 0 m 257
 175 1118 l 257
 39 1118 l 257
 39 1152 l 257
 385 1152 l 257
 385 1118 l 257
 224 1118 l 257
 615 58 l 257
 1004 1118 l 257
 847 1118 l 257
 847 1152 l 257
 1184 1152 l 257
 1184 1118 l 257
 1063 1118 l 257
 641 0 l 257
 591 0 l 257
EndSplineSet
EndChar

StartChar: W
Encoding: 87 87 131
Width: 1962
VWidth: 0
Flags: HW
PickledData: "(dp1
S'org.robofab.postScriptHintData'
p2
(dp3
sS'com.typemytype.robofont.layerData'
p4
(dp5
S'b'
(dp6
S'name'
p7
S'W'
sS'lib'
p8
(dp9
sS'unicodes'
p10
(tsS'width'
p11
I1962
sS'contours'
p12
(tsS'components'
p13
(tsS'anchors'
p14
(tsss."
LayerCount: 2
Fore
SplineSet
601 0 m 257
 213 1118 l 257
 76 1118 l 257
 76 1152 l 257
 427 1152 l 257
 427 1118 l 257
 264 1118 l 257
 627 48 l 257
 958 1087 l 257
 993 1087 l 257
 1343 48 l 257
 1692 1118 l 257
 1535 1118 l 257
 1535 1152 l 257
 1886 1152 l 257
 1886 1118 l 257
 1748 1118 l 257
 1369 0 l 257
 1318 0 l 257
 980 1004 l 261
 654 0 l 257
 601 0 l 257
EndSplineSet
EndChar

StartChar: X
Encoding: 88 88 136
Width: 1293
VWidth: 0
Flags: HW
PickledData: "(dp1
S'org.robofab.postScriptHintData'
p2
(dp3
sS'com.typemytype.robofont.layerData'
p4
(dp5
S'b'
(dp6
S'name'
p7
S'X'
sS'lib'
p8
(dp9
sS'unicodes'
p10
(tsS'width'
p11
I1293
sS'contours'
p12
(tsS'components'
p13
(tsS'anchors'
p14
(tsss."
LayerCount: 2
Fore
SplineSet
118 0 m 257
 118 34 l 257
 254 34 l 257
 624 597 l 257
 278 1118 l 257
 130 1118 l 257
 130 1152 l 257
 469 1152 l 257
 469 1118 l 257
 315 1118 l 257
 642 628 l 257
 966 1118 l 257
 814 1118 l 257
 814 1152 l 257
 1161 1152 l 257
 1161 1118 l 257
 1015 1118 l 257
 668 585 l 257
 1033 34 l 257
 1180 34 l 257
 1180 0 l 257
 843 0 l 257
 843 34 l 257
 998 34 l 257
 649 555 l 257
 308 34 l 257
 458 34 l 257
 458 0 l 257
 118 0 l 257
EndSplineSet
EndChar

StartChar: Y
Encoding: 89 89 137
Width: 1254
VWidth: 0
Flags: HW
PickledData: "(dp1
S'org.robofab.postScriptHintData'
p2
(dp3
sS'com.typemytype.robofont.layerData'
p4
(dp5
S'b'
(dp6
S'name'
p7
S'Y'
sS'lib'
p8
(dp9
sS'unicodes'
p10
(tsS'width'
p11
I1254
sS'contours'
p12
(tsS'components'
p13
(tsS'anchors'
p14
(tsss."
LayerCount: 2
Fore
SplineSet
436 0 m 257
 436 34 l 257
 604 34 l 257
 604 459 l 257
 169 1118 l 257
 12 1118 l 257
 12 1152 l 257
 369 1152 l 257
 369 1118 l 257
 217 1118 l 257
 626 501 l 257
 1035 1118 l 257
 873 1118 l 257
 873 1152 l 257
 1237 1152 l 257
 1237 1118 l 257
 1085 1118 l 257
 648 459 l 257
 648 34 l 257
 816 34 l 257
 816 0 l 257
 436 0 l 257
EndSplineSet
EndChar

StartChar: Z
Encoding: 90 90 142
Width: 1241
VWidth: 0
Flags: HW
PickledData: "(dp1
S'org.robofab.postScriptHintData'
p2
(dp3
sS'com.typemytype.robofont.layerData'
p4
(dp5
S'b'
(dp6
S'name'
p7
S'Z'
sS'lib'
p8
(dp9
sS'unicodes'
p10
(tsS'width'
p11
I1241
sS'contours'
p12
(tsS'components'
p13
(tsS'anchors'
p14
(tsss."
LayerCount: 2
Fore
SplineSet
143 0 m 257
 143 36 l 257
 1014 1118 l 257
 211 1118 l 257
 211 808 l 257
 171 808 l 257
 171 1152 l 257
 1062 1152 l 257
 1062 1117 l 257
 191 34 l 257
 1051 34 l 257
 1051 359 l 257
 1091 359 l 257
 1091 0 l 257
 143 0 l 257
EndSplineSet
EndChar

StartChar: a
Encoding: 97 97 146
Width: 951
VWidth: 0
Flags: HW
PickledData: "(dp1
S'org.robofab.postScriptHintData'
p2
(dp3
sS'com.fontlab.hintData'
p4
(dp5
S'vhints'
p6
((dp7
S'position'
p8
I133
sS'width'
p9
I42
s(dp10
g8
I719
sg9
I44
s(dp11
g8
I735
sg9
I28
stp12
sS'hhints'
p13
((dp14
g8
I-22
sg9
I34
s(dp15
g8
I416
sg9
I34
s(dp16
g8
I792
sg9
I34
stp17
ssS'com.typemytype.robofont.layerData'
p18
(dp19
S'b'
(dp20
S'name'
p21
S'a'
sS'lib'
p22
(dp23
sS'unicodes'
p24
(tsg9
I951
sS'contours'
p25
((dp26
S'points'
p27
((dp28
S'segmentType'
p29
S'curve'
p30
sS'x'
I391
sS'smooth'
p31
I1
sS'y'
S'-14'
p32
s(dp33
S'y'
S'-14'
p34
sS'x'
I507
sg31
I0
s(dp35
S'y'
I21
sS'x'
I593
sg31
I0
s(dp36
g29
S'curve'
p37
sS'x'
I687
sg31
I0
sS'y'
I91
s(dp38
g29
S'line'
p39
sS'x'
I703
sg31
I0
sS'y'
S'-1'
p40
s(dp41
g29
S'line'
p42
sS'x'
I890
sg31
I0
sS'y'
S'-1'
p43
s(dp44
g29
S'line'
p45
sS'x'
I890
sg31
I0
sS'y'
I57
s(dp46
g29
S'line'
p47
sS'x'
I764
sg31
I0
sS'y'
I57
s(dp48
g29
S'line'
p49
sS'x'
I764
sg31
I1
sS'y'
I569
s(dp50
S'y'
I672
sS'x'
I764
sg31
I0
s(dp51
S'y'
I819
sS'x'
I710
sg31
I0
s(dp52
g29
S'curve'
p53
sS'x'
I461
sg31
I1
sS'y'
I819
s(dp54
S'y'
I819
sS'x'
I332
sg31
I0
s(dp55
S'y'
I792
sS'x'
I226
sg31
I0
s(dp56
g29
S'curve'
p57
sS'x'
I155
sg31
I0
sS'y'
I724
s(dp58
g29
S'line'
p59
sS'x'
I190
sg31
I0
sS'y'
I668
s(dp60
S'y'
I726
sS'x'
I247
sg31
I0
s(dp61
S'y'
I755
sS'x'
I339
sg31
I0
s(dp62
g29
S'curve'
p63
sS'x'
I459
sg31
I1
sS'y'
I755
s(dp64
S'y'
I755
sS'x'
I600
sg31
I0
s(dp65
S'y'
I706
sS'x'
I687
sg31
I0
s(dp66
g29
S'curve'
p67
sS'x'
I687
sg31
I1
sS'y'
I551
s(dp68
g29
S'line'
p69
sS'x'
I687
sg31
I0
sS'y'
I428
s(dp70
S'y'
I443
sS'x'
I609
sg31
I0
s(dp71
S'y'
I455
sS'x'
I539
sg31
I0
s(dp72
g29
S'curve'
p73
sS'x'
I465
sg31
I1
sS'y'
I455
s(dp74
S'y'
I455
sS'x'
I295
sg31
I0
s(dp75
S'y'
I433
sS'x'
I117
sg31
I0
s(dp76
g29
S'curve'
p77
sS'x'
I117
sg31
I1
sS'y'
I222
s(dp78
S'y'
I96
sS'x'
I117
sg31
I0
s(dp79
S'y'
S'-14'
p80
sS'x'
I206
sg31
I0
stp81
s(dp82
g27
((dp83
g29
S'curve'
p84
sS'x'
I401
sg31
I1
sS'y'
I50
s(dp85
S'y'
I50
sS'x'
I246
sg31
I0
s(dp86
S'y'
I142
sS'x'
I195
sg31
I0
s(dp87
g29
S'curve'
p88
sS'x'
I195
sg31
I1
sS'y'
I220
s(dp89
S'y'
I390
sS'x'
I195
sg31
I0
s(dp90
S'y'
I393
sS'x'
I346
sg31
I0
s(dp91
g29
S'curve'
p92
sS'x'
I462
sg31
I1
sS'y'
I393
s(dp93
S'y'
I393
sS'x'
I559
sg31
I0
s(dp94
S'y'
I368
sS'x'
I687
sg31
I0
s(dp95
g29
S'curve'
p96
sS'x'
I687
sg31
I0
sS'y'
I368
s(dp97
g29
S'line'
p98
sS'x'
I687
sg31
I0
sS'y'
I151
s(dp99
S'y'
I76
sS'x'
I606
sg31
I0
s(dp100
S'y'
I50
sS'x'
I511
sg31
I0
stp101
stp102
sS'components'
p103
(tsS'anchors'
p104
(tsss."
HStem: -22 34<327.5 447.5> 416 34<345 454.5> 792 34<433 547.5>
VStem: 133 42<161.5 289.5 161.5 306> 719 44<118 379 118 118 414 540 414 414> 735 28
LayerCount: 2
Fore
SplineSet
402 -22 m 256
 240 -22 133 73 133 217 c 256
 133 395 262 450 406 450 c 256
 506 450 617 432 719 414 c 257
 719 540 l 258
 719 714 618 792 477 792 c 256
 377 792 279 759 195 726 c 257
 182 763 l 257
 293 805 398 826 468 826 c 256
 714 826 763 669 763 558 c 258
 763 34 l 257
 886 34 l 257
 886 0 l 257
 735 0 l 257
 735 -8 721 84 721 84 c 257
 596 11 493 -22 402 -22 c 256
400 12 m 256
 498 12 579 41 719 118 c 257
 719 379 l 257
 607 395 502 416 407 416 c 256
 283 416 175 364 175 215 c 256
 175 108 255 12 400 12 c 256
EndSplineSet
EndChar

StartChar: acute
Encoding: 180 180 150
Width: 129
VWidth: 0
Flags: HW
PickledData: "(dp1
S'org.robofab.postScriptHintData'
p2
(dp3
sS'com.fontlab.hintData'
p4
(dp5
S'hhints'
p6
((dp7
S'position'
p8
I991
sS'width'
p9
I245
stp10
ssS'com.typemytype.robofont.layerData'
p11
(dp12
S'b'
(dp13
S'name'
p14
S'acute'
p15
sS'lib'
p16
(dp17
sS'unicodes'
p18
(tsg9
I129
sS'contours'
p19
(tsS'components'
p20
(tsS'anchors'
p21
(tsss."
HStem: 991 245<0 87 21 87>
LayerCount: 2
Fore
SplineSet
87 1236 m 257
 129 1236 l 257
 21 991 l 257
 0 991 l 257
 87 1236 l 257
EndSplineSet
EndChar

StartChar: ae
Encoding: 230 230 152
Width: 1657
VWidth: 0
Flags: HW
PickledData: "(dp1
S'org.robofab.postScriptHintData'
p2
(dp3
sS'com.fontlab.hintData'
p4
(dp5
S'vhints'
p6
((dp7
S'position'
p8
I154
sS'width'
p9
I42
s(dp10
g8
I767
sg9
I39
s(dp11
g8
I1475
sg9
I36
stp12
sS'hhints'
p13
((dp14
g8
I-22
sg9
I34
s(dp15
g8
I394
sg9
I34
s(dp16
g8
I792
sg9
I34
stp17
ssS'com.typemytype.robofont.layerData'
p18
(dp19
S'b'
(dp20
S'name'
p21
S'ae'
p22
sS'lib'
p23
(dp24
sS'unicodes'
p25
(tsg9
I1657
sS'contours'
p26
(tsS'components'
p27
(tsS'anchors'
p28
(tsss."
HStem: -22 34<354 495 1083.5 1213.5> 394 34<561 563 563 767> 792 34<440.5 592 1065.5 1253>
VStem: 154 42<150.5 290.5 150.5 303> 767 39<359.5 394 394 428 394 535> 1475 36<427 539.5 394 541>
LayerCount: 2
Fore
SplineSet
1475 427 m 257
 1475 655 1352 792 1154 792 c 256
 923 792 813 613 806 428 c 257
 1475 427 l 257
439 12 m 256
 602 12 725 44 820 140 c 257
 784 212 767 325 767 394 c 257
 561 394 l 258
 338 394 196 366 196 215 c 256
 196 86 269 12 439 12 c 256
439 -22 m 256
 243 -22 154 62 154 215 c 256
 154 391 327 428 563 428 c 258
 767 428 l 257
 767 535 l 258
 767 729 680 792 504 792 c 256
 377 792 277 743 217 682 c 257
 194 712 l 257
 267 782 375 826 504 826 c 256
 719 826 793 738 799 556 c 257
 838 733 977 826 1154 826 c 256
 1364 826 1511 685 1511 394 c 257
 806 394 l 257
 804 140 907 12 1148 12 c 256
 1279 12 1409 68 1504 173 c 257
 1520 142 l 257
 1394 25 1322 -22 1148 -22 c 256
 1019 -22 913 13 838 111 c 257
 706 -12 551 -22 439 -22 c 256
EndSplineSet
EndChar

StartChar: ampersand
Encoding: 38 38 157
Width: 1088
VWidth: 0
Flags: HW
PickledData: "(dp1
S'org.robofab.postScriptHintData'
p2
(dp3
sS'com.fontlab.hintData'
p4
(dp5
S'vhints'
p6
((dp7
S'position'
p8
I120
sS'width'
p9
I42
s(dp10
g8
I209
sg9
I36
s(dp11
g8
I685
sg9
I42
s(dp12
g8
I877
sg9
I33
stp13
sS'hhints'
p14
((dp15
g8
I-22
sg9
I36
s(dp16
g8
I1136
sg9
I36
stp17
ssS'com.typemytype.robofont.layerData'
p18
(dp19
S'b'
(dp20
S'name'
p21
S'ampersand'
p22
sS'lib'
p23
(dp24
sS'unicodes'
p25
(tsg9
I1088
sS'contours'
p26
(tsS'components'
p27
(tsS'anchors'
p28
(tsss."
HStem: -22 36<375 539 375 546.5> 1136 36<401 539>
VStem: 120 42<209 380.5 209 386.5> 209 36<918 1020 917 1033> 685 42<899 1020.5> 877 33<374.5 433>
LayerCount: 2
Fore
SplineSet
412 656 m 257
 578 717 685 832 685 966 c 256
 685 1075 608 1136 470 1136 c 256
 332 1136 245 1073 245 967 c 256
 245 867 324 767 412 656 c 257
476 14 m 256
 602 14 712 56 776 134 c 257
 397 610 l 257
 238 565 162 458 162 303 c 256
 162 115 274 14 476 14 c 256
476 -22 m 256
 247 -22 120 92 120 303 c 256
 120 470 202 587 376 642 c 257
 276 765 209 869 209 967 c 256
 209 1099 302 1172 470 1172 c 256
 635 1172 727 1098 727 966 c 256
 727 825 611 700 429 628 c 257
 803 161 l 257
 838 223 877 369 877 433 c 257
 1042 433 l 257
 1042 400 l 257
 910 400 l 257
 910 349 865 199 823 132 c 257
 901 34 l 257
 1042 34 l 257
 1042 0 l 257
 882 0 l 257
 799 106 l 257
 736 26 617 -22 476 -22 c 256
EndSplineSet
EndChar

StartChar: apostrophemod
Encoding: 700 700 159
Width: 600
VWidth: 0
Flags: HW
PickledData: "(dp1
S'org.robofab.postScriptHintData'
p2
(dp3
sS'com.fontlab.hintData'
p4
(dp5
S'vhints'
p6
((dp7
S'position'
p8
I104
sS'width'
p9
I33
stp10
sS'hhints'
p11
((dp12
g8
I922
sg9
I18
stp13
ss."
HStem: 922 18<45 86>
VStem: 104 33<1033.5 1073 1033.5 1079>
LayerCount: 2
Fore
SplineSet
45 922 m 257
 45 940 l 257
 95 946 104 967 104 1079 c 257
 55 1079 l 257
 55 1176 l 257
 138 1175 l 257
 137 1073 l 258
 137 994 127 922 45 922 c 257
EndSplineSet
EndChar

StartChar: approxequal
Encoding: 8776 8776 160
Width: 600
VWidth: 0
Flags: HW
PickledData: "(dp1
S'org.robofab.postScriptHintData'
p2
(dp3
sS'com.fontlab.hintData'
p4
(dp5
S'vhints'
p6
((dp7
S'position'
p8
I28
sS'width'
p9
I522
stp10
sS'hhints'
p11
((dp12
g8
I395
sg9
I56
s(dp13
g8
I465
sg9
I56
s(dp14
g8
I595
sg9
I56
s(dp15
g8
I665
sg9
I56
stp16
ss."
HStem: 395 56<405 437.5> 465 56<126 158.5> 595 56<405 437.5> 665 56<126 158.5>
VStem: 28 522<440 481 427 493 440 627 640 681>
LayerCount: 2
Fore
SplineSet
550 493 m 257
 550 440 l 257
 500 409 459 395 416 395 c 256
 376 395 333 407 278 429 c 256
 223 449 180 465 137 465 c 256
 102 465 68 454 28 427 c 257
 28 481 l 257
 69 510 107 521 145 521 c 256
 193 521 243 504 303 481 c 256
 354 461 389 451 421 451 c 256
 462 451 496 466 550 493 c 257
550 693 m 257
 550 640 l 257
 500 609 459 595 416 595 c 256
 376 595 333 607 278 629 c 256
 223 649 180 665 137 665 c 256
 102 665 68 654 28 627 c 257
 28 681 l 257
 69 710 107 721 145 721 c 256
 193 721 243 704 303 681 c 256
 354 661 389 651 421 651 c 256
 462 651 496 666 550 693 c 257
EndSplineSet
EndChar

StartChar: asciicircum
Encoding: 94 94 162
Width: 911
VWidth: 0
Flags: HW
PickledData: "(dp1
S'org.robofab.postScriptHintData'
p2
(dp3
sS'com.typemytype.robofont.layerData'
p4
(dp5
S'b'
(dp6
S'name'
p7
S'asciicircum'
p8
sS'lib'
p9
(dp10
sS'unicodes'
p11
(tsS'width'
p12
I911
sS'contours'
p13
(tsS'components'
p14
(tsS'anchors'
p15
(tsss."
LayerCount: 2
Fore
SplineSet
70 823 m 257
 434 1289 l 257
 492 1289 l 257
 836 823 l 257
 795 823 l 257
 463 1244 l 257
 113 823 l 257
 70 823 l 257
EndSplineSet
EndChar

StartChar: asciitilde
Encoding: 126 126 163
Width: 708
VWidth: 0
Flags: HW
PickledData: "(dp1
S'org.robofab.postScriptHintData'
p2
(dp3
sS'com.fontlab.hintData'
p4
(dp5
S'vhints'
p6
((dp7
S'position'
p8
I63
sS'width'
p9
I570
stp10
sS'hhints'
p11
((dp12
g8
I532
sg9
I40
stp13
ssS'com.typemytype.robofont.layerData'
p14
(dp15
S'b'
(dp16
S'name'
p17
S'asciitilde'
p18
sS'lib'
p19
(dp20
sS'unicodes'
p21
(tsg9
I708
sS'contours'
p22
(tsS'components'
p23
(tsS'anchors'
p24
(tsss."
HStem: 532 40
VStem: 63 570<576 616 572 620>
LayerCount: 2
Fore
SplineSet
633 620 m 261
 633 576 l 261
 602 537 560 511 500 512 c 256
 378 514 302 631 215 639 c 256
 162 644 103 626 63 572 c 261
 63 616 l 261
 120 677 170 684 219 680 c 256
 314 672 403 553 504 552 c 256
 552 552 611 584 633 620 c 261
EndSplineSet
EndChar

StartChar: asterisk
Encoding: 42 42 164
Width: 941
VWidth: 0
Flags: HW
PickledData: "(dp1
S'org.robofab.postScriptHintData'
p2
(dp3
sS'com.fontlab.hintData'
p4
(dp5
S'hhints'
p6
((dp7
S'position'
p8
I817
sS'width'
p9
I21
stp10
ssS'com.typemytype.robofont.layerData'
p11
(dp12
S'b'
(dp13
S'name'
p14
S'asterisk'
p15
sS'lib'
p16
(dp17
sS'unicodes'
p18
(tsg9
I941
sS'contours'
p19
(tsS'components'
p20
(tsS'anchors'
p21
(tsss."
HStem: 817 21<454 454 488 488>
LayerCount: 2
Fore
SplineSet
240 417 m 257
 176 466 l 257
 447 788 l 257
 44 920 l 257
 72 992 l 257
 454 817 l 257
 426 1236 l 257
 515 1236 l 257
 488 817 l 257
 868 992 l 257
 896 920 l 257
 493 788 l 257
 765 466 l 257
 700 417 l 257
 471 765 l 257
 240 417 l 257
EndSplineSet
EndChar

StartChar: at
Encoding: 64 64 165
Width: 1379
VWidth: 0
Flags: HW
PickledData: "(dp1
S'org.robofab.postScriptHintData'
p2
(dp3
sS'com.fontlab.hintData'
p4
(dp5
S'vhints'
p6
((dp7
S'position'
p8
I118
sS'width'
p9
I44
s(dp10
g8
I391
sg9
I41
s(dp11
g8
I897
sg9
I23
s(dp12
g8
I1233
sg9
I34
stp13
sS'hhints'
p14
((dp15
g8
I-25
sg9
I29
s(dp16
g8
I250
sg9
I29
s(dp17
g8
I862
sg9
I32
s(dp18
g8
I1127
sg9
I29
stp19
ssS'com.typemytype.robofont.layerData'
p20
(dp21
S'b'
(dp22
S'name'
p23
S'at'
p24
sS'lib'
p25
(dp26
sS'unicodes'
p27
(tsg9
I1379
sS'contours'
p28
(tsS'components'
p29
(tsS'anchors'
p30
(tsss."
HStem: -25 29<563.5 825 563.5 833> 250 29<564.5 688.378> 862 32<620.5 762> 1127 29<569.5 909>
VStem: 118 44<398 694.5> 391 41<449.5 609> 897 23<683 723> 1233 34<549 793>
LayerCount: 2
Fore
SplineSet
631 279 m 256
 792 279 897 483 897 650 c 256
 897 796 821 862 703 862 c 256
 538 862 432 706 432 518 c 256
 432 381 498 279 631 279 c 256
750 -25 m 256
 317 -25 118 251 118 545 c 256
 118 844 339 1156 741 1156 c 256
 1117 1156 1267 918 1267 678 c 256
 1267 419 1080 238 941 250 c 256
 887.64 254.851 825.81 299.234 879.698 464.42 c 257
 835.912 342.096 750.756 250 626 250 c 256
 498 250 391 341 391 519 c 256
 391 699 492 894 707 894 c 256
 831 894 920 813 920 683 c 257
 958 874 l 257
 1000 874 l 257
 912 475 l 258
 879 323 893 282 956 279 c 256
 1052 275 1233 420 1233 678 c 256
 1233 908 1081 1127 737 1127 c 256
 402 1127 162 876 162 543 c 256
 162 219 377 4 750 4 c 256
 900 4 1017 34 1111 96 c 257
 1123 78 l 257
 1028 10 916 -25 750 -25 c 256
EndSplineSet
EndChar

StartChar: b
Encoding: 98 98 167
Width: 1037
VWidth: 0
Flags: HW
PickledData: "(dp1
S'org.robofab.postScriptHintData'
p2
(dp3
sS'com.fontlab.hintData'
p4
(dp5
S'vhints'
p6
((dp7
S'position'
p8
I66
sS'width'
p9
I184
s(dp10
g8
I932
sg9
I42
stp11
sS'hhints'
p12
((dp13
g8
I-22
sg9
I34
s(dp14
g8
I792
sg9
I34
stp15
ssS'com.typemytype.robofont.layerData'
p16
(dp17
S'b'
(dp18
S'name'
p19
S'b'
sS'lib'
p20
(dp21
sS'unicodes'
p22
(tsg9
I1037
sS'contours'
p23
(tsS'components'
p24
(tsS'anchors'
p25
(tsss."
HStem: -22 34<493.479 664 493.479 675> 792 34<512.317 675>
VStem: 66 184<0 34 0 98.5197> 932 42<400 400>
LayerCount: 2
Fore
SplineSet
545 -22 m 256
 440.378 -22 330.061 23.5535 250 98.5197 c 257
 250 0 l 257
 66 0 l 257
 66 34 l 257
 206 34 l 257
 206 1140 l 257
 74 1140 l 257
 74 1174 l 257
 250 1174 l 257
 250 712.284 l 257
 342.005 782.48 459.453 826 561 826 c 256
 820 826 979 662 974 400 c 256
 970 141 805 -22 545 -22 c 256
250 674.894 m 257
 250 139.623 l 257
 331.563 60.2026 441.958 12 545 12 c 256
 783 12 932 162 932 400 c 256
 932 641 789 792 561 792 c 256
 463.633 792 346.015 747.281 250 674.894 c 257
EndSplineSet
EndChar

StartChar: backslash
Encoding: 92 92 168
Width: 296
VWidth: 0
Flags: HW
PickledData: "(dp1
S'org.robofab.postScriptHintData'
p2
(dp3
sS'com.typemytype.robofont.layerData'
p4
(dp5
S'b'
(dp6
S'name'
p7
S'backslash'
p8
sS'lib'
p9
(dp10
sS'unicodes'
p11
(tsS'width'
p12
I296
sS'contours'
p13
(tsS'components'
p14
(tsS'anchors'
p15
(tsss."
LayerCount: 2
Fore
SplineSet
272 -25 m 257
 -35 1172 l 257
 7 1172 l 257
 320 -25 l 257
 272 -25 l 257
EndSplineSet
EndChar

StartChar: bar
Encoding: 124 124 169
Width: 348
VWidth: 0
Flags: HW
PickledData: "(dp1
S'org.robofab.postScriptHintData'
p2
(dp3
sS'com.fontlab.hintData'
p4
(dp5
S'vhints'
p6
((dp7
S'position'
p8
I159
sS'width'
p9
I41
stp10
ssS'com.typemytype.robofont.layerData'
p11
(dp12
S'b'
(dp13
S'name'
p14
S'bar'
p15
sS'lib'
p16
(dp17
sS'unicodes'
p18
(tsg9
I348
sS'contours'
p19
(tsS'components'
p20
(tsS'anchors'
p21
(tsss."
VStem: 159 41<6 1180 6 1180>
LayerCount: 2
Fore
SplineSet
159 6 m 257
 159 1180 l 257
 200 1180 l 257
 200 6 l 257
 159 6 l 257
EndSplineSet
EndChar

StartChar: braceleft
Encoding: 123 123 171
Width: 404
VWidth: 0
Flags: HW
PickledData: "(dp1
S'org.robofab.postScriptHintData'
p2
(dp3
sS'com.fontlab.hintData'
p4
(dp5
S'vhints'
p6
((dp7
S'position'
p8
I141
sS'width'
p9
I61
stp10
sS'hhints'
p11
((dp12
g8
I12
sg9
I33
s(dp13
g8
I543
sg9
I66
s(dp14
g8
I1106
sg9
I35
stp15
ssS'com.typemytype.robofont.layerData'
p16
(dp17
S'b'
(dp18
S'name'
p19
S'braceleft'
p20
sS'lib'
p21
(dp22
sS'unicodes'
p23
(tsg9
I404
sS'contours'
p24
(tsS'components'
p25
(tsS'anchors'
p26
(tsss."
HStem: 12 33<304 361 300.5 361> 543 66<8 72> 1106 35<297 305 305 361>
VStem: 141 61<234.5 330.129 144.5 424 813.769 932.5>
LayerCount: 2
Back
SplineSet
304 12 m 258
 361 12 l 257
 361 45 l 257
 240 45 202 71 202 218 c 256
 202 442.257 194.525 570.274 89.2577 575.86 c 257
 191.741 579.012 202 707.537 202 920 c 256
 202 1082 233 1106 361 1106 c 257
 361 1141 l 257
 305 1141 l 258
 147 1141 156 1031 156 834 c 260
 156 657 146 609 8 609 c 257
 8 543 l 257
 136 543 156 503 156 345 c 260
 156 124 146 12 304 12 c 258
EndSplineSet
Fore
SplineSet
304 1 m 258
 163.752929688 1 155.874023438 89.2451171875 155.874023438 263.637695312 c 0
 155.874023438 285.712890625 156 309.168945312 156 334 c 256
 156 512 136 549 8 549 c 257
 8 595 l 257
 146 595 156 637 156 834 c 256
 156 854.147727273 155.905862603 873.385459711 155.905862603 891.688593222 c 0
 155.905862603 1052.34943182 163.159090909 1141 305 1141 c 258
 361 1141 l 257
 361 1106 l 257
 213 1106 202 1092 202 920 c 256
 202 657.537 201.741210938 584.01171875 69.2578125 571.860351562 c 257
 199.656413035 558.763442004 202.003272026 486.719170147 202.003272026 235.855333395 c 0
 202.003272026 226.488281951 202 216.871917622 202 207 c 256
 202 50 220 34 361 34 c 257
 361 1 l 257
 304 1 l 258
EndSplineSet
EndChar

StartChar: braceright
Encoding: 125 125 172
Width: 404
VWidth: 0
Flags: HW
PickledData: "(dp1
S'org.robofab.postScriptHintData'
p2
(dp3
sS'com.fontlab.hintData'
p4
(dp5
S'vhints'
p6
((dp7
S'position'
p8
I191
sS'width'
p9
I63
stp10
sS'hhints'
p11
((dp12
g8
I12
sg9
I33
s(dp13
g8
I543
sg9
I66
s(dp14
g8
I1106
sg9
I35
stp15
ssS'com.typemytype.robofont.layerData'
p16
(dp17
S'b'
(dp18
S'name'
p19
S'braceright'
p20
sS'lib'
p21
(dp22
sS'unicodes'
p23
(tsg9
I406
sS'contours'
p24
(tsS'components'
p25
(tsS'anchors'
p26
(tsss."
HStem: 12 33<41 98 41 101.5> 543 66<330 394> 1106 35<97 105 41 97>
VStem: 200 61<234.5 330.129 144.5 424 813.769 932.5>
LayerCount: 2
Fore
SplineSet
98 1 m 258
 41 1 l 257
 41 34 l 257
 182 34 200 50 200 207 c 256
 200 216.872070312 199.997070312 226.48828125 199.997070312 235.85546875 c 0
 199.997070312 486.71875 202.34375 558.763671875 332.7421875 571.860351562 c 257
 200.258789062 584.01171875 200 657.537109375 200 920 c 256
 200 1092 189 1106 41 1106 c 257
 41 1141 l 257
 97 1141 l 258
 238.840820312 1141 246.09375 1052.34960938 246.09375 891.688476562 c 0
 246.09375 873.385742188 246 854.147460938 246 834 c 256
 246 637 256 595 394 595 c 257
 394 549 l 257
 266 549 246 512 246 334 c 256
 246 309.168945312 246.125976562 285.712890625 246.125976562 263.637695312 c 0
 246.125976562 89.2451171875 238.247070312 1 98 1 c 258
EndSplineSet
EndChar

StartChar: bracketleft
Encoding: 91 91 173
Width: 318
VWidth: 0
Flags: HW
PickledData: "(dp1
S'org.robofab.postScriptHintData'
p2
(dp3
sS'com.fontlab.hintData'
p4
(dp5
S'vhints'
p6
((dp7
S'position'
p8
I157
sS'width'
p9
I160
stp10
ssS'com.typemytype.robofont.layerData'
p11
(dp12
S'b'
(dp13
S'name'
p14
S'bracketleft'
p15
sS'lib'
p16
(dp17
sS'unicodes'
p18
(tsg9
I318
sS'contours'
p19
(tsS'components'
p20
(tsS'anchors'
p21
(tsss."
VStem: 157 160<-127 -88 -127 -88 1152 1189>
LayerCount: 2
Fore
SplineSet
157 -127 m 257
 157 1189 l 257
 317 1189 l 257
 317 1152 l 257
 207 1152 l 257
 207 -88 l 257
 317 -88 l 257
 317 -127 l 257
 157 -127 l 257
EndSplineSet
EndChar

StartChar: bracketright
Encoding: 93 93 174
Width: 316
VWidth: 0
Flags: HW
PickledData: "(dp1
S'org.robofab.postScriptHintData'
p2
(dp3
sS'com.fontlab.hintData'
p4
(dp5
S'vhints'
p6
((dp7
S'position'
p8
I-10
sS'width'
p9
I160
stp10
ssS'com.typemytype.robofont.layerData'
p11
(dp12
S'b'
(dp13
S'name'
p14
S'bracketright'
p15
sS'lib'
p16
(dp17
sS'unicodes'
p18
(tsg9
I316
sS'contours'
p19
(tsS'components'
p20
(tsS'anchors'
p21
(tsss."
VStem: -10 160<-127 1189 -127 -88 1152 1152 1152 1189>
LayerCount: 2
Fore
SplineSet
-10 -127 m 257
 -10 -88 l 257
 100 -88 l 257
 100 1152 l 257
 -10 1152 l 257
 -10 1189 l 257
 150 1189 l 257
 150 -127 l 257
 -10 -127 l 257
EndSplineSet
EndChar

StartChar: breve
Encoding: 728 728 175
Width: 233
VWidth: 0
Flags: HW
PickledData: "(dp1
S'org.robofab.postScriptHintData'
p2
(dp3
sS'com.fontlab.hintData'
p4
(dp5
S'vhints'
p6
((dp7
S'position'
p8
I-15
sS'width'
p9
I30
s(dp10
g8
I224
sg9
I28
stp11
sS'hhints'
p12
((dp13
g8
I934
sg9
I33
stp14
ssS'com.typemytype.robofont.layerData'
p15
(dp16
S'b'
(dp17
S'name'
p18
S'breve'
p19
sS'lib'
p20
(dp21
sS'unicodes'
p22
(tsg9
I233
sS'contours'
p23
(tsS'components'
p24
(tsS'anchors'
p25
(tsss."
HStem: 934 33<120 120>
VStem: -15 30<1059 1059> 224 28<1059 1059>
LayerCount: 2
Fore
SplineSet
120 934 m 256
 48 933 4 974 -15 1059 c 257
 15 1059 l 257
 33 997 67 967 120 967 c 256
 172 967 206 997 224 1059 c 257
 252 1059 l 257
 237 974 194 933 120 934 c 256
EndSplineSet
EndChar

StartChar: breveinvertedcomb
Encoding: 785 785 176
Width: 962
VWidth: 0
Flags: W
PickledData: "(dp1
S'org.robofab.postScriptHintData'
p2
(dp3
sS'com.typemytype.robofont.layerData'
p4
(dp5
S'b'
(dp6
S'name'
p7
S'uni0311'
p8
sS'lib'
p9
(dp10
sS'unicodes'
p11
(tsS'width'
p12
I962
sS'contours'
p13
(tsS'components'
p14
(tsS'anchors'
p15
(tsss."
LayerCount: 2
Fore
SplineSet
352 934 m 257
 382 934 l 257
 400 996 434 1026 487 1026 c 256
 539 1026 573 996 591 934 c 257
 619 934 l 257
 604 1019 561 1060 487 1059 c 256
 415 1060 371 1019 352 934 c 257
EndSplineSet
EndChar

StartChar: brokenbar
Encoding: 166 166 177
Width: 418
VWidth: 0
Flags: HW
PickledData: "(dp1
S'org.robofab.postScriptHintData'
p2
(dp3
sS'com.fontlab.hintData'
p4
(dp5
S'vhints'
p6
((dp7
S'position'
p8
I184
sS'width'
p9
I47
stp10
ssS'com.typemytype.robofont.layerData'
p11
(dp12
S'b'
(dp13
S'name'
p14
S'brokenbar'
p15
sS'lib'
p16
(dp17
sS'unicodes'
p18
(tsg9
I418
sS'contours'
p19
(tsS'components'
p20
(tsS'anchors'
p21
(tsss."
VStem: 184 47<-26 544 -26 544 725 1296>
LayerCount: 2
Fore
SplineSet
184 725 m 257
 184 1296 l 257
 231 1296 l 257
 231 725 l 257
 184 725 l 257
184 -26 m 257
 184 544 l 257
 231 544 l 257
 231 -26 l 257
 184 -26 l 257
EndSplineSet
EndChar

StartChar: bullet
Encoding: 8226 8226 178
Width: 768
VWidth: 0
Flags: HW
PickledData: "(dp1
S'org.robofab.postScriptHintData'
p2
(dp3
sS'com.fontlab.hintData'
p4
(dp5
S'vhints'
p6
((dp7
S'position'
p8
I128
sS'width'
p9
I513
stp10
sS'hhints'
p11
((dp12
g8
I472
sg9
I493
stp13
ssS'com.typemytype.robofont.layerData'
p14
(dp15
S'b'
(dp16
S'name'
p17
S'bullet'
p18
sS'lib'
p19
(dp20
sS'unicodes'
p21
(tsg9
I768
sS'contours'
p22
(tsS'components'
p23
(tsS'anchors'
p24
(tsss."
HStem: 472 493<312 455.5>
VStem: 128 513<651.5 788>
LayerCount: 2
Fore
SplineSet
384 472 m 256
 240 472 128 584 128 719 c 256
 128 857 240 965 384 965 c 256
 527 965 641 858 641 719 c 256
 641 582 527 472 384 472 c 256
EndSplineSet
EndChar

StartChar: c
Encoding: 99 99 179
Width: 956
VWidth: 0
Flags: HW
PickledData: "(dp1
S'org.robofab.postScriptHintData'
p2
(dp3
sS'com.fontlab.hintData'
p4
(dp5
S'vhints'
p6
((dp7
S'position'
p8
I63
sS'width'
p9
I42
s(dp10
g8
I759
sg9
I44
stp11
sS'hhints'
p12
((dp13
g8
I-22
sg9
I34
s(dp14
g8
I792
sg9
I34
stp15
ssS'com.typemytype.robofont.layerData'
p16
(dp17
S'b'
(dp18
S'name'
p19
S'c'
sS'lib'
p20
(dp21
sS'unicodes'
p22
(tsg9
I956
sS'contours'
p23
((dp24
S'points'
p25
((dp26
S'y'
S'-14'
p27
sS'x'
I633
sS'smooth'
p28
I0
s(dp29
S'y'
I33
sS'x'
I758
sg28
I0
s(dp30
S'segmentType'
p31
S'curve'
p32
sS'x'
I868
sg28
I0
sS'y'
I142
s(dp33
g31
S'line'
p34
sS'x'
I845
sg28
I0
sS'y'
I213
s(dp35
S'y'
I105
sS'x'
I763
sg28
I0
s(dp36
S'y'
I51
sS'x'
I637
sg28
I0
s(dp37
g31
S'curve'
p38
sS'x'
I515
sg28
I1
sS'y'
I51
s(dp39
S'y'
I51
sS'x'
I316
sg28
I0
s(dp40
S'y'
I193
sS'x'
I169
sg28
I0
s(dp41
g31
S'curve'
p42
sS'x'
I169
sg28
I1
sS'y'
I406
s(dp43
S'y'
I630
sS'x'
I169
sg28
I0
s(dp44
S'y'
I755
sS'x'
I336
sg28
I0
s(dp45
g31
S'curve'
p46
sS'x'
I515
sg28
I1
sS'y'
I755
s(dp47
S'y'
I755
sS'x'
I705
sg28
I0
s(dp48
S'y'
I657
sS'x'
I768
sg28
I0
s(dp49
g31
S'curve'
p50
sS'x'
I776
sg28
I0
sS'y'
I570
s(dp51
g31
S'line'
p52
sS'x'
I840
sg28
I0
sS'y'
I570
s(dp53
g31
S'line'
p54
sS'x'
I840
sg28
I0
sS'y'
I825
s(dp55
g31
S'line'
p56
sS'x'
I767
sg28
I0
sS'y'
I825
s(dp57
g31
S'line'
p58
sS'x'
I767
sg28
I0
sS'y'
I714
s(dp59
S'y'
I764
sS'x'
I736
sg28
I0
s(dp60
S'y'
I819
sS'x'
I645
sg28
I0
s(dp61
g31
S'curve'
p62
sS'x'
I522
sg28
I1
sS'y'
I819
s(dp63
S'y'
I819
sS'x'
F268.96800000000002
sg28
I0
s(dp64
S'y'
I650
sS'x'
I90
sg28
I0
s(dp65
g31
S'curve'
p66
sS'x'
I90
sg28
I1
sS'y'
I406
s(dp67
S'y'
I145
sS'x'
I90
sg28
I0
s(dp68
S'y'
S'-14'
p69
sS'x'
I286
sg28
I0
s(dp70
g31
S'curve'
p71
sS'x'
I515
sg28
I1
sS'y'
S'-14'
p72
stp73
stp74
sS'components'
p75
(tsS'anchors'
p76
(tsss."
HStem: -22 34 792 34<376 545.5 363 559.5>
VStem: 63 42<288 517 288 528.5> 759 44<578 804>
LayerCount: 2
Fore
SplineSet
475 -22 m 256
 234 -22 63 155 63 405 c 256
 63 652 239 826 487 826 c 256
 604 826 716 771 757 694 c 257
 759 804 l 257
 803 804 l 257
 803 578 l 257
 765 578 l 257
 746 703 631 792 488 792 c 256
 264 792 105 631 105 403 c 256
 105 173 260 10 479 12 c 256
 616 13 708 53 809 154 c 257
 808 114 l 257
 715 19 615 -22 475 -22 c 256
EndSplineSet
EndChar

StartChar: caron
Encoding: 711 711 181
Width: 351
VWidth: 0
Flags: HW
PickledData: "(dp1
S'org.robofab.postScriptHintData'
p2
(dp3
sS'com.typemytype.robofont.layerData'
p4
(dp5
S'b'
(dp6
S'name'
p7
S'caron'
p8
sS'lib'
p9
(dp10
sS'unicodes'
p11
(tsS'width'
p12
I351
sS'contours'
p13
(tsS'components'
p14
(tsS'anchors'
p15
(tsss."
LayerCount: 2
Fore
SplineSet
159 930 m 257
 -17 1236 l 257
 21 1236 l 257
 171 969 l 257
 319 1236 l 257
 355 1236 l 257
 182 930 l 257
 159 930 l 257
EndSplineSet
EndChar

StartChar: caron.alt
Encoding: 65536 -1 182
Width: 600
VWidth: 0
Flags: HW
PickledData: "(dp1
S'org.robofab.postScriptHintData'
p2
(dp3
sS'com.fontlab.hintData'
p4
(dp5
S'vhints'
p6
((dp7
S'position'
p8
I391
sS'width'
p9
I34
stp10
sS'hhints'
p11
((dp12
g8
I914
sg9
I19
stp13
ss."
HStem: 914 19<328 328>
VStem: 391 34<1076 1091>
AnchorPoint: "caron.alt" 198 804 mark 0
LayerCount: 2
Fore
SplineSet
328 914 m 257
 328 933 l 257
 394 936 391 1006 391 1091 c 257
 343 1091 l 257
 343 1174 l 257
 425 1174 l 257
 425 1076 l 258
 425 994 419 913 328 914 c 257
EndSplineSet
EndChar

StartChar: cedilla
Encoding: 184 184 187
Width: 600
VWidth: 0
Flags: HW
PickledData: "(dp1
S'org.robofab.postScriptHintData'
p2
(dp3
sS'com.fontlab.hintData'
p4
(dp5
S'vhints'
p6
((dp7
S'position'
p8
I333
sS'width'
p9
I52
stp10
sS'hhints'
p11
((dp12
g8
I-279
sg9
I36
s(dp13
g8
I-144
sg9
I36
stp14
ss."
HStem: -279 36<262 281.5 247 307> -144 36<212 306.5>
VStem: 333 52<-208.5 -179>
LayerCount: 2
Fore
SplineSet
279 -279 m 256
 245 -279 210 -271 181 -256 c 257
 181 -230 l 257
 210 -239 236 -243 258 -243 c 256
 305 -243 333 -225 333 -192 c 256
 333 -166 305 -144 212 -144 c 257
 270 6 l 257
 298 6 l 257
 259 -108 l 257
 354 -108 385 -150 385 -197 c 256
 385 -255 335 -279 279 -279 c 256
EndSplineSet
EndChar

StartChar: cent
Encoding: 162 162 188
Width: 909
VWidth: 0
Flags: HW
PickledData: "(dp1
S'org.robofab.postScriptHintData'
p2
(dp3
sS'com.fontlab.hintData'
p4
(dp5
S'vhints'
p6
((dp7
S'position'
p8
I63
sS'width'
p9
I42
s(dp10
g8
I759
sg9
I44
stp11
sS'hhints'
p12
((dp13
g8
I-22
sg9
I34
s(dp14
g8
I792
sg9
I34
stp15
ssS'com.typemytype.robofont.layerData'
p16
(dp17
S'b'
(dp18
S'name'
p19
S'cent'
p20
sS'lib'
p21
(dp22
sS'unicodes'
p23
(tsg9
I909
sS'contours'
p24
(tsS'components'
p25
(tsS'anchors'
p26
(tsss."
HStem: -22 34 792 34
VStem: 63 42 759 44
LayerCount: 2
Fore
SplineSet
323 -200 m 257
 296 -195 l 257
 610 1004 l 257
 637 1000 l 257
 323 -200 l 257
EndSplineSet
Refer: 179 99 N 1 0 0 1 0 0 2
EndChar

StartChar: circumflex
Encoding: 710 710 189
Width: 347
VWidth: 0
Flags: HW
PickledData: "(dp1
S'org.robofab.postScriptHintData'
p2
(dp3
sS'com.typemytype.robofont.layerData'
p4
(dp5
S'b'
(dp6
S'name'
p7
S'circumflex'
p8
sS'lib'
p9
(dp10
sS'unicodes'
p11
(tsS'width'
p12
I347
sS'contours'
p13
(tsS'components'
p14
(tsS'anchors'
p15
(tsss."
LayerCount: 2
Fore
SplineSet
21 930 m 257
 -17 930 l 257
 159 1236 l 257
 182 1236 l 257
 355 930 l 257
 319 930 l 257
 171 1197 l 257
 21 930 l 257
EndSplineSet
EndChar

StartChar: colon
Encoding: 58 58 190
Width: 453
VWidth: 0
Flags: HW
PickledData: "(dp1
S'org.robofab.postScriptHintData'
p2
(dp3
sS'com.fontlab.hintData'
p4
(dp5
S'vhints'
p6
((dp7
S'position'
p8
I194
sS'width'
p9
I73
stp10
ssS'com.typemytype.robofont.layerData'
p11
(dp12
S'b'
(dp13
S'name'
p14
S'colon'
p15
sS'lib'
p16
(dp17
sS'unicodes'
p18
(tsg9
I453
sS'contours'
p19
(tsS'components'
p20
(tsS'anchors'
p21
(tsss."
VStem: 194 73<272 355 272 355 729 813>
LayerCount: 2
Fore
SplineSet
194 729 m 257
 194 813 l 257
 267 813 l 257
 267 729 l 257
 194 729 l 257
194 272 m 257
 194 355 l 257
 267 355 l 257
 267 272 l 257
 194 272 l 257
EndSplineSet
EndChar

StartChar: comma
Encoding: 44 44 191
Width: 374
VWidth: 0
Flags: HW
PickledData: "(dp1
S'org.robofab.postScriptHintData'
p2
(dp3
sS'com.fontlab.hintData'
p4
(dp5
S'vhints'
p6
((dp7
S'position'
p8
I230
sS'width'
p9
I33
stp10
sS'hhints'
p11
((dp12
g8
I-157
sg9
I18
stp13
ssS'com.typemytype.robofont.layerData'
p14
(dp15
S'b'
(dp16
S'name'
p17
S'comma'
p18
sS'lib'
p19
(dp20
sS'unicodes'
p21
(tsg9
I374
sS'contours'
p22
(tsS'components'
p23
(tsS'anchors'
p24
(tsss."
HStem: -157 18<171 212>
VStem: 230 33<-45.5 -6 -45.5 0>
LayerCount: 2
Fore
SplineSet
171 -157 m 257
 171 -139 l 257
 221 -133 230 -112 230 0 c 257
 181 0 l 257
 181 97 l 257
 264 96 l 257
 263 -6 l 258
 263 -85 253 -157 171 -157 c 257
EndSplineSet
EndChar

StartChar: commaaccent
Encoding: 806 806 192
Width: 418
VWidth: 0
Flags: HW
PickledData: "(dp1
S'org.robofab.postScriptHintData'
p2
(dp3
sS'com.fontlab.hintData'
p4
(dp5
S'vhints'
p6
((dp7
S'position'
p8
I251
sS'width'
p9
I34
stp10
sS'hhints'
p11
((dp12
g8
I-392
sg9
I19
stp13
ssS'com.typemytype.robofont.layerData'
p14
(dp15
S'b'
(dp16
S'name'
p17
S'uni0326'
p18
sS'lib'
p19
(dp20
sS'unicodes'
p21
(tsg9
I418
sS'contours'
p22
(tsS'components'
p23
(tsS'anchors'
p24
(tsss."
HStem: -392 19<188 188>
VStem: 251 34<-230 -215>
LayerCount: 2
Fore
SplineSet
188 -392 m 257
 188 -373 l 257
 254 -370 251 -300 251 -215 c 257
 203 -215 l 257
 203 -132 l 257
 285 -132 l 257
 285 -230 l 258
 285 -312 279 -393 188 -392 c 257
EndSplineSet
EndChar

StartChar: commaturnedabovecomb
Encoding: 786 786 193
Width: 600
VWidth: 0
Flags: HW
PickledData: "(dp1
S'org.robofab.postScriptHintData'
p2
(dp3
sS'com.fontlab.hintData'
p4
(dp5
S'vhints'
p6
((dp7
S'position'
p8
I248
sS'width'
p9
I33
stp10
sS'hhints'
p11
((dp12
g8
I1168
sg9
I18
stp13
ss."
HStem: 1168 18<299 340>
VStem: 248 33<1035 1074.5>
LayerCount: 2
Fore
SplineSet
330 932 m 257
 247 933 l 257
 248 1035 l 258
 248 1114 258 1186 340 1186 c 257
 340 1168 l 257
 290 1162 281 1141 281 1029 c 257
 330 1029 l 257
 330 932 l 257
EndSplineSet
EndChar

StartChar: copyright
Encoding: 169 169 194
Width: 1512
VWidth: 0
Flags: HW
PickledData: "(dp1
S'org.robofab.postScriptHintData'
p2
(dp3
sS'com.fontlab.hintData'
p4
(dp5
S'vhints'
p6
((dp7
S'position'
p8
I115
sS'width'
p9
I44
s(dp10
g8
I345
sg9
I42
s(dp11
g8
I1047
sg9
I38
s(dp12
g8
I1353
sg9
I44
stp13
sS'hhints'
p14
((dp15
g8
I-48
sg9
I34
s(dp16
g8
I154
sg9
I34
s(dp17
g8
I968
sg9
I34
s(dp18
g8
I1167
sg9
I34
stp19
ssS'com.typemytype.robofont.layerData'
p20
(dp21
S'b'
(dp22
S'name'
p23
S'copyright'
p24
sS'lib'
p25
(dp26
sS'unicodes'
p27
(tsg9
I1512
sS'contours'
p28
(tsS'components'
p29
(tsS'anchors'
p30
(tsss."
HStem: -48 34<589.5 922.5 589.5 934.5> 154 34 968 34<685.5 829.5 677 853.5> 1167 34<589.5 922.5>
VStem: 115 44<410 743.5 410 753> 345 42<461.5 718.5 461.5 732> 1047 38<754 980> 1353 44<411.5 743.5>
LayerCount: 2
Fore
SplineSet
756 -14 m 256
 1089 -14 1353 246 1353 577 c 256
 1353 910 1089 1167 756 1167 c 256
 423 1167 159 910 159 577 c 256
 159 243 423 -14 756 -14 c 256
756 -48 m 256
 399 -48 115 224 115 577 c 256
 115 929 399 1201 756 1201 c 256
 1113 1201 1397 929 1397 577 c 256
 1397 224 1113 -48 756 -48 c 256
757 154 m 256
 536 154 345 322 345 581 c 256
 345 883 585 1002 769 1002 c 256
 890 1002 995 966 1048 870 c 257
 1050 980 l 257
 1085 980 l 257
 1085 754 l 257
 1047 754 l 257
 1036 888 937 968 770 968 c 256
 601 968 387 858 387 579 c 256
 387 344 561 187 761 188 c 256
 893 189 995 237 1091 333 c 257
 1090 290 l 257
 1002 200 882 154 757 154 c 256
EndSplineSet
EndChar

StartChar: currency
Encoding: 164 164 195
Width: 1124
VWidth: 0
Flags: HW
PickledData: "(dp1
S'org.robofab.postScriptHintData'
p2
(dp3
sS'com.fontlab.hintData'
p4
(dp5
S'vhints'
p6
((dp7
S'position'
p8
I156
sS'width'
p9
I45
s(dp10
g8
I921
sg9
I37
stp11
sS'hhints'
p12
((dp13
g8
I640
sg9
I47
s(dp14
g8
I1420
sg9
I46
stp15
ssS'com.typemytype.robofont.layerData'
p16
(dp17
S'b'
(dp18
S'name'
p19
S'currency'
p20
sS'lib'
p21
(dp22
sS'unicodes'
p23
(tsg9
I1124
sS'contours'
p24
(tsS'components'
p25
(tsS'anchors'
p26
(tsss."
HStem: 640 47<520 603> 1420 46<515.5 597 515.5 643>
VStem: 156 45<993.5 1098.5> 921 37<1006 1104.5 1006 1181>
LayerCount: 2
Fore
SplineSet
557 687 m 256
 730 687 921 800 921 1054 c 256
 921 1308 728 1420 558 1420 c 256
 389 1420 201 1302 201 1054 c 256
 201 805 387 687 557 687 c 256
925 605 m 257
 825 718 l 257
 733 666 646 640 560 640 c 256
 480 640 396 664 307 716 c 257
 206 606 l 257
 154 648 l 257
 264 756 l 257
 192 835 156 941 156 1046 c 256
 156 1151 192 1263 265 1350 c 257
 154 1459 l 257
 206 1500 l 257
 308 1390 l 257
 394 1441 476 1466 555 1466 c 256
 639 1466 727 1439 824 1388 c 257
 925 1501 l 257
 970 1459 l 257
 856 1348 l 257
 924 1256 958 1154 958 1055 c 256
 958 957 924 855 857 758 c 257
 970 648 l 257
 925 605 l 257
EndSplineSet
EndChar

StartChar: d
Encoding: 100 100 196
Width: 1011
VWidth: 0
Flags: HW
PickledData: "(dp1
S'org.robofab.postScriptHintData'
p2
(dp3
sS'com.fontlab.hintData'
p4
(dp5
S'vhints'
p6
((dp7
S'position'
p8
I63
sS'width'
p9
I42
stp10
sS'hhints'
p11
((dp12
g8
I-22
sg9
I34
s(dp13
g8
I792
sg9
I34
stp14
ssS'com.typemytype.robofont.layerData'
p15
(dp16
S'b'
(dp17
S'name'
p18
S'd'
sS'lib'
p19
(dp20
sS'unicodes'
p21
(tsg9
I1011
sS'contours'
p22
(tsS'components'
p23
(tsS'anchors'
p24
(tsss."
HStem: -22 34<377.5 540.873 377.5 542.075> 792 34<359 519.777>
VStem: 63 42<397 397>
AnchorPoint: "caron.alt" 816 804 basechar 0
LayerCount: 2
Fore
SplineSet
794 0 m 257
 794 93.7414 l 257
 713.063 24.7514 594.15 -22 490 -22 c 256
 243 -22 66 152 63 397 c 256
 60 648 226 826 464 826 c 256
 577.087 826 706.809 778.591 794 709.564 c 257
 794 1140 l 257
 662 1140 l 257
 662 1174 l 257
 838 1174 l 257
 838 34 l 257
 977 34 l 257
 977 0 l 257
 794 0 l 257
794 131.833 m 257
 794 676 l 257
 704.668 745.179 575.555 792 464 792 c 256
 254 792 105 628 105 397 c 256
 105 172 265 12 490 12 c 256
 591.746 12 710.822 60.6911 794 131.833 c 257
EndSplineSet
EndChar

StartChar: dagger
Encoding: 8224 8224 197
Width: 364
VWidth: 0
Flags: HW
PickledData: "(dp1
S'org.robofab.postScriptHintData'
p2
(dp3
sS'com.fontlab.hintData'
p4
(dp5
S'vhints'
p6
((dp7
S'position'
p8
I172
sS'width'
p9
I22
stp10
ssS'com.typemytype.robofont.layerData'
p11
(dp12
S'b'
(dp13
S'name'
p14
S'dagger'
p15
sS'lib'
p16
(dp17
sS'unicodes'
p18
(tsg9
I364
sS'contours'
p19
(tsS'components'
p20
(tsS'anchors'
p21
(tsss."
VStem: 172 22<94 180.5 94 182.5>
LayerCount: 2
Fore
SplineSet
172 94 m 257
 172 271 146 383 166 517 c 257
 166 649 144 690 172 840 c 257
 -12 828 l 257
 -12 869 l 257
 172 865 l 257
 148 1072 l 257
 217 1072 l 257
 194 865 l 257
 374 869 l 257
 374 828 l 257
 194 840 l 257
 222 693 199 652 199 521 c 257
 220 384 194 267 194 94 c 257
 172 94 l 257
EndSplineSet
EndChar

StartChar: daggerdbl
Encoding: 8225 8225 198
Width: 486
VWidth: 0
Flags: HW
PickledData: "(dp1
S'org.robofab.postScriptHintData'
p2
(dp3
sS'com.fontlab.hintData'
p4
(dp5
S'vhints'
p6
((dp7
S'position'
p8
I214
sS'width'
p9
I61
stp10
ssS'com.typemytype.robofont.layerData'
p11
(dp12
S'b'
(dp13
S'name'
p14
S'daggerdbl'
p15
sS'lib'
p16
(dp17
sS'unicodes'
p18
(tsg9
I486
sS'contours'
p19
(tsS'components'
p20
(tsS'anchors'
p21
(tsss."
VStem: 214 61<537.5 676.5 531 682.5>
LayerCount: 2
Fore
SplineSet
202 17 m 257
 229 308 l 257
 13 295 l 257
 13 351 l 257
 233 331 l 257
 221 392 214 465 214 610 c 256
 214 755 221 829 233 891 c 257
 13 871 l 257
 13 927 l 257
 229 914 l 257
 202 1205 l 257
 286 1205 l 257
 260 914 l 257
 472 927 l 257
 472 871 l 257
 256 891 l 257
 266 828 275 750 275 603 c 256
 275 459 266 391 256 331 c 257
 472 351 l 257
 472 295 l 257
 260 308 l 257
 286 17 l 257
 202 17 l 257
EndSplineSet
EndChar

StartChar: dblgravecmb
Encoding: 783 783 199
Width: 643
VWidth: 0
Flags: HW
PickledData: "(dp1
S'org.robofab.postScriptHintData'
p2
(dp3
sS'com.fontlab.hintData'
p4
(dp5
S'hhints'
p6
((dp7
S'position'
p8
I991
sS'width'
p9
I295
stp10
ssS'com.typemytype.robofont.layerData'
p11
(dp12
S'b'
(dp13
S'name'
p14
S'uni030F'
p15
sS'lib'
p16
(dp17
sS'unicodes'
p18
(tsg9
I643
sS'contours'
p19
(tsS'components'
p20
(tsS'anchors'
p21
(tsss."
HStem: 991 295<78 227 78 227 78 407 78 407>
LayerCount: 2
Fore
SplineSet
386 991 m 257
 258 1286 l 257
 300 1286 l 257
 407 991 l 257
 386 991 l 257
206 991 m 257
 78 1286 l 257
 120 1286 l 257
 227 991 l 257
 206 991 l 257
EndSplineSet
EndChar

StartChar: degree
Encoding: 176 176 203
Width: 922
VWidth: 0
Flags: HW
PickledData: "(dp1
S'org.robofab.postScriptHintData'
p2
(dp3
sS'com.fontlab.hintData'
p4
(dp5
S'vhints'
p6
((dp7
S'position'
p8
I212
sS'width'
p9
I53
s(dp10
g8
I658
sg9
I53
stp11
sS'hhints'
p12
((dp13
g8
I739
sg9
I44
s(dp14
g8
I1147
sg9
I45
stp15
ssS'com.typemytype.robofont.layerData'
p16
(dp17
S'b'
(dp18
S'name'
p19
S'degree'
p20
sS'lib'
p21
(dp22
sS'unicodes'
p23
(tsg9
I922
sS'contours'
p24
(tsS'components'
p25
(tsS'anchors'
p26
(tsss."
HStem: 739 44<405.5 518 405.5 532.5> 1147 45<405 517.5>
VStem: 212 53<912.5 965 912.5 1030> 658 53<913.5 1018>
LayerCount: 2
Fore
SplineSet
461 739 m 256
 319 739 212 836 212 965 c 256
 212 1095 319 1192 461 1192 c 256
 604 1192 711 1095 711 965 c 256
 711 836 604 739 461 739 c 256
462 783 m 256
 574 783 658 861 658 966 c 256
 658 1070 574 1147 461 1147 c 256
 349 1147 266 1069 265 965 c 256
 265 860 349 783 462 783 c 256
EndSplineSet
EndChar

StartChar: dieresis
Encoding: 168 168 204
Width: 295
VWidth: 0
Flags: HW
PickledData: "(dp1
S'org.robofab.postScriptHintData'
p2
(dp3
sS'com.fontlab.hintData'
p4
(dp5
S'vhints'
p6
((dp7
S'position'
p8
I-48
sS'width'
p9
I75
s(dp10
g8
I263
sg9
I75
stp11
sS'hhints'
p12
((dp13
g8
I947
sg9
I72
stp14
ssS'com.typemytype.robofont.layerData'
p15
(dp16
S'b'
(dp17
S'name'
p18
S'dieresis'
p19
sS'lib'
p20
(dp21
sS'unicodes'
p22
(tsg9
I295
sS'contours'
p23
(tsS'components'
p24
(tsS'anchors'
p25
(tsss."
HStem: 947 72<-22.5 1>
VStem: -48 75<971.5 994.5> 263 75<982 993.5 982 993.5>
LayerCount: 2
Fore
SplineSet
299 946 m 256
 276 946 263 959 263 982 c 256
 263 1005 276 1019 299 1019 c 256
 324 1019 338 1005 338 982 c 256
 337 959 323 946 299 946 c 256
-11 947 m 256
 -34 947 -48 960 -48 983 c 256
 -48 1006 -34 1019 -11 1019 c 256
 13 1019 27 1006 27 983 c 256
 27 960 13 947 -11 947 c 256
EndSplineSet
EndChar

StartChar: divide
Encoding: 247 247 205
Width: 712
VWidth: 0
Flags: HW
PickledData: "(dp1
S'org.robofab.postScriptHintData'
p2
(dp3
sS'com.fontlab.hintData'
p4
(dp5
S'vhints'
p6
((dp7
S'position'
p8
I128
sS'width'
p9
I456
stp10
ssS'com.typemytype.robofont.layerData'
p11
(dp12
S'b'
(dp13
S'name'
p14
S'divide'
p15
sS'lib'
p16
(dp17
sS'unicodes'
p18
(tsg9
I712
sS'contours'
p19
(tsS'components'
p20
(tsS'anchors'
p21
(tsss."
VStem: 128 456<492 528 492 528>
LayerCount: 2
Fore
SplineSet
327 630 m 257
 327 737 l 257
 388 737 l 257
 388 630 l 257
 327 630 l 257
128 492 m 257
 128 528 l 257
 584 528 l 257
 584 492 l 257
 128 492 l 257
327 270 m 257
 327 376 l 257
 388 376 l 257
 388 270 l 257
 327 270 l 257
EndSplineSet
EndChar

StartChar: dollar
Encoding: 36 36 206
Width: 1143
VWidth: 0
Flags: HW
PickledData: "(dp1
S'org.robofab.postScriptHintData'
p2
(dp3
sS'com.fontlab.hintData'
p4
(dp5
S'vhints'
p6
((dp7
S'position'
p8
I181
sS'width'
p9
I44
s(dp10
g8
I917
sg9
I44
s(dp11
g8
I988
sg9
I42
stp12
sS'hhints'
p13
((dp14
g8
I-22
sg9
I36
s(dp15
g8
I1138
sg9
I36
stp16
ss."
HStem: -22 36 1138 36
VStem: 181 44 917 44 988 42
LayerCount: 2
Fore
SplineSet
586 -181 m 257
 586 1325 l 257
 619 1325 l 257
 619 -181 l 257
 586 -181 l 257
EndSplineSet
Refer: 104 83 N 1 0 0 1 0 0 2
EndChar

StartChar: dotaccent
Encoding: 729 729 208
Width: 496
VWidth: 0
Flags: HW
PickledData: "(dp1
S'org.robofab.postScriptHintData'
p2
(dp3
sS'com.fontlab.hintData'
p4
(dp5
S'vhints'
p6
((dp7
S'position'
p8
I207
sS'width'
p9
I91
stp10
sS'hhints'
p11
((dp12
g8
I1019
sg9
I83
stp13
ss."
HStem: 1019 83<238 265>
VStem: 207 91<1048.5 1073>
LayerCount: 2
Fore
SplineSet
251 1019 m 256
 225 1019 207 1036 207 1061 c 256
 207 1085 225 1102 251 1102 c 256
 279 1102 298 1085 298 1061 c 256
 298 1036 279 1019 251 1019 c 256
EndSplineSet
EndChar

StartChar: dotlessi
Encoding: 305 305 209
Width: 537
VWidth: 0
Flags: HW
PickledData: "(dp1
S'org.robofab.postScriptHintData'
p2
(dp3
sS'com.fontlab.hintData'
p4
(dp5
S'vhints'
p6
((dp7
S'position'
p8
I96
sS'width'
p9
I401
stp10
ssS'com.typemytype.robofont.layerData'
p11
(dp12
S'b'
(dp13
S'name'
p14
S'dotlessi'
p15
sS'lib'
p16
(dp17
sS'unicodes'
p18
(tsg9
I537
sS'contours'
p19
(tsS'components'
p20
(tsS'anchors'
p21
(tsss."
VStem: 96 401<0 34 0 34>
LayerCount: 2
Fore
SplineSet
96 0 m 257
 96 34 l 257
 277 34 l 257
 277 770 l 257
 99 770 l 257
 99 804 l 257
 321 804 l 257
 321 646 l 257
 321 34 l 257
 497 34 l 257
 497 0 l 257
 96 0 l 257
EndSplineSet
EndChar

StartChar: dotlessj
Encoding: 567 567 210
Width: 398
VWidth: 0
Flags: W
PickledData: "(dp1
S'org.robofab.postScriptHintData'
p2
(dp3
sS'com.typemytype.robofont.layerData'
p4
(dp5
S'b'
(dp6
S'name'
p7
S'uni0237'
p8
sS'lib'
p9
(dp10
sS'unicodes'
p11
(tsS'width'
p12
I398
sS'contours'
p13
(tsS'components'
p14
(tsS'anchors'
p15
(tsss."
LayerCount: 2
Fore
SplineSet
23 -240 m 257
 95 -240 l 258
 293 -240 268 -101 268 -34 c 258
 268 805 l 257
 64 805 l 257
 64 774 l 257
 221 774 l 257
 221 -39 l 258
 221 -152 228 -208 85 -208 c 258
 23 -208 l 257
 23 -240 l 257
EndSplineSet
EndChar

StartChar: e
Encoding: 101 101 213
Width: 975
VWidth: 0
Flags: HW
PickledData: "(dp1
S'org.robofab.postScriptHintData'
p2
(dp3
sS'com.fontlab.hintData'
p4
(dp5
S'vhints'
p6
((dp7
S'position'
p8
I63
sS'width'
p9
I44
stp10
sS'hhints'
p11
((dp12
g8
I-22
sg9
I34
s(dp13
g8
I792
sg9
I34
stp14
ssS'com.typemytype.robofont.layerData'
p15
(dp16
S'b'
(dp17
S'name'
p18
S'e'
sS'lib'
p19
(dp20
sS'unicodes'
p21
(tsg9
I975
sS'contours'
p22
((dp23
S'points'
p24
((dp25
S'segmentType'
p26
S'line'
p27
sS'x'
I171
sS'smooth'
p28
I0
sS'y'
I442
s(dp29
S'y'
I592
sS'x'
I182
sg28
I0
s(dp30
S'y'
I755
sS'x'
I296
sg28
I0
s(dp31
g26
S'curve'
p32
sS'x'
I507
sg28
I1
sS'y'
I755
s(dp33
S'y'
I755
sS'x'
I699
sg28
I0
s(dp34
S'y'
I616
sS'x'
I803
sg28
I0
s(dp35
g26
S'curve'
p36
sS'x'
I820
sg28
I0
sS'y'
I442
stp37
s(dp38
g24
((dp39
g26
S'line'
p40
sS'x'
I890
sg28
I0
sS'y'
I383
s(dp41
S'y'
I601
sS'x'
I889
sg28
I0
s(dp42
S'y'
I819
sS'x'
F778.76800000000003
sg28
I0
s(dp43
g26
S'curve'
p44
sS'x'
I502
sg28
I1
sS'y'
I819
s(dp45
S'y'
I819
sS'x'
I232
sg28
I0
s(dp46
S'y'
I618
sS'x'
I90
sg28
I0
s(dp47
g26
S'curve'
p48
sS'x'
I90
sg28
I1
sS'y'
I403
s(dp49
S'y'
I150
sS'x'
I90
sg28
I0
s(dp50
S'y'
S'-14'
p51
sS'x'
I284
sg28
I0
s(dp52
g26
S'curve'
p53
sS'x'
I511
sg28
I1
sS'y'
S'-14'
p54
s(dp55
S'y'
S'-14'
p56
sS'x'
I657
sg28
I0
s(dp57
S'y'
I34
sS'x'
I761
sg28
I0
s(dp58
g26
S'curve'
p59
sS'x'
I868
sg28
I0
sS'y'
I139
s(dp60
g26
S'line'
p61
sS'x'
I836
sg28
I0
sS'y'
I197
s(dp62
S'y'
I103
sS'x'
I747
sg28
I0
s(dp63
S'y'
I50
sS'x'
I652
sg28
I0
s(dp64
g26
S'curve'
p65
sS'x'
I515
sg28
I1
sS'y'
I50
s(dp66
S'y'
I50
sS'x'
I347
sg28
I0
s(dp67
S'y'
I162
sS'x'
I182
sg28
I0
s(dp68
g26
S'curve'
p69
sS'x'
I169
sg28
I0
sS'y'
I383
stp70
stp71
sS'components'
p72
(tsS'anchors'
p73
(tsss."
HStem: -22 34<395 544.5> 792 34<369.5 552>
VStem: 63 44<390 390 390 545>
LayerCount: 2
Fore
SplineSet
485 -22 m 256
 269 -22 63 133 63 403 c 256
 63 687 269 826 466 826 c 256
 642 826 852 718 860 390 c 257
 107 390 l 257
 118 140 305 12 485 12 c 256
 614 12 758 81 827 166 c 257
 840 129 l 257
 735 25 604 -22 485 -22 c 256
106 424 m 257
 820 424 l 257
 796 678 638 792 466 792 c 256
 273 792 113 649 106 424 c 257
EndSplineSet
EndChar

StartChar: eight
Encoding: 56 56 221
Width: 964
VWidth: 0
Flags: HW
PickledData: "(dp1
S'org.robofab.postScriptHintData'
p2
(dp3
sS'com.fontlab.hintData'
p4
(dp5
S'vhints'
p6
((dp7
S'position'
p8
I112
sS'width'
p9
I42
s(dp10
g8
I152
sg9
I42
s(dp11
g8
I772
sg9
I42
s(dp12
g8
I810
sg9
I42
stp13
sS'hhints'
p14
((dp15
g8
I-22
sg9
I36
s(dp16
g8
I597
sg9
I24
s(dp17
g8
I1138
sg9
I36
stp18
ssS'com.typemytype.robofont.layerData'
p19
(dp20
S'b'
(dp21
S'name'
p22
S'eight'
p23
sS'lib'
p24
(dp25
sS'unicodes'
p26
(tsg9
I964
sS'contours'
p27
(tsS'components'
p28
(tsS'anchors'
p29
(tsss."
HStem: -22 36<381.5 582.5 381.5 595.5> 597 24 1138 36<483 483>
VStem: 112 42<208 374.5> 152 42<818.5 964 805 975.5> 772 42<816 964> 810 42<208 375 197 383.5>
LayerCount: 2
Fore
SplineSet
576 621 m 257
 704 658 772 714 772 887 c 256
 772 1041 661 1138 483 1138 c 256
 305 1138 194 1041 194 887 c 256
 194 723 292 630 576 621 c 257
482 14 m 256
 683 14 810 122 810 294 c 256
 810 473 717 584 406 597 c 257
 232 571 154 473 154 294 c 256
 154 122 281 14 482 14 c 256
482 -22 m 256
 255 -22 112 100 112 294 c 256
 112 455 190 592 361 615 c 257
 210 662 152 750 152 887 c 256
 152 1064 280 1175 483 1174 c 256
 686 1175 814 1064 814 887 c 256
 814 745 746 625 595 603 c 257
 761 573 852 456 852 294 c 256
 852 100 709 -22 482 -22 c 256
EndSplineSet
EndChar

StartChar: emdash
Encoding: 8212 8212 224
Width: 849
VWidth: 0
Flags: HW
PickledData: "(dp1
S'org.robofab.postScriptHintData'
p2
(dp3
sS'com.fontlab.hintData'
p4
(dp5
S'hhints'
p6
((dp7
S'position'
p8
I454
sS'width'
p9
I37
stp10
ssS'com.typemytype.robofont.layerData'
p11
(dp12
S'b'
(dp13
S'name'
p14
S'emdash'
p15
sS'lib'
p16
(dp17
sS'unicodes'
p18
(tsg9
I849
sS'contours'
p19
(tsS'components'
p20
(tsS'anchors'
p21
(tsss."
HStem: 454 37<0 849 0 849>
LayerCount: 2
Fore
SplineSet
0 454 m 257
 0 491 l 257
 849 491 l 257
 849 454 l 257
 0 454 l 257
EndSplineSet
EndChar

StartChar: emptyset
Encoding: 8709 8709 225
Width: 1347
VWidth: 0
Flags: HW
PickledData: "(dp1
S'org.robofab.postScriptHintData'
p2
(dp3
sS'com.fontlab.hintData'
p4
(dp5
S'vhints'
p6
((dp7
S'position'
p8
I126
sS'width'
p9
I39
s(dp10
g8
I1182
sg9
I39
stp11
sS'hhints'
p12
((dp13
g8
I-22
sg9
I39
s(dp14
g8
I1034
sg9
I39
stp15
ss."
HStem: -22 39<615.5 813 615.5 824> 1034 39<533 734.5>
VStem: 126 39<449 665 449 676> 1182 39<385 597>
LayerCount: 2
Fore
SplineSet
673 17 m 256
 953 17 1182 245 1182 525 c 256
 1182 669 1121 800 1024 893 c 257
 367 120 l 257
 452 55 558 17 673 17 c 256
339 142 m 257
 997 917 l 257
 909 990 796 1034 673 1034 c 256
 393 1034 165 805 165 525 c 256
 165 373 233 236 339 142 c 257
230 -42 m 257
 204 -17 l 257
 314 112 l 257
 199 213 126 360 126 525 c 256
 126 827 371 1073 673 1073 c 256
 805 1073 927 1026 1022 947 c 257
 1145 1092 l 257
 1171 1067 l 257
 1049 923 l 257
 1155 823 1221 682 1221 525 c 256
 1221 223 975 -22 673 -22 c 256
 549 -22 434 20 342 90 c 257
 230 -42 l 257
EndSplineSet
EndChar

StartChar: endash
Encoding: 8211 8211 226
Width: 653
VWidth: 0
Flags: HW
PickledData: "(dp1
S'org.robofab.postScriptHintData'
p2
(dp3
sS'com.fontlab.hintData'
p4
(dp5
S'vhints'
p6
((dp7
S'position'
p8
I0
sS'width'
p9
I653
stp10
sS'hhints'
p11
((dp12
g8
I453
sg9
I37
stp13
ssS'com.typemytype.robofont.layerData'
p14
(dp15
S'b'
(dp16
S'name'
p17
S'endash'
p18
sS'lib'
p19
(dp20
sS'unicodes'
p21
(tsg9
I653
sS'contours'
p22
(tsS'components'
p23
(tsS'anchors'
p24
(tsss."
HStem: 453 37<0 653 0 653>
VStem: 0 653<453 490 453 490>
LayerCount: 2
Fore
SplineSet
0 453 m 257
 0 490 l 257
 653 490 l 257
 653 453 l 257
 0 453 l 257
EndSplineSet
EndChar

StartChar: eng
Encoding: 331 331 227
Width: 1010
VWidth: 0
Flags: HW
PickledData: "(dp1
S'org.robofab.postScriptHintData'
p2
(dp3
sS'com.fontlab.hintData'
p4
(dp5
S'vhints'
p6
((dp7
S'position'
p8
I34
sS'width'
p9
I401
s(dp10
g8
I806
sg9
I44
stp11
sS'hhints'
p12
((dp13
g8
I-374
sg9
I34
s(dp14
g8
I790
sg9
I36
stp15
ss."
HStem: -374 34<482 592.5 482 595.5> 790 36<565.959 664.5>
VStem: 34 401<0 34 0 34> 806 44<-125.5 582 -17 582 582 605>
LayerCount: 2
Fore
SplineSet
479 -374 m 257
 482 -340 l 257
 703 -340 806 -220 806 -31 c 258
 806 605 l 258
 806 719 727 790 602 790 c 256
 529.918 790 399.998 748.812 259 676.281 c 257
 259 34 l 257
 435 34 l 257
 435 0 l 257
 34 0 l 257
 34 34 l 257
 215 34 l 257
 215 770 l 257
 37 770 l 257
 37 804 l 257
 259 804 l 257
 259 711.074 l 257
 380.326 780.102 491.351 826 607 826 c 256
 756 826 850 732 850 582 c 258
 850 -17 l 258
 850 -261 712 -374 479 -374 c 257
EndSplineSet
EndChar

StartChar: equal
Encoding: 61 61 229
Width: 715
VWidth: 0
Flags: HW
PickledData: "(dp1
S'org.robofab.postScriptHintData'
p2
(dp3
sS'com.fontlab.hintData'
p4
(dp5
S'vhints'
p6
((dp7
S'position'
p8
I178
sS'width'
p9
I361
stp10
ssS'com.typemytype.robofont.layerData'
p11
(dp12
S'b'
(dp13
S'name'
p14
S'equal'
p15
sS'lib'
p16
(dp17
sS'unicodes'
p18
(tsg9
I715
sS'contours'
p19
(tsS'components'
p20
(tsS'anchors'
p21
(tsss."
VStem: 178 361<311 351 311 351 311 539 539 577>
LayerCount: 2
Fore
SplineSet
178 539 m 257
 178 577 l 257
 539 577 l 257
 539 539 l 257
 178 539 l 257
178 311 m 257
 178 351 l 257
 539 351 l 257
 539 311 l 257
 178 311 l 257
EndSplineSet
EndChar

StartChar: estimated
Encoding: 8494 8494 230
Width: 600
VWidth: 0
Flags: HW
PickledData: "(dp1
S'org.robofab.postScriptHintData'
p2
(dp3
sS'com.fontlab.hintData'
p4
(dp5
S'vhints'
p6
((dp7
S'position'
p8
I106
sS'width'
p9
I81
stp10
sS'hhints'
p11
((dp12
g8
I-14
sg9
I44
s(dp13
g8
I785
sg9
I34
stp14
ss."
HStem: -14 44<427.5 592.5 427.5 595> 785 34<409.5 586>
VStem: 106 81<393 393 393 430 393 522>
LayerCount: 2
Fore
SplineSet
187 430 m 257
 820 430 l 257
 808 633 671 785 501 785 c 256
 318 785 195 634 187 430 c 257
521 -14 m 256
 279 -14 106 165 106 403 c 256
 106 641 264 819 497 819 c 256
 704 819 869 642 869 393 c 257
 187 393 l 257
 194 184 331 30 524 30 c 256
 661 30 772 90 840 171 c 257
 868 139 l 257
 783 52 669 -14 521 -14 c 256
EndSplineSet
EndChar

StartChar: eth
Encoding: 240 240 231
Width: 886
VWidth: 0
Flags: HW
PickledData: "(dp1
S'org.robofab.postScriptHintData'
p2
(dp3
sS'com.fontlab.hintData'
p4
(dp5
S'vhints'
p6
((dp7
S'position'
p8
I38
sS'width'
p9
I47
s(dp10
g8
I773
sg9
I44
stp11
sS'hhints'
p12
((dp13
g8
I-23
sg9
I41
s(dp14
g8
I770
sg9
I38
stp15
ssS'com.typemytype.robofont.layerData'
p16
(dp17
S'b'
(dp18
S'name'
p19
S'eth'
p20
sS'lib'
p21
(dp22
sS'unicodes'
p23
(tsg9
I886
sS'contours'
p24
(tsS'components'
p25
(tsS'anchors'
p26
(tsss."
HStem: -23 41<310 534> 770 38<347.5 461.5 315.5 509.5>
VStem: 38 47<323.5 533> 773 44<313 517.669 257.5 534>
LayerCount: 2
Fore
SplineSet
433 18 m 256
 678 18 773 220 773 406 c 256
 773 662 591 770 428 770 c 256
 267 770 85 660 85 413 c 256
 85 225 187 18 433 18 c 256
433 -23 m 256
 159 -23 38 210 38 437 c 256
 38 629 207 808 424 808 c 256
 499 808 608 768 687 695 c 257
 626.705 824.004 537.354 936.404 440.594 1035.47 c 257
 166 918 l 257
 144 955 l 257
 408.946 1067.17 l 257
 307.771 1166.39 201.208 1251.81 113 1327 c 257
 141 1353 l 257
 220.971 1282.16 332.678 1189.85 442.28 1081.28 c 257
 692 1187 l 257
 713 1152 l 257
 473.696 1049.63 l 257
 652.563 866.246 817 640.338 817 395 c 256
 817 120 635 -23 433 -23 c 256
EndSplineSet
EndChar

StartChar: exclam
Encoding: 33 33 232
Width: 150
VWidth: 0
Flags: HW
PickledData: "(dp1
S'org.robofab.postScriptHintData'
p2
(dp3
sS'com.fontlab.hintData'
p4
(dp5
S'vhints'
p6
((dp7
S'position'
p8
I32
sS'width'
p9
I91
s(dp10
g8
I52
sg9
I47
s(dp11
g8
I69
sg9
I14
stp12
sS'hhints'
p13
((dp14
g8
I-15
sg9
I83
stp15
ssS'com.typemytype.robofont.layerData'
p16
(dp17
S'b'
(dp18
S'name'
p19
S'exclam'
p20
sS'lib'
p21
(dp22
sS'unicodes'
p23
(tsg9
I150
sS'contours'
p24
(tsS'components'
p25
(tsS'anchors'
p26
(tsss."
HStem: -15 83<63 90>
VStem: 32 91<14.5 39> 52 47<730 1156 730 1156> 69 14<321 321>
LayerCount: 2
Fore
SplineSet
76 -15 m 256
 50 -15 32 2 32 27 c 256
 32 51 50 68 76 68 c 256
 104 68 123 51 123 27 c 256
 123 2 104 -15 76 -15 c 256
69 321 m 257
 52 730 l 257
 52 1156 l 257
 99 1156 l 257
 99 730 l 257
 83 321 l 257
 69 321 l 257
EndSplineSet
EndChar

StartChar: exclamdown
Encoding: 161 161 233
Width: 180
VWidth: 0
Flags: HW
PickledData: "(dp1
S'org.robofab.postScriptHintData'
p2
(dp3
sS'com.fontlab.hintData'
p4
(dp5
S'vhints'
p6
((dp7
S'position'
p8
I40
sS'width'
p9
I91
s(dp10
g8
I60
sg9
I47
s(dp11
g8
I77
sg9
I14
stp12
sS'hhints'
p13
((dp14
g8
I775
sg9
I83
stp15
ssS'com.typemytype.robofont.layerData'
p16
(dp17
S'b'
(dp18
S'name'
p19
S'exclamdown'
p20
sS'lib'
p21
(dp22
sS'unicodes'
p23
(tsg9
I180
sS'contours'
p24
(tsS'components'
p25
(tsS'anchors'
p26
(tsss."
HStem: 775 83
VStem: 40 91 60 47 77 14
LayerCount: 2
Fore
SplineSet
84 858 m 256
 112 858 131 841 131 816 c 256
 131 792 112 775 84 775 c 256
 58 775 40 792 40 816 c 256
 40 841 58 858 84 858 c 256
77 522 m 257
 91 522 l 257
 107 113 l 257
 107 -313 l 257
 60 -313 l 257
 60 113 l 257
 77 522 l 257
EndSplineSet
EndChar

StartChar: f
Encoding: 102 102 234
Width: 671
VWidth: 0
Flags: HW
PickledData: "(dp1
S'org.robofab.postScriptHintData'
p2
(dp3
sS'com.fontlab.hintData'
p4
(dp5
S'vhints'
p6
((dp7
S'position'
p8
I264
sS'width'
p9
I48
s(dp10
g8
I539
sg9
I33
stp11
sS'hhints'
p12
((dp13
g8
I1155
sg9
I36
stp14
ssS'com.typemytype.robofont.layerData'
p15
(dp16
S'b'
(dp17
S'name'
p18
S'f'
sS'lib'
p19
(dp20
sS'unicodes'
p21
(tsg9
I671
sS'contours'
p22
(tsS'components'
p23
(tsS'anchors'
p24
(tsss."
HStem: 1155 36<391 456.5>
VStem: 264 48<34 770 34 770 804 1036 34 804> 539 33<1047 1062>
LayerCount: 2
Fore
SplineSet
114 0 m 257
 114 34 l 257
 264 34 l 257
 264 770 l 257
 109 770 l 257
 109 804 l 257
 264 804 l 257
 264 1036 l 258
 264 1134 326 1191 422 1191 c 256
 511 1191 564 1142 572 1062 c 257
 539 1047 l 257
 530 1120 489 1155 424 1155 c 256
 358 1155 312 1113 312 1036 c 258
 312 804 l 257
 550 804 l 257
 550 770 l 257
 312 770 l 257
 312 34 l 257
 504 34 l 257
 504 0 l 257
 114 0 l 257
EndSplineSet
EndChar

StartChar: ff
Encoding: 64256 64256 236
Width: 1226
VWidth: 0
Flags: HW
PickledData: "(dp1
S'org.robofab.postScriptHintData'
p2
(dp3
sS'com.fontlab.hintData'
p4
(dp5
S'vhints'
p6
((dp7
S'position'
p8
I264
sS'width'
p9
I48
s(dp10
g8
I539
sg9
I33
s(dp11
g8
I822
sg9
I44
s(dp12
g8
I1086
sg9
I31
stp13
sS'hhints'
p14
((dp15
g8
I1153
sg9
I38
s(dp16
g8
I1155
sg9
I36
stp17
ssS'com.typemytype.robofont.layerData'
p18
(dp19
S'b'
(dp20
S'name'
p21
S'ff'
p22
sS'lib'
p23
(dp24
sS'unicodes'
p25
(tsg9
I1226
sS'contours'
p26
(tsS'components'
p27
(tsS'anchors'
p28
(tsss."
HStem: 1153 38<944 991> 1155 36<391 456.5>
VStem: 264 48<34 770 34 770 804 1036 34 804> 539 33<1047 1062> 822 44<34 770 34 770 804 1033 34 804> 1086 31<1047 1062>
LayerCount: 2
Fore
SplineSet
668 0 m 257
 668 34 l 257
 822 34 l 257
 822 770 l 257
 312 770 l 257
 312 34 l 257
 504 34 l 257
 504 0 l 257
 114 0 l 257
 114 34 l 257
 264 34 l 257
 264 770 l 257
 109 770 l 257
 109 804 l 257
 264 804 l 257
 264 1036 l 258
 264 1134 326 1191 422 1191 c 256
 511 1191 564 1142 572 1062 c 257
 539 1047 l 257
 530 1120 489 1155 424 1155 c 256
 358 1155 312 1113 312 1036 c 258
 312 804 l 257
 822 804 l 257
 822 1033 l 258
 822 1139 904 1191 967 1191 c 256
 1033 1191 1105 1165 1117 1062 c 257
 1086 1047 l 257
 1075 1142 1015 1153 967 1153 c 256
 921 1153 866 1112 866 1039 c 258
 866 804 l 257
 1105 804 l 257
 1105 770 l 257
 866 770 l 257
 866 34 l 257
 1059 34 l 257
 1059 0 l 257
 668 0 l 257
EndSplineSet
EndChar

StartChar: ffi
Encoding: 64259 64259 237
Width: 1699
VWidth: 0
Flags: HW
PickledData: "(dp1
S'org.robofab.postScriptHintData'
p2
(dp3
sS'com.fontlab.hintData'
p4
(dp5
S'vhints'
p6
((dp7
S'position'
p8
I361
sS'width'
p9
I44
s(dp10
g8
I953
sg9
I44
s(dp11
g8
I1463
sg9
I109
stp12
sS'hhints'
p13
((dp14
g8
I1166
sg9
I36
s(dp15
g8
I1173
sg9
I35
stp16
ssS'com.typemytype.robofont.layerData'
p17
(dp18
S'b'
(dp19
S'name'
p20
S'ffi'
p21
sS'lib'
p22
(dp23
sS'unicodes'
p24
(tsg9
I1699
sS'contours'
p25
(tsS'components'
p26
(tsS'anchors'
p27
(tsss."
HStem: 1166 36<1249.67 1347> 1173 35<586.5 715.283>
VStem: 361 44<34 770 34 770 804 1005 34 804> 953 44<34 770 34 770 804 950 34 804> 1463 109<1048 1062.5>
LayerCount: 2
Fore
SplineSet
207 0 m 257
 207 34 l 257
 361 34 l 257
 361 770 l 257
 202 770 l 257
 202 804 l 257
 361 804 l 257
 361 1005 l 258
 361 1130 477 1208 663 1208 c 256
 769.443 1208 902.553 1166.62 1012.07 1100.61 c 257
 1073.58 1165.16 1180.34 1202 1319 1202 c 256
 1474 1202 1572 1149 1572 1065 c 256
 1572 1031 1554 1009 1521 1009 c 256
 1487 1009 1463 1026 1463 1052 c 256
 1463 1073 1474 1096 1502 1101 c 257
 1481 1152 1379 1166 1315 1166 c 256
 1120 1166 997 1083 997 952 c 258
 997 804 l 257
 1550 804 l 257
 1550 34 l 257
 1707 34 l 257
 1707 0 l 257
 1353 0 l 257
 1353 34 l 257
 1506 34 l 257
 1506 770 l 257
 997 770 l 257
 997 34 l 257
 1199 34 l 257
 1199 0 l 257
 785 0 l 257
 785 34 l 257
 953 34 l 257
 953 770 l 257
 405 770 l 257
 405 34 l 257
 598 34 l 257
 598 0 l 257
 207 0 l 257
953 804 m 257
 953 950 l 258
 953 996.866 965.891 1038.43 990.096 1073.61 c 257
 887.171 1134.77 763.565 1173 667 1173 c 256
 506 1173 405 1111 405 1011 c 258
 405 804 l 257
 953 804 l 257
EndSplineSet
EndChar

StartChar: ffl
Encoding: 64260 64260 238
Width: 1801
VWidth: 0
Flags: HW
PickledData: "(dp1
S'org.robofab.postScriptHintData'
p2
(dp3
sS'com.fontlab.hintData'
p4
(dp5
S'vhints'
p6
((dp7
S'position'
p8
I254
sS'width'
p9
I44
s(dp10
g8
I860
sg9
I44
s(dp11
g8
I1454
sg9
I44
stp12
sS'hhints'
p13
((dp14
g8
I1173
sg9
I35
s(dp15
g8
I1204
sg9
I36
stp16
ssS'com.typemytype.robofont.layerData'
p17
(dp18
S'b'
(dp19
S'name'
p20
S'ffl'
p21
sS'lib'
p22
(dp23
sS'unicodes'
p24
(tsg9
I1801
sS'contours'
p25
(tsS'components'
p26
(tsS'anchors'
p27
(tsss."
HStem: 1173 35<479.5 608.448> 1204 36<1149.3 1296>
VStem: 254 44<34 770 34 770 804 1005 34 804> 860 44<34 770 34 770 34 804 804 959> 1454 44<34 1120 1120 1127 0 1120>
LayerCount: 2
Fore
SplineSet
860 804 m 257
 860 959 l 258
 860 1001.04 868.325 1039.24 884.158 1072.98 c 257
 781.022 1134.5 656.897 1173 560 1173 c 256
 399 1173 298 1111 298 1011 c 258
 298 804 l 257
 860 804 l 257
100 0 m 257
 100 34 l 257
 254 34 l 257
 254 770 l 257
 95 770 l 257
 95 804 l 257
 254 804 l 257
 254 1005 l 258
 254 1130 370 1208 556 1208 c 256
 661.131 1208 792.277 1167.63 901.009 1103.04 c 257
 958.259 1189.81 1072.61 1240 1226 1240 c 256
 1393 1240 1498 1194 1498 1120 c 258
 1498 34 l 257
 1705 34 l 257
 1705 0 l 257
 1454 0 l 257
 1454 1127 l 258
 1454 1174 1366 1204 1226 1204 c 256
 1028 1204 904 1113 904 967 c 258
 904 804 l 257
 1123 804 l 257
 1123 770 l 257
 904 770 l 257
 904 34 l 257
 1106 34 l 257
 1106 0 l 257
 692 0 l 257
 692 34 l 257
 860 34 l 257
 860 770 l 257
 298 770 l 257
 298 34 l 257
 491 34 l 257
 491 0 l 257
 100 0 l 257
EndSplineSet
EndChar

StartChar: fi
Encoding: 64257 64257 239
Width: 1044
VWidth: 0
Flags: HW
PickledData: "(dp1
S'org.robofab.postScriptHintData'
p2
(dp3
sS'com.fontlab.hintData'
p4
(dp5
S'vhints'
p6
((dp7
S'position'
p8
I282
sS'width'
p9
I44
s(dp10
g8
I792
sg9
I109
stp11
sS'hhints'
p12
((dp13
g8
I1166
sg9
I36
stp14
ssS'com.typemytype.robofont.layerData'
p15
(dp16
S'b'
(dp17
S'name'
p18
S'fi'
p19
sS'lib'
p20
(dp21
sS'unicodes'
p22
(tsg9
I1044
sS'contours'
p23
(tsS'components'
p24
(tsS'anchors'
p25
(tsss."
HStem: 1166 36<546.5 676>
VStem: 282 44<34 770 34 770 804 950 34 804> 792 109<1048 1062.5>
LayerCount: 2
Fore
SplineSet
114 0 m 257
 114 34 l 257
 282 34 l 257
 282 770 l 257
 109 770 l 257
 109 804 l 257
 282 804 l 257
 282 950 l 258
 282 1105 423 1202 648 1202 c 256
 803 1202 901 1149 901 1065 c 256
 901 1031 883 1009 850 1009 c 256
 816 1009 792 1026 792 1052 c 256
 792 1073 803 1096 831 1101 c 257
 810 1152 708 1166 644 1166 c 256
 449 1166 326 1083 326 952 c 258
 326 804 l 257
 879 804 l 257
 879 34 l 257
 1036 34 l 257
 1036 0 l 257
 682 0 l 257
 682 34 l 257
 835 34 l 257
 835 770 l 257
 326 770 l 257
 326 34 l 257
 528 34 l 257
 528 0 l 257
 114 0 l 257
EndSplineSet
EndChar

StartChar: five
Encoding: 53 53 240
Width: 964
VWidth: 0
Flags: HW
PickledData: "(dp1
S'org.robofab.postScriptHintData'
p2
(dp3
sS'com.fontlab.hintData'
p4
(dp5
S'vhints'
p6
((dp7
S'position'
p8
I854
sS'width'
p9
I42
stp10
sS'hhints'
p11
((dp12
g8
I-22
sg9
I36
s(dp13
g8
I692
sg9
I36
stp14
ssS'com.typemytype.robofont.layerData'
p15
(dp16
S'b'
(dp17
S'name'
p18
S'five'
p19
sS'lib'
p20
(dp21
sS'unicodes'
p22
(tsg9
I964
sS'contours'
p23
(tsS'components'
p24
(tsS'anchors'
p25
(tsss."
HStem: -22 36<404.5 595.5 404.5 609> 692 36<445 610.5>
VStem: 854 42<243.5 461.5>
LayerCount: 2
Fore
SplineSet
473 -22 m 256
 330 -22 199 46 106 169 c 257
 131 200 l 257
 214 80 336 14 473 14 c 256
 718 14 854 135 854 352 c 256
 854 571 726 692 495 692 c 256
 395 692 283 650 210 567 c 257
 164 585 l 257
 164 1152 l 257
 826 1152 l 257
 826 920 l 257
 783 920 l 257
 783 1118 l 257
 208 1118 l 257
 207 605 l 257
 266 684 369 728 495 728 c 256
 753 728 896 594 896 352 c 256
 896 112 745 -22 473 -22 c 256
EndSplineSet
EndChar

StartChar: fj
Encoding: 65537 -1 241
Width: 1044
VWidth: 0
Flags: HW
PickledData: "(dp1
S'org.robofab.postScriptHintData'
p2
(dp3
sS'com.fontlab.hintData'
p4
(dp5
S'vhints'
p6
((dp7
S'position'
p8
I282
sS'width'
p9
I44
s(dp10
g8
I792
sg9
I109
s(dp11
g8
I832
sg9
I47
stp12
sS'hhints'
p13
((dp14
g8
I-240
sg9
I32
s(dp15
g8
I1166
sg9
I36
stp16
ss."
HStem: -240 32<634 696 634 706 634 805> 1166 36<546.5 676>
VStem: 282 44<34 770 34 770 804 950 34 804> 792 109<1048 1062.5> 832 47<-95.5 804 -34 770>
LayerCount: 2
Fore
SplineSet
634 -240 m 257
 634 -208 l 257
 696 -208 l 258
 839 -208 832 -152 832 -39 c 258
 832 770 l 257
 326 770 l 257
 326 34 l 257
 528 34 l 257
 528 0 l 257
 114 0 l 257
 114 34 l 257
 282 34 l 257
 282 770 l 257
 109 770 l 257
 109 804 l 257
 282 804 l 257
 282 950 l 258
 282 1105 423 1202 648 1202 c 256
 803 1202 901 1149 901 1065 c 256
 901 1031 883 1009 850 1009 c 256
 816 1009 792 1026 792 1052 c 256
 792 1073 803 1096 831 1101 c 257
 810 1152 708 1166 644 1166 c 256
 449 1166 326 1083 326 952 c 258
 326 804 l 257
 879 804 l 257
 879 -34 l 258
 879 -101 904 -240 706 -240 c 258
 634 -240 l 257
EndSplineSet
EndChar

StartChar: fl
Encoding: 64258 64258 242
Width: 1223
VWidth: 0
Flags: HW
PickledData: "(dp1
S'org.robofab.postScriptHintData'
p2
(dp3
sS'com.fontlab.hintData'
p4
(dp5
S'vhints'
p6
((dp7
S'position'
p8
I282
sS'width'
p9
I44
s(dp10
g8
I876
sg9
I44
stp11
sS'hhints'
p12
((dp13
g8
I1204
sg9
I36
stp14
ssS'com.typemytype.robofont.layerData'
p15
(dp16
S'b'
(dp17
S'name'
p18
S'fl'
p19
sS'lib'
p20
(dp21
sS'unicodes'
p22
(tsg9
I1223
sS'contours'
p23
(tsS'components'
p24
(tsS'anchors'
p25
(tsss."
HStem: 1204 36<549 718>
VStem: 282 44<34 770 34 770 804 959 34 804> 876 44<0 1120 0 1120 34 1120 1120 1127>
LayerCount: 2
Fore
SplineSet
114 0 m 257
 114 34 l 257
 282 34 l 257
 282 770 l 257
 109 770 l 257
 109 804 l 257
 282 804 l 257
 282 959 l 258
 282 1132 423 1240 648 1240 c 256
 815 1240 920 1194 920 1120 c 258
 920 34 l 257
 1127 34 l 257
 1127 0 l 257
 876 0 l 257
 876 34 l 257
 876 1127 l 258
 876 1174 788 1204 648 1204 c 256
 450 1204 326 1113 326 967 c 258
 326 804 l 257
 545 804 l 257
 545 770 l 257
 326 770 l 257
 326 34 l 257
 528 34 l 257
 528 0 l 257
 114 0 l 257
EndSplineSet
EndChar

StartChar: florin
Encoding: 402 402 243
Width: 707
VWidth: 0
Flags: HW
PickledData: "(dp1
S'org.robofab.postScriptHintData'
p2
(dp3
sS'com.fontlab.hintData'
p4
(dp5
S'vhints'
p6
((dp7
S'position'
p8
I662
sS'width'
p9
I37
stp10
sS'hhints'
p11
((dp12
g8
I-86
sg9
I28
stp13
ss."
HStem: -86 28<84 127.5 82 130>
VStem: 662 37
LayerCount: 2
Fore
SplineSet
414 1034 m 258
 437 1156 501 1198 590 1194 c 256
 640 1192 699 1162 699 1115 c 256
 699 1099 692 1077 662 1077 c 257
 657 1129 636 1165 587 1168 c 256
 525 1172 478 1142 456 1030 c 258
 412 804 l 257
 631 804 l 257
 627 773 l 257
 408 773 l 257
 274 60 l 258
 247 -86 176 -86 84 -86 c 257
 82 -58 l 257
 173 -58 213 -46 233 60 c 258
 365 773 l 257
 190 773 l 257
 195 804 l 257
 370 804 l 257
 414 1034 l 258
EndSplineSet
EndChar

StartChar: foundryicon
Encoding: 65538 -1 244
Width: 1347
VWidth: 0
Flags: HW
PickledData: "(dp1
S'org.robofab.postScriptHintData'
p2
(dp3
sS'com.typemytype.robofont.layerData'
p4
(dp5
S'b'
(dp6
S'name'
p7
S'foundryicon'
p8
sS'lib'
p9
(dp10
sS'unicodes'
p11
(tsS'width'
p12
I1347
sS'contours'
p13
(tsS'components'
p14
(tsS'anchors'
p15
(tsss."
LayerCount: 2
Fore
SplineSet
280 2 m 257
 423 461 l 257
 34 755 l 257
 519 755 l 257
 669 1215 l 257
 828 755 l 257
 1313 755 l 257
 922 461 l 257
 1066 2 l 257
 669 278 l 257
 280 2 l 257
485 405 m 257
 591 405 l 257
 591 552 l 257
 761 405 l 257
 867 405 l 257
 867 672 l 257
 761 672 l 257
 761 523 l 257
 591 672 l 257
 485 672 l 257
 485 405 l 257
EndSplineSet
EndChar

StartChar: four
Encoding: 52 52 245
Width: 964
VWidth: 0
Flags: HW
PickledData: "(dp1
S'org.robofab.postScriptHintData'
p2
(dp3
sS'com.typemytype.robofont.layerData'
p4
(dp5
S'b'
(dp6
S'name'
p7
S'four'
p8
sS'lib'
p9
(dp10
sS'unicodes'
p11
(tsS'width'
p12
I964
sS'contours'
p13
(tsS'components'
p14
(tsS'anchors'
p15
(tsss."
LayerCount: 2
Fore
SplineSet
159 404 m 257
 593 404 l 257
 593 1102 l 257
 159 404 l 257
450 0 m 257
 450 34 l 257
 593 34 l 257
 593 370 l 257
 122 370 l 257
 113 408 l 257
 582 1152 l 257
 637 1152 l 257
 637 404 l 257
 857 404 l 257
 857 370 l 257
 637 370 l 257
 637 34 l 257
 782 34 l 257
 782 0 l 257
 450 0 l 257
EndSplineSet
EndChar

StartChar: foursuperior
Encoding: 8308 8308 246
Width: 718
VWidth: 0
Flags: HW
PickledData: "(dp1
S'org.robofab.postScriptHintData'
p2
(dp3
sS'com.fontlab.hintData'
p4
(dp5
S'hhints'
p6
((dp7
S'position'
p8
I816
sS'width'
p9
I21
stp10
ssS'com.typemytype.robofont.layerData'
p11
(dp12
S'b'
(dp13
S'name'
p14
S'uni2074'
p15
sS'lib'
p16
(dp17
sS'unicodes'
p18
(tsg9
I718
sS'contours'
p19
(tsS'components'
p20
(tsS'anchors'
p21
(tsss."
HStem: 816 21<96 96 96 429 467 467 467 664>
LayerCount: 2
Fore
SplineSet
96 816 m 257
 429 816 l 257
 429 1275 l 257
 96 816 l 257
307 550 m 257
 307 584 l 257
 429 584 l 257
 429 782 l 257
 57 782 l 257
 45 812 l 257
 418 1321 l 257
 467 1321 l 257
 467 816 l 257
 664 816 l 257
 664 782 l 257
 467 782 l 257
 467 584 l 257
 592 584 l 257
 592 550 l 257
 307 550 l 257
EndSplineSet
EndChar

StartChar: fraction
Encoding: 8260 8260 247
Width: 337
VWidth: 0
Flags: HW
PickledData: "(dp1
S'org.robofab.postScriptHintData'
p2
(dp3
sS'com.typemytype.robofont.layerData'
p4
(dp5
S'b'
(dp6
S'name'
p7
S'fraction'
p8
sS'lib'
p9
(dp10
sS'unicodes'
p11
(tsS'width'
p12
I337
sS'contours'
p13
(tsS'components'
p14
(tsS'anchors'
p15
(tsss."
LayerCount: 2
Fore
SplineSet
-35 -25 m 257
 312 1289 l 257
 360 1289 l 257
 19 -25 l 257
 -35 -25 l 257
EndSplineSet
EndChar

StartChar: g
Encoding: 103 103 248
Width: 1013
VWidth: 0
Flags: HW
PickledData: "(dp1
S'org.robofab.postScriptHintData'
p2
(dp3
sS'com.fontlab.hintData'
p4
(dp5
S'vhints'
p6
((dp7
S'position'
p8
I63
sS'width'
p9
I42
s(dp10
g8
I804
sg9
I44
stp11
sS'hhints'
p12
((dp13
g8
I-374
sg9
I34
s(dp14
g8
I-7
sg9
I33
s(dp15
g8
I791
sg9
I33
stp16
ssS'com.typemytype.robofont.layerData'
p17
(dp18
S'b'
(dp19
S'name'
p20
S'g'
sS'lib'
p21
(dp22
sS'unicodes'
p23
(tsg9
I1013
sS'contours'
p24
((dp25
S'points'
p26
((dp27
S'segmentType'
p28
S'curve'
p29
sS'x'
I510
sS'smooth'
p30
I1
sS'y'
S'-333'
p31
s(dp32
S'y'
S'-333'
p33
sS'x'
I722
sg30
I0
s(dp34
S'y'
S'-225'
p35
sS'x'
I880
sg30
I0
s(dp36
g28
S'curve'
p37
sS'x'
I880
sg30
I0
sS'y'
I15
s(dp38
g28
S'line'
p39
sS'x'
I880
sg30
I0
sS'y'
I735
s(dp40
g28
S'line'
p41
sS'x'
I1005
sg30
I0
sS'y'
I735
s(dp42
g28
S'line'
p43
sS'x'
I1005
sg30
I0
sS'y'
I789
s(dp44
g28
S'line'
p45
sS'x'
I804
sg30
I0
sS'y'
I789
s(dp46
g28
S'line'
p47
sS'x'
I804
sg30
I0
sS'y'
I673
s(dp48
S'y'
I673
sS'x'
I804
sg30
I0
s(dp49
S'y'
S'-2'
p50
sS'x'
I804
sg30
I0
s(dp51
g28
S'curve'
p52
sS'x'
I804
sg30
I1
sS'y'
S'-2'
p53
s(dp54
S'y'
S'-173'
p55
sS'x'
I804
sg30
I0
s(dp56
S'y'
S'-271'
p57
sS'x'
I695
sg30
I0
s(dp58
g28
S'curve'
p59
sS'x'
I515
sg30
I1
sS'y'
S'-271'
p60
s(dp61
S'y'
S'-271'
p62
sS'x'
I444
sg30
I0
s(dp63
S'y'
S'-255'
p64
sS'x'
I362
sg30
I0
s(dp65
g28
S'curve'
p66
sS'x'
I272
sg30
I0
sS'y'
S'-224'
p67
s(dp68
g28
S'line'
p69
sS'x'
I257
sg30
I0
sS'y'
S'-289'
p70
s(dp71
S'y'
S'-318'
p72
sS'x'
I345
sg30
I0
s(dp73
S'y'
S'-333'
p74
sS'x'
I431
sg30
I0
stp75
stp76
sS'components'
p77
(tsS'anchors'
p78
(tsss."
HStem: -374 34<442.5 590.5 442.5 593.5> -7 33 791 33
VStem: 63 42<404 404> 804 44<-125.5 770 -17 115.505 152.84 152.84 152.84 669.665 702.366 770 -17 804 702.366 702.366>
LayerCount: 2
Fore
SplineSet
477 -374 m 256
 394 -374 298 -355 193 -328 c 257
 200 -294 l 257
 314 -326 405 -340 480 -340 c 256
 701 -340 804 -220 804 -31 c 258
 804 115.505 l 257
 723.085 43.1885 598.527 -6.55957 490 -6.55957 c 256
 243 -6.55957 66 163.96 63 404.06 c 256
 60 650.04 226 824.48 464 824.48 c 256
 581.496 824.48 716.949 774.326 804 702.366 c 257
 804 804 l 257
 984 804 l 257
 984 770 l 257
 848 770 l 257
 848 -17 l 258
 848 -261 710 -374 477 -374 c 256
804 669.665 m 257
 714.497 741.725 579.79 791.16 464 791.16 c 256
 254 791.16 105 630.44 105 404.06 c 256
 105 183.56 265 26.7598 490 26.7598 c 256
 595.898 26.7598 720.57 78.4513 804 152.84 c 257
 804 669.665 l 257
EndSplineSet
EndChar

StartChar: germandbls
Encoding: 223 223 255
Width: 1198
VWidth: 0
Flags: HW
PickledData: "(dp1
S'org.robofab.postScriptHintData'
p2
(dp3
sS'com.fontlab.hintData'
p4
(dp5
S'vhints'
p6
((dp7
S'position'
p8
I264
sS'width'
p9
I45
s(dp10
g8
I900
sg9
I42
s(dp11
g8
I1055
sg9
I42
stp12
sS'hhints'
p13
((dp14
g8
I0
sg9
I40
s(dp15
g8
I670
sg9
I24
s(dp16
g8
I1230
sg9
I34
stp17
ssS'com.typemytype.robofont.layerData'
p18
(dp19
S'b'
(dp20
S'name'
p21
S'germandbls'
p22
sS'lib'
p23
(dp24
sS'unicodes'
p25
(tsg9
I1198
sS'contours'
p26
(tsS'components'
p27
(tsS'anchors'
p28
(tsss."
HStem: 0 40<110 264 309 431 575 716> 670 24<602 602> 1230 34<501 704>
VStem: 264 45<40 877 40 882> 900 42<907 1061.5> 1055 42<251 442 247 451.5>
LayerCount: 2
Fore
SplineSet
110 0 m 257
 110 40 l 257
 264 40 l 257
 264 877 l 258
 264 1130 379 1264 602 1264 c 256
 820 1264 942 1171 942 986 c 256
 942 828 853 716 713 687 c 257
 987 666 1097 531 1097 353 c 256
 1097 141 901 0 575 0 c 257
 575 40 l 257
 857 40 1055 149 1055 353 c 256
 1055 550 887 669 602 670 c 257
 602 694 l 257
 798 705 900 815 900 987 c 256
 900 1136 806 1230 602 1230 c 256
 400 1230 309 1096 309 882 c 258
 309 40 l 257
 431 40 l 257
 431 0 l 257
 110 0 l 257
EndSplineSet
EndChar

StartChar: grave
Encoding: 96 96 256
Width: 137
VWidth: 0
Flags: HW
PickledData: "(dp1
S'org.robofab.postScriptHintData'
p2
(dp3
sS'com.fontlab.hintData'
p4
(dp5
S'hhints'
p6
((dp7
S'position'
p8
I991
sS'width'
p9
I245
stp10
ssS'com.typemytype.robofont.layerData'
p11
(dp12
S'b'
(dp13
S'name'
p14
S'grave'
p15
sS'lib'
p16
(dp17
sS'unicodes'
p18
(tsg9
I137
sS'contours'
p19
(tsS'components'
p20
(tsS'anchors'
p21
(tsss."
HStem: 991 245<8 137 8 137>
LayerCount: 2
Fore
SplineSet
116 991 m 257
 8 1236 l 257
 50 1236 l 257
 137 991 l 257
 116 991 l 257
EndSplineSet
EndChar

StartChar: greater
Encoding: 62 62 257
Width: 896
VWidth: 0
Flags: HW
PickledData: "(dp1
S'org.robofab.postScriptHintData'
p2
(dp3
sS'com.typemytype.robofont.layerData'
p4
(dp5
S'b'
(dp6
S'name'
p7
S'greater'
p8
sS'lib'
p9
(dp10
sS'unicodes'
p11
(tsS'width'
p12
I896
sS'contours'
p13
(tsS'components'
p14
(tsS'anchors'
p15
(tsss."
LayerCount: 2
Fore
SplineSet
141 -122 m 257
 141 -70 l 257
 892 566 l 257
 141 1205 l 257
 141 1261 l 257
 945 575 l 257
 945 556 l 257
 141 -122 l 257
EndSplineSet
EndChar

StartChar: greaterequal
Encoding: 8805 8805 258
Width: 595
VWidth: 0
Flags: HW
PickledData: "(dp1
S'org.robofab.postScriptHintData'
p2
(dp3
sS'com.fontlab.hintData'
p4
(dp5
S'vhints'
p6
((dp7
S'position'
p8
I-1
sS'width'
p9
I611
stp10
ssS'com.typemytype.robofont.layerData'
p11
(dp12
S'b'
(dp13
S'name'
p14
S'greaterequal'
p15
sS'lib'
p16
(dp17
sS'unicodes'
p18
(tsg9
I595
sS'contours'
p19
(tsS'components'
p20
(tsS'anchors'
p21
(tsss."
VStem: -1 611<0 33 0 33 0 222 0 182>
LayerCount: 2
Fore
SplineSet
-1 0 m 257
 -1 33 l 257
 610 33 l 257
 610 0 l 257
 -1 0 l 257
-1 182 m 257
 -1 222 l 257
 538 507 l 257
 -1 793 l 257
 -1 836 l 257
 610 519 l 257
 610 496 l 257
 -1 182 l 257
EndSplineSet
EndChar

StartChar: guillemotleft
Encoding: 171 171 259
Width: 744
VWidth: 0
Flags: HW
PickledData: "(dp1
S'org.robofab.postScriptHintData'
p2
(dp3
sS'com.typemytype.robofont.layerData'
p4
(dp5
S'b'
(dp6
S'name'
p7
S'guillemotleft'
p8
sS'lib'
p9
(dp10
sS'unicodes'
p11
(tsS'width'
p12
I744
sS'contours'
p13
(tsS'components'
p14
(tsS'anchors'
p15
(tsss."
LayerCount: 2
Fore
SplineSet
560 309 m 257
 295 686 l 257
 560 1059 l 257
 589 1059 l 257
 374 686 l 257
 589 309 l 257
 560 309 l 257
327 309 m 257
 63 686 l 257
 327 1059 l 257
 356 1059 l 257
 143 686 l 257
 356 309 l 257
 327 309 l 257
EndSplineSet
EndChar

StartChar: guillemotright
Encoding: 187 187 260
Width: 744
VWidth: 0
Flags: HW
PickledData: "(dp1
S'org.robofab.postScriptHintData'
p2
(dp3
sS'com.typemytype.robofont.layerData'
p4
(dp5
S'b'
(dp6
S'name'
p7
S'guillemotright'
p8
sS'lib'
p9
(dp10
sS'unicodes'
p11
(tsS'width'
p12
I744
sS'contours'
p13
(tsS'components'
p14
(tsS'anchors'
p15
(tsss."
LayerCount: 2
Fore
SplineSet
387 309 m 257
 601 686 l 257
 387 1059 l 257
 416 1059 l 257
 681 686 l 257
 416 309 l 257
 387 309 l 257
155 309 m 257
 368 686 l 257
 155 1059 l 257
 184 1059 l 257
 448 686 l 257
 184 309 l 257
 155 309 l 257
EndSplineSet
EndChar

StartChar: guilsinglleft
Encoding: 8249 8249 261
Width: 405
VWidth: 0
Flags: HW
PickledData: "(dp1
S'org.robofab.postScriptHintData'
p2
(dp3
sS'com.typemytype.robofont.layerData'
p4
(dp5
S'b'
(dp6
S'name'
p7
S'guilsinglleft'
p8
sS'lib'
p9
(dp10
sS'unicodes'
p11
(tsS'width'
p12
I405
sS'contours'
p13
(tsS'components'
p14
(tsS'anchors'
p15
(tsss."
LayerCount: 2
Fore
SplineSet
270 309 m 257
 7 686 l 257
 270 1059 l 257
 299 1059 l 257
 86 686 l 257
 299 309 l 257
 270 309 l 257
EndSplineSet
EndChar

StartChar: guilsinglright
Encoding: 8250 8250 262
Width: 405
VWidth: 0
Flags: HW
PickledData: "(dp1
S'org.robofab.postScriptHintData'
p2
(dp3
sS'com.typemytype.robofont.layerData'
p4
(dp5
S'b'
(dp6
S'name'
p7
S'guilsinglright'
p8
sS'lib'
p9
(dp10
sS'unicodes'
p11
(tsS'width'
p12
I405
sS'contours'
p13
(tsS'components'
p14
(tsS'anchors'
p15
(tsss."
LayerCount: 2
Fore
SplineSet
106 309 m 257
 319 686 l 257
 106 1059 l 257
 135 1059 l 257
 399 686 l 257
 135 309 l 257
 106 309 l 257
EndSplineSet
EndChar

StartChar: h
Encoding: 104 104 263
Width: 965
VWidth: 0
Flags: HW
PickledData: "(dp1
S'org.robofab.postScriptHintData'
p2
(dp3
sS'com.fontlab.hintData'
p4
(dp5
S'vhints'
p6
((dp7
S'position'
p8
I25
sS'width'
p9
I343
s(dp10
g8
I761
sg9
I44
stp11
sS'hhints'
p12
((dp13
g8
I790
sg9
I36
stp14
ssS'com.typemytype.robofont.layerData'
p15
(dp16
S'b'
(dp17
S'name'
p18
S'h'
sS'lib'
p19
(dp20
sS'unicodes'
p21
(tsg9
I965
sS'contours'
p22
(tsS'components'
p23
(tsS'anchors'
p24
(tsss."
HStem: 790 36<521.3 619.5>
VStem: 25 343<0 34 0 34> 761 44<34 582 582 605 34 582>
LayerCount: 2
Fore
SplineSet
25 0 m 257
 25 34 l 257
 174 34 l 257
 174 1140 l 257
 33 1140 l 257
 33 1174 l 257
 218 1174 l 257
 218 713.339 l 257
 341.659 783.033 472.049 826 562 826 c 256
 711 826 805 732 805 582 c 258
 805 34 l 257
 959 34 l 257
 959 0 l 257
 581 0 l 257
 581 34 l 257
 761 34 l 257
 761 605 l 258
 761 719 682 790 557 790 c 256
 485.6 790 357.452 749.588 218 678.331 c 257
 218 34 l 257
 368 34 l 257
 368 0 l 257
 25 0 l 257
EndSplineSet
EndChar

StartChar: hungarumlaut
Encoding: 733 733 266
Width: 356
VWidth: 0
Flags: HW
PickledData: "(dp1
S'org.robofab.postScriptHintData'
p2
(dp3
sS'com.fontlab.hintData'
p4
(dp5
S'hhints'
p6
((dp7
S'position'
p8
I991
sS'width'
p9
I295
stp10
ssS'com.typemytype.robofont.layerData'
p11
(dp12
S'b'
(dp13
S'name'
p14
S'hungarumlaut'
p15
sS'lib'
p16
(dp17
sS'unicodes'
p18
(tsg9
I356
sS'contours'
p19
(tsS'components'
p20
(tsS'anchors'
p21
(tsss."
HStem: 991 295<50 157 71 157 157 251 157 251>
LayerCount: 2
Fore
SplineSet
157 1286 m 257
 199 1286 l 257
 71 991 l 257
 50 991 l 257
 157 1286 l 257
337 1286 m 257
 379 1286 l 257
 251 991 l 257
 230 991 l 257
 337 1286 l 257
EndSplineSet
EndChar

StartChar: hyphen
Encoding: 45 45 267
Width: 915
VWidth: 0
Flags: HW
PickledData: "(dp1
S'org.robofab.postScriptHintData'
p2
(dp3
sS'com.fontlab.hintData'
p4
(dp5
S'vhints'
p6
((dp7
S'position'
p8
I195
sS'width'
p9
I523
stp10
sS'hhints'
p11
((dp12
g8
I437
sg9
I34
stp13
ssS'com.typemytype.robofont.layerData'
p14
(dp15
S'b'
(dp16
S'name'
p17
S'hyphen'
p18
sS'lib'
p19
(dp20
sS'unicodes'
p21
(tsg9
I915
sS'contours'
p22
(tsS'components'
p23
(tsS'anchors'
p24
(tsss."
HStem: 437 34<195 718 195 718>
VStem: 195 523<437 471 437 471>
LayerCount: 2
Fore
SplineSet
195 437 m 257
 195 471 l 257
 718 471 l 257
 718 437 l 257
 195 437 l 257
EndSplineSet
EndChar

StartChar: i
Encoding: 105 105 268
Width: 537
VWidth: 0
Flags: HW
PickledData: "(dp1
S'org.robofab.postScriptHintData'
p2
(dp3
sS'com.fontlab.hintData'
p4
(dp5
S'vhints'
p6
((dp7
S'position'
p8
I96
sS'width'
p9
I401
s(dp10
g8
I239
sg9
I91
stp11
sS'hhints'
p12
((dp13
g8
I1019
sg9
I83
stp14
ssS'com.typemytype.robofont.layerData'
p15
(dp16
S'b'
(dp17
S'name'
p18
S'i'
sS'lib'
p19
(dp20
sS'unicodes'
p21
(tsg9
I537
sS'contours'
p22
(tsS'components'
p23
(tsS'anchors'
p24
(tsss."
HStem: 1019 83<270 297>
VStem: 96 401<0 34 0 34> 239 91<1048.5 1073>
LayerCount: 2
Fore
SplineSet
283 1019 m 256
 257 1019 239 1036 239 1061 c 256
 239 1085 257 1102 283 1102 c 256
 311 1102 330 1085 330 1061 c 256
 330 1036 311 1019 283 1019 c 256
96 0 m 257
 96 34 l 257
 277 34 l 257
 277 770 l 257
 99 770 l 257
 99 804 l 257
 321 804 l 257
 321 646 l 257
 321 34 l 257
 497 34 l 257
 497 0 l 257
 96 0 l 257
EndSplineSet
EndChar

StartChar: infinity
Encoding: 8734 8734 276
Width: 1244
VWidth: 0
Flags: HW
PickledData: "(dp1
S'org.robofab.postScriptHintData'
p2
(dp3
sS'com.fontlab.hintData'
p4
(dp5
S'vhints'
p6
((dp7
S'position'
p8
I137
sS'width'
p9
I55
s(dp10
g8
I1051
sg9
I56
stp11
sS'hhints'
p12
((dp13
g8
I278
sg9
I34
s(dp14
g8
I767
sg9
I35
stp15
ssS'com.typemytype.robofont.layerData'
p16
(dp17
S'b'
(dp18
S'name'
p19
S'infinity'
p20
sS'lib'
p21
(dp22
sS'unicodes'
p23
(tsg9
I1244
sS'contours'
p24
(tsS'components'
p25
(tsS'anchors'
p26
(tsss."
HStem: 278 34<827.5 926> 767 35<827.5 929>
VStem: 137 55<478.5 594.5 478.5 612> 1051 56<470.5 604.5>
LayerCount: 2
Fore
SplineSet
877 312 m 256
 979 312 1051 400 1051 541 c 256
 1051 668 982 767 876 767 c 256
 779 767 707 690 637 539 c 257
 711 374 775 312 877 312 c 256
368 315 m 256
 456 315 531 383 606 544 c 257
 543 688 463 772 366 772 c 256
 244 772 192 646 192 543 c 256
 192 414 252 315 368 315 c 256
872 278 m 256
 783 278 695 321 628 464 c 257
 556 332 464 283 376 283 c 256
 209 283 137 405 137 544 c 256
 137 680 227 805 376 805 c 256
 448 805 553 754 619 624 c 257
 679 735 764 802 873 802 c 256
 985 802 1107 720 1107 539 c 256
 1107 362 980 278 872 278 c 256
EndSplineSet
EndChar

StartChar: integral
Encoding: 8747 8747 277
Width: 600
VWidth: 0
Flags: HW
PickledData: "(dp1
S'org.robofab.postScriptHintData'
p2
(dp3
sS'com.fontlab.hintData'
p4
(dp5
S'vhints'
p6
((dp7
S'position'
p8
I-45
sS'width'
p9
I37
s(dp10
g8
I594
sg9
I37
stp11
sS'hhints'
p12
((dp13
g8
I-83
sg9
I26
stp14
ss."
HStem: -83 26<42.5 99 42.5 109.5>
VStem: -45 37 594 37
LayerCount: 2
Fore
SplineSet
64 -83 m 256
 14 -83 -45 -51 -45 -4 c 256
 -45 12 -38 34 -8 34 c 257
 -3 -18 18 -57 67 -57 c 256
 131 -57 152 -9 168 81 c 258
 346 1034 l 258
 368 1154 433 1198 522 1194 c 256
 572 1192 631 1162 631 1115 c 256
 631 1099 624 1077 594 1077 c 257
 589 1129 568 1165 519 1168 c 256
 457 1172 408 1140 388 1030 c 258
 210 77 l 258
 191 -23 155 -83 64 -83 c 256
EndSplineSet
EndChar

StartChar: j
Encoding: 106 106 280
Width: 398
VWidth: 0
Flags: HW
PickledData: "(dp1
S'org.robofab.postScriptHintData'
p2
(dp3
sS'com.fontlab.hintData'
p4
(dp5
S'vhints'
p6
((dp7
S'position'
p8
I184
sS'width'
p9
I91
stp10
sS'hhints'
p11
((dp12
g8
I1020
sg9
I83
stp13
ssS'com.typemytype.robofont.layerData'
p14
(dp15
S'b'
(dp16
S'name'
p17
S'j'
sS'lib'
p18
(dp19
sS'unicodes'
p20
(tsg9
I398
sS'contours'
p21
(tsS'components'
p22
(tsS'anchors'
p23
(tsss."
HStem: 1020 83<215 242>
VStem: 184 91<1049.5 1074>
LayerCount: 2
Fore
SplineSet
228 1020 m 256
 202 1020 184 1037 184 1062 c 256
 184 1086 202 1103 228 1103 c 256
 256 1103 275 1086 275 1062 c 256
 275 1037 256 1020 228 1020 c 256
23 -240 m 257
 23 -208 l 257
 85 -208 l 258
 228 -208 221 -152 221 -39 c 258
 221 774 l 257
 64 774 l 257
 64 805 l 257
 268 805 l 257
 268 -34 l 258
 268 -101 293 -240 95 -240 c 258
 23 -240 l 257
EndSplineSet
EndChar

StartChar: k
Encoding: 107 107 282
Width: 972
VWidth: 0
Flags: HW
PickledData: "(dp1
S'org.robofab.postScriptHintData'
p2
(dp3
sS'com.typemytype.robofont.guides'
p4
((dp5
S'y'
I421
sS'x'
I474
sS'magnetic'
p6
I5
sS'angle'
p7
I0
sS'isGlobal'
p8
I0
stp9
sS'com.typemytype.robofont.layerData'
p10
(dp11
S'b'
(dp12
S'name'
p13
S'k'
sS'lib'
p14
(dp15
sS'unicodes'
p16
(tsS'width'
p17
I972
sS'contours'
p18
(tsS'components'
p19
(tsS'anchors'
p20
(tsssS'com.fontlab.hintData'
p21
(dp22
S'vhints'
p23
((dp24
S'position'
p25
I63
sg17
I343
stp26
ss."
VStem: 63 343<0 34 0 34>
LayerCount: 2
Fore
SplineSet
723 0 m 257
 256 423 l 257
 256 34 l 257
 406 34 l 257
 406 0 l 257
 63 0 l 257
 63 34 l 257
 212 34 l 257
 212 1140 l 257
 71 1140 l 257
 71 1174 l 257
 256 1174 l 257
 256 423 l 257
 713 770 l 257
 545 770 l 257
 545 804 l 257
 921 804 l 257
 921 770 l 257
 767 770 l 257
 314 419 l 257
 742 34 l 257
 926 34 l 257
 926 0 l 257
 723 0 l 257
EndSplineSet
EndChar

StartChar: kgreenlandic
Encoding: 312 312 284
Width: 927
VWidth: 0
Flags: HW
PickledData: "(dp1
S'org.robofab.postScriptHintData'
p2
(dp3
sS'com.typemytype.robofont.layerData'
p4
(dp5
S'b'
(dp6
S'name'
p7
S'kgreenlandic'
p8
sS'lib'
p9
(dp10
sS'unicodes'
p11
(tsS'width'
p12
I927
sS'contours'
p13
(tsS'components'
p14
(tsS'anchors'
p15
(tsss."
LayerCount: 2
Fore
SplineSet
72 0 m 257
 72 34 l 257
 212 34 l 257
 212 770 l 257
 80 770 l 257
 80 804 l 257
 256 804 l 257
 256 34 l 257
 395 34 l 257
 395 0 l 257
 72 0 l 257
681 0 m 257
 286 413 l 257
 674 770 l 257
 522 770 l 257
 522 804 l 257
 874 804 l 257
 874 770 l 257
 731 770 l 257
 343 411 l 257
 706 34 l 257
 879 34 l 257
 879 0 l 257
 681 0 l 257
EndSplineSet
EndChar

StartChar: l
Encoding: 108 108 285
Width: 445
VWidth: 0
Flags: HW
PickledData: "(dp1
S'org.robofab.postScriptHintData'
p2
(dp3
sS'com.fontlab.hintData'
p4
(dp5
S'vhints'
p6
((dp7
S'position'
p8
I57
sS'width'
p9
I343
stp10
ssS'com.typemytype.robofont.layerData'
p11
(dp12
S'b'
(dp13
S'name'
p14
S'l'
sS'lib'
p15
(dp16
sS'unicodes'
p17
(tsg9
I445
sS'contours'
p18
(tsS'components'
p19
(tsS'anchors'
p20
(tsss."
VStem: 57 343<0 34 0 34>
LayerCount: 2
Fore
SplineSet
57 0 m 257
 57 34 l 257
 206 34 l 257
 206 1140 l 257
 65 1140 l 257
 65 1174 l 257
 250 1174 l 257
 250 34 l 257
 400 34 l 257
 400 0 l 257
 57 0 l 257
EndSplineSet
EndChar

StartChar: less
Encoding: 60 60 290
Width: 896
VWidth: 0
Flags: HW
PickledData: "(dp1
S'org.robofab.postScriptHintData'
p2
(dp3
sS'com.typemytype.robofont.layerData'
p4
(dp5
S'b'
(dp6
S'name'
p7
S'less'
p8
sS'lib'
p9
(dp10
sS'unicodes'
p11
(tsS'width'
p12
I896
sS'contours'
p13
(tsS'components'
p14
(tsS'anchors'
p15
(tsss."
LayerCount: 2
Fore
SplineSet
757 -122 m 257
 -49 559 l 257
 -49 572 l 257
 757 1261 l 257
 757 1205 l 257
 6 566 l 257
 757 -70 l 261
 757 -122 l 257
EndSplineSet
EndChar

StartChar: lessequal
Encoding: 8804 8804 291
Width: 593
VWidth: 0
Flags: HW
PickledData: "(dp1
S'org.robofab.postScriptHintData'
p2
(dp3
sS'com.fontlab.hintData'
p4
(dp5
S'vhints'
p6
((dp7
S'position'
p8
I-4
sS'width'
p9
I611
stp10
ssS'com.typemytype.robofont.layerData'
p11
(dp12
S'b'
(dp13
S'name'
p14
S'lessequal'
p15
sS'lib'
p16
(dp17
sS'unicodes'
p18
(tsg9
I593
sS'contours'
p19
(tsS'components'
p20
(tsS'anchors'
p21
(tsss."
VStem: -4 611<0 33 0 33 0 496 0 519>
LayerCount: 2
Fore
SplineSet
-4 0 m 257
 -4 33 l 257
 607 33 l 257
 607 0 l 257
 -4 0 l 257
607 182 m 257
 -4 496 l 257
 -4 519 l 257
 607 836 l 257
 607 793 l 257
 68 507 l 257
 607 222 l 257
 607 182 l 257
EndSplineSet
EndChar

StartChar: logicalnot
Encoding: 172 172 293
Width: 827
VWidth: 0
Flags: HW
PickledData: "(dp1
S'org.robofab.postScriptHintData'
p2
(dp3
sS'com.fontlab.hintData'
p4
(dp5
S'vhints'
p6
((dp7
S'position'
p8
I101
sS'width'
p9
I635
stp10
sS'hhints'
p11
((dp12
g8
I304
sg9
I335
stp13
ssS'com.typemytype.robofont.layerData'
p14
(dp15
S'b'
(dp16
S'name'
p17
S'logicalnot'
p18
sS'lib'
p19
(dp20
sS'unicodes'
p21
(tsg9
I827
sS'contours'
p22
(tsS'components'
p23
(tsS'anchors'
p24
(tsss."
HStem: 304 335<698 736 101 736>
VStem: 101 635<603 639 603 603>
LayerCount: 2
Fore
SplineSet
698 304 m 257
 698 603 l 257
 101 603 l 257
 101 639 l 257
 736 639 l 257
 736 304 l 257
 698 304 l 257
EndSplineSet
EndChar

StartChar: lozenge
Encoding: 9674 9674 294
Width: 948
VWidth: 0
Flags: HW
PickledData: "(dp1
S'org.robofab.postScriptHintData'
p2
(dp3
sS'com.typemytype.robofont.layerData'
p4
(dp5
S'b'
(dp6
S'name'
p7
S'lozenge'
p8
sS'lib'
p9
(dp10
sS'unicodes'
p11
(tsS'width'
p12
I948
sS'contours'
p13
(tsS'components'
p14
(tsS'anchors'
p15
(tsss."
LayerCount: 2
Fore
SplineSet
477 7 m 257
 851 630 l 257
 477 1254 l 257
 103 630 l 257
 477 7 l 257
455 -32 m 257
 38 628 l 257
 455 1295 l 257
 494 1295 l 257
 910 630 l 257
 494 -32 l 257
 455 -32 l 257
EndSplineSet
EndChar

StartChar: lslash
Encoding: 322 322 295
Width: 445
VWidth: 0
Flags: HW
PickledData: "(dp1
S'org.robofab.postScriptHintData'
p2
(dp3
sS'com.fontlab.hintData'
p4
(dp5
S'vhints'
p6
((dp7
S'position'
p8
I53
sS'width'
p9
I340
s(dp10
g8
I57
sg9
I343
stp11
ssS'com.typemytype.robofont.layerData'
p12
(dp13
S'b'
(dp14
S'name'
p15
S'lslash'
p16
sS'lib'
p17
(dp18
sS'unicodes'
p19
(tsg9
I445
sS'contours'
p20
(tsS'components'
p21
(tsS'anchors'
p22
(tsss."
VStem: 53 340<460 727> 57 343
LayerCount: 2
Fore
SplineSet
53 460 m 257
 52 506 l 257
 393 727 l 257
 393 679 l 257
 53 460 l 257
EndSplineSet
Refer: 285 108 N 1 0 0 1 0 0 2
EndChar

StartChar: m
Encoding: 109 109 296
Width: 1571
VWidth: 0
Flags: HW
PickledData: "(dp1
S'org.robofab.postScriptHintData'
p2
(dp3
sS'com.fontlab.hintData'
p4
(dp5
S'vhints'
p6
((dp7
S'position'
p8
I34
sS'width'
p9
I401
s(dp10
g8
I789
sg9
I44
s(dp11
g8
I1367
sg9
I44
stp12
sS'hhints'
p13
((dp14
g8
I790
sg9
I36
stp15
ssS'com.typemytype.robofont.layerData'
p16
(dp17
S'b'
(dp18
S'name'
p19
S'm'
sS'lib'
p20
(dp21
sS'unicodes'
p22
(tsg9
I1571
sS'contours'
p23
(tsS'components'
p24
(tsS'anchors'
p25
(tsss."
HStem: 790 36<550.413 641.513 546.598 647.5 1126.85 1225.5>
VStem: 34 401<0 34 0 34> 789 44<34 582 582 599.143 34 605 34 582> 1367 44<34 582 582 605 34 582>
LayerCount: 2
Fore
SplineSet
34 0 m 257
 34 34 l 257
 215 34 l 257
 215 662.077 l 258
 214.334 661.719 213.667 661.36 213 661 c 258
 213 694 l 258
 213.666 694.406 214.333 694.811 215 695.215 c 258
 215 770 l 257
 37 770 l 257
 37 804 l 257
 259 804 l 257
 259 720.555 l 257
 378.732 785.987 503.196 826 590 826 c 256
 693.025 826 769.756 781.059 807.298 703.738 c 257
 935.803 779.066 1073.99 826 1168 826 c 256
 1317 826 1411 732 1411 582 c 258
 1411 34 l 257
 1565 34 l 257
 1565 0 l 257
 1187 0 l 257
 1187 34 l 257
 1367 34 l 257
 1367 605 l 258
 1367 719 1288 790 1163 790 c 256
 1090.7 790 960.219 748.565 818.732 675.628 c 257
 828.089 647.647 833 616.286 833 582 c 258
 833 34 l 257
 987 34 l 257
 987 0 l 257
 609 0 l 257
 609 34 l 257
 789 34 l 257
 789 605 l 258
 789 719 710 790 585 790 c 256
 515.825 790 393.382 752.067 259 684.902 c 257
 259 646 l 257
 259 34 l 257
 435 34 l 257
 435 0 l 257
 34 0 l 257
EndSplineSet
EndChar

StartChar: macron
Encoding: 175 175 297
Width: 316
VWidth: 0
Flags: HW
PickledData: "(dp1
S'org.robofab.postScriptHintData'
p2
(dp3
sS'com.fontlab.hintData'
p4
(dp5
S'vhints'
p6
((dp7
S'position'
p8
I-22
sS'width'
p9
I369
stp10
sS'hhints'
p11
((dp12
g8
I918
sg9
I32
stp13
ssS'com.typemytype.robofont.layerData'
p14
(dp15
S'b'
(dp16
S'name'
p17
S'macron'
p18
sS'lib'
p19
(dp20
sS'unicodes'
p21
(tsg9
I316
sS'contours'
p22
(tsS'components'
p23
(tsS'anchors'
p24
(tsss."
HStem: 918 32<-22 347 -22 347>
VStem: -22 369<918 950 918 950>
LayerCount: 2
Fore
SplineSet
-22 918 m 257
 -22 950 l 257
 347 950 l 257
 347 918 l 257
 -22 918 l 257
EndSplineSet
EndChar

StartChar: minus
Encoding: 8722 8722 299
Width: 912
VWidth: 0
Flags: HW
PickledData: "(dp1
S'org.robofab.postScriptHintData'
p2
(dp3
sS'com.fontlab.hintData'
p4
(dp5
S'hhints'
p6
((dp7
S'position'
p8
I569
sS'width'
p9
I47
stp10
ssS'com.typemytype.robofont.layerData'
p11
(dp12
S'b'
(dp13
S'name'
p14
S'minus'
p15
sS'lib'
p16
(dp17
sS'unicodes'
p18
(tsg9
I912
sS'contours'
p19
(tsS'components'
p20
(tsS'anchors'
p21
(tsss."
HStem: 569 47<100 812 100 812>
LayerCount: 2
Fore
SplineSet
100 569 m 257
 100 616 l 257
 812 616 l 257
 812 569 l 257
 100 569 l 257
EndSplineSet
EndChar

StartChar: mu
Encoding: 956 956 300
Width: 1025
VWidth: 0
Flags: HW
PickledData: "(dp1
S'org.robofab.postScriptHintData'
p2
(dp3
sS'com.fontlab.hintData'
p4
(dp5
S'vhints'
p6
((dp7
S'position'
p8
I199
sS'width'
p9
I44
s(dp10
g8
I782
sg9
I44
stp11
sS'hhints'
p12
((dp13
g8
I-22
sg9
I34
stp14
ss."
HStem: -22 34
VStem: 199 44<-313 377 -313 377> 782 44
LayerCount: 2
Fore
SplineSet
199 -313 m 257
 199 377 l 257
 243 377 l 257
 243 -313 l 257
 199 -313 l 257
EndSplineSet
Refer: 392 117 N 1 0 0 1 0 0 2
EndChar

StartChar: multiply
Encoding: 215 215 301
Width: 520
VWidth: 0
Flags: HW
PickledData: "(dp1
S'org.robofab.postScriptHintData'
p2
(dp3
sS'com.typemytype.robofont.layerData'
p4
(dp5
S'b'
(dp6
S'name'
p7
S'multiply'
p8
sS'lib'
p9
(dp10
sS'unicodes'
p11
(tsS'width'
p12
I520
sS'contours'
p13
(tsS'components'
p14
(tsS'anchors'
p15
(tsss."
LayerCount: 2
Fore
SplineSet
467 387 m 257
 266 589 l 257
 65 388 l 257
 37 417 l 257
 237 617 l 257
 37 818 l 257
 66 846 l 257
 266 647 l 257
 467 849 l 257
 495 819 l 257
 297 617 l 257
 495 415 l 257
 467 387 l 257
EndSplineSet
EndChar

StartChar: n
Encoding: 110 110 302
Width: 1010
VWidth: 0
Flags: HW
PickledData: "(dp1
S'org.robofab.postScriptHintData'
p2
(dp3
sS'com.fontlab.hintData'
p4
(dp5
S'vhints'
p6
((dp7
S'position'
p8
I34
sS'width'
p9
I401
s(dp10
g8
I806
sg9
I44
stp11
sS'hhints'
p12
((dp13
g8
I790
sg9
I36
stp14
ssS'com.typemytype.robofont.layerData'
p15
(dp16
S'b'
(dp17
S'name'
p18
S'n'
sS'lib'
p19
(dp20
sS'unicodes'
p21
(tsg9
I1010
sS'contours'
p22
(tsS'components'
p23
(tsS'anchors'
p24
(tsss."
HStem: 790 36<565.959 664.5>
VStem: 34 401<0 34 0 34> 806 44<34 582 582 605 34 582>
LayerCount: 2
Fore
SplineSet
34 0 m 257
 34 34 l 257
 215 34 l 257
 215 770 l 257
 37 770 l 257
 37 804 l 257
 259 804 l 257
 259 711.074 l 257
 383.841 782.101 516.078 826 607 826 c 256
 756 826 850 732 850 582 c 258
 850 34 l 257
 1004 34 l 257
 1004 0 l 257
 626 0 l 257
 626 34 l 257
 806 34 l 257
 806 605 l 258
 806 719 727 790 602 790 c 256
 529.918 790 399.998 748.812 259 676.281 c 257
 259 646 l 257
 259 34 l 257
 435 34 l 257
 435 0 l 257
 34 0 l 257
EndSplineSet
EndChar

StartChar: nine
Encoding: 57 57 307
Width: 830
VWidth: 0
Flags: HW
PickledData: "(dp1
S'org.robofab.postScriptHintData'
p2
(dp3
sS'com.fontlab.hintData'
p4
(dp5
S'vhints'
p6
((dp7
S'position'
p8
I67
sS'width'
p9
I42
s(dp10
g8
I738
sg9
I42
stp11
sS'hhints'
p12
((dp13
g8
I489
sg9
I32
s(dp14
g8
I1142
sg9
I32
stp15
ssS'com.typemytype.robofont.layerData'
p16
(dp17
S'b'
(dp18
S'name'
p19
S'nine'
p20
sS'lib'
p21
(dp22
sS'unicodes'
p23
(tsg9
I830
sS'contours'
p24
(tsS'components'
p25
(tsS'anchors'
p26
(tsss."
HStem: 489 32<327.5 456> 1142 32<332 521>
VStem: 67 42<736.5 927 736.5 937> 738 42<776.5 932>
LayerCount: 2
Fore
SplineSet
424 521 m 256
 580 521 738 638 738 845 c 256
 738 1019 611 1142 431 1142 c 256
 233 1142 109 1022 109 832 c 256
 109 641 231 521 424 521 c 256
332 -76 m 257
 290 -56 l 257
 665 580 l 257
 604 515 488 489 424 489 c 256
 205 489 67 621 67 832 c 256
 67 1042 207 1174 431 1174 c 256
 635 1174 780 1038 780 845 c 256
 780 708 724 604 695 554 c 258
 332 -76 l 257
EndSplineSet
EndChar

StartChar: notequal
Encoding: 8800 8800 309
Width: 793
VWidth: 0
Flags: HW
PickledData: "(dp1
S'org.robofab.postScriptHintData'
p2
(dp3
sS'com.fontlab.hintData'
p4
(dp5
S'hhints'
p6
((dp7
S'position'
p8
I88
sS'width'
p9
I652
stp10
ssS'com.typemytype.robofont.layerData'
p11
(dp12
S'b'
(dp13
S'name'
p14
S'notequal'
p15
sS'lib'
p16
(dp17
sS'unicodes'
p18
(tsg9
I793
sS'contours'
p19
(tsS'components'
p20
(tsS'anchors'
p21
(tsss."
HStem: 88 652<298 502 330 502>
LayerCount: 2
Fore
SplineSet
298 88 m 257
 347 269 l 257
 90 269 l 257
 90 296 l 257
 355 296 l 257
 416 529 l 257
 80 529 l 257
 80 561 l 257
 425 561 l 257
 474 740 l 257
 502 740 l 257
 454 561 l 257
 713 561 l 257
 713 529 l 257
 447 529 l 257
 386 296 l 257
 723 296 l 257
 723 269 l 257
 378 269 l 257
 330 88 l 257
 298 88 l 257
EndSplineSet
EndChar

StartChar: numbersign
Encoding: 35 35 311
Width: 917
VWidth: 0
Flags: HW
PickledData: "(dp1
S'org.robofab.postScriptHintData'
p2
(dp3
sS'com.fontlab.hintData'
p4
(dp5
S'hhints'
p6
((dp7
S'position'
p8
I815
sS'width'
p9
I21
stp10
ssS'com.typemytype.robofont.layerData'
p11
(dp12
S'b'
(dp13
S'name'
p14
S'numbersign'
p15
sS'lib'
p16
(dp17
sS'unicodes'
p18
(tsg9
I917
sS'contours'
p19
(tsS'components'
p20
(tsS'anchors'
p21
(tsss."
HStem: 815 21<98 242 98 98 296 644 296 296 698 865 698 698>
LayerCount: 2
Fore
SplineSet
269 421 m 257
 617 421 l 257
 645 782 l 257
 298 782 l 257
 269 421 l 257
196 0 m 257
 226 388 l 257
 56 388 l 257
 59 421 l 257
 227 421 l 257
 253 782 l 257
 96 782 l 257
 98 815 l 257
 252 815 l 257
 276 1147 l 257
 321 1147 l 257
 296 815 l 257
 644 815 l 257
 668 1147 l 257
 709 1147 l 261
 686 815 l 261
 865 815 l 257
 863 782 l 257
 687 782 l 261
 659 421 l 261
 826 421 l 257
 825 388 l 257
 658 388 l 261
 629 0 l 261
 586 0 l 257
 617 388 l 257
 270 388 l 257
 241 0 l 257
 196 0 l 257
EndSplineSet
EndChar

StartChar: o
Encoding: 111 111 312
Width: 986
VWidth: 0
Flags: HW
PickledData: "(dp1
S'org.robofab.postScriptHintData'
p2
(dp3
sS'com.fontlab.hintData'
p4
(dp5
S'vhints'
p6
((dp7
S'position'
p8
I63
sS'width'
p9
I42
s(dp10
g8
I881
sg9
I42
stp11
sS'hhints'
p12
((dp13
g8
I-22
sg9
I34
s(dp14
g8
I792
sg9
I34
stp15
ssS'com.typemytype.robofont.layerData'
p16
(dp17
S'b'
(dp18
S'name'
p19
S'o'
sS'lib'
p20
(dp21
sS'unicodes'
p22
(tsg9
I986
sS'contours'
p23
(tsS'components'
p24
(tsS'anchors'
p25
(tsss."
HStem: -22 34<378 605 378 617.5> 792 34<378 605>
VStem: 63 42<291.5 520 291.5 529.5> 881 42<292 520.5>
LayerCount: 2
Fore
SplineSet
491 12 m 256
 719 12 881 176 881 408 c 256
 881 633 719 792 491 792 c 256
 265 792 105 633 105 407 c 256
 105 176 265 12 491 12 c 256
491 -22 m 256
 240 -22 63 155 63 407 c 256
 63 652 240 826 491 826 c 256
 744 826 923 653 923 408 c 256
 923 156 744 -22 491 -22 c 256
EndSplineSet
EndChar

StartChar: oe
Encoding: 339 339 317
Width: 1793
VWidth: 0
Flags: HW
PickledData: "(dp1
S'org.robofab.postScriptHintData'
p2
(dp3
sS'com.fontlab.hintData'
p4
(dp5
S'vhints'
p6
((dp7
S'position'
p8
I63
sS'width'
p9
I42
s(dp10
g8
I881
sg9
I44
stp11
sS'hhints'
p12
((dp13
g8
I-22
sg9
I34
s(dp14
g8
I792
sg9
I34
stp15
ssS'com.typemytype.robofont.layerData'
p16
(dp17
S'b'
(dp18
S'name'
p19
S'oe'
p20
sS'lib'
p21
(dp22
sS'unicodes'
p23
(tsg9
I1793
sS'contours'
p24
(tsS'components'
p25
(tsS'anchors'
p26
(tsss."
HStem: -22 34<378 591.5 1215 1362.5> 792 34<378 591.5 365.5 605 1204 1370>
VStem: 63 42<291.5 520 291.5 529.5> 881 44<390 390 390 520.5>
LayerCount: 2
Fore
SplineSet
924 424 m 257
 1638 424 l 257
 1614 678 1456 792 1284 792 c 256
 1091 792 931 649 924 424 c 257
491 12 m 256
 719 12 881 176 881 408 c 256
 881 633 719 792 491 792 c 256
 265 792 105 633 105 407 c 256
 105 176 265 12 491 12 c 256
491 -22 m 256
 240 -22 63 155 63 407 c 256
 63 652 240 826 491 826 c 256
 692 826 847 716 902 548 c 257
 958 734 1124 826 1284 826 c 256
 1460 826 1670 718 1678 390 c 257
 925 390 l 257
 936 140 1123 12 1303 12 c 256
 1432 12 1576 81 1645 166 c 257
 1658 129 l 257
 1553 25 1422 -22 1303 -22 c 256
 1127 -22 959 80 901 264 c 257
 847 91 692 -22 491 -22 c 256
EndSplineSet
EndChar

StartChar: ogonek
Encoding: 731 731 318
Width: 390
VWidth: 0
Flags: HW
PickledData: "(dp1
S'org.robofab.postScriptHintData'
p2
(dp3
sS'com.fontlab.hintData'
p4
(dp5
S'vhints'
p6
((dp7
S'position'
p8
I107
sS'width'
p9
I48
stp10
sS'hhints'
p11
((dp12
g8
I-308
sg9
I36
stp13
ssS'com.typemytype.robofont.layerData'
p14
(dp15
S'b'
(dp16
S'name'
p17
S'ogonek'
p18
sS'lib'
p19
(dp20
sS'unicodes'
p21
(tsg9
I390
sS'contours'
p22
(tsS'components'
p23
(tsS'anchors'
p24
(tsss."
HStem: -308 36<222.5 252.5>
VStem: 107 48<-208.5 -163>
LayerCount: 2
Fore
SplineSet
234 -308 m 256
 167 -308 107 -268 107 -192 c 256
 107 -134 151 -62 232 0 c 257
 263 0 l 257
 194 -61 155 -127 155 -177 c 256
 155 -240 197 -272 248 -272 c 256
 280 -272 315 -259 345 -235 c 257
 345 -270 l 257
 312 -295 271 -308 234 -308 c 256
EndSplineSet
EndChar

StartChar: one
Encoding: 49 49 322
Width: 559
VWidth: 0
Flags: HW
PickledData: "(dp1
S'org.robofab.postScriptHintData'
p2
(dp3
sS'com.fontlab.hintData'
p4
(dp5
S'vhints'
p6
((dp7
S'position'
p8
I126
sS'width'
p9
I368
stp10
ssS'com.typemytype.robofont.layerData'
p11
(dp12
S'b'
(dp13
S'name'
p14
S'one'
p15
sS'lib'
p16
(dp17
sS'unicodes'
p18
(tsg9
I559
sS'contours'
p19
(tsS'components'
p20
(tsS'anchors'
p21
(tsss."
VStem: 126 368<0 34 0 34>
LayerCount: 2
Fore
SplineSet
126 0 m 257
 126 34 l 257
 290 34 l 257
 290 1104 l 257
 147 1058 l 257
 133 1091 l 257
 334 1154 l 257
 334 34 l 257
 494 34 l 257
 494 0 l 257
 126 0 l 257
EndSplineSet
EndChar

StartChar: onehalf
Encoding: 189 189 323
Width: 1651
VWidth: 0
Flags: HW
PickledData: "(dp1
S'org.robofab.postScriptHintData'
p2
(dp3
sS'com.fontlab.hintData'
p4
(dp5
S'vhints'
p6
((dp7
S'position'
p8
I1040
sS'width'
p9
I38
s(dp10
g8
I1502
sg9
I39
stp11
sS'hhints'
p12
((dp13
g8
I761
sg9
I34
stp14
ss."
HStem: 761 34<1219.5 1354.5>
VStem: 1040 38<537 605 535.5 615> 1502 39<533.5 642.5>
LayerCount: 2
Fore
SplineSet
351 0 m 257
 1128 1152 l 257
 1167 1152 l 257
 393 0 l 257
 351 0 l 257
114 366 m 257
 114 400 l 257
 235 400 l 257
 235 1118 l 257
 115 1118 l 257
 114 1152 l 257
 273 1152 l 257
 273 400 l 257
 395 400 l 257
 395 366 l 257
 114 366 l 257
1049 0 m 257
 1049 34 l 257
 1365 336 l 258
 1468 434 1502 481 1502 586 c 256
 1502 699 1416 761 1293 761 c 256
 1146 761 1078 663 1078 547 c 256
 1078 524 1081 500 1087 476 c 257
 1048 476 l 257
 1043 501 1040 525 1040 549 c 256
 1040 681 1120 795 1293 795 c 256
 1429 795 1541 726 1541 584 c 256
 1541 475 1489 403 1386 305 c 258
 1102 34 l 257
 1528 34 l 257
 1527 179 l 257
 1563 179 l 257
 1563 0 l 257
 1049 0 l 257
EndSplineSet
EndChar

StartChar: onequarter
Encoding: 188 188 324
Width: 1395
VWidth: 0
Flags: HW
PickledData: "(dp1
S'org.robofab.postScriptHintData'
p2
(dp3
sS'com.typemytype.robofont.layerData'
p4
(dp5
S'b'
(dp6
S'name'
p7
S'onequarter'
p8
sS'lib'
p9
(dp10
sS'unicodes'
p11
(tsS'width'
p12
I1395
sS'contours'
p13
(tsS'components'
p14
(tsS'anchors'
p15
(tsss."
LayerCount: 2
Fore
SplineSet
890 296 m 257
 1208 296 l 257
 1208 759 l 257
 890 296 l 257
339 0 m 257
 1116 1152 l 257
 1155 1152 l 257
 381 0 l 257
 339 0 l 257
113 366 m 257
 113 400 l 257
 234 400 l 257
 234 1118 l 257
 114 1118 l 257
 113 1152 l 257
 272 1152 l 257
 272 400 l 257
 394 400 l 257
 394 366 l 257
 113 366 l 257
1088 0 m 257
 1088 34 l 257
 1208 34 l 257
 1208 262 l 257
 852 262 l 257
 839 286 l 257
 1197 804 l 257
 1246 804 l 257
 1246 296 l 257
 1353 296 l 257
 1353 262 l 257
 1246 262 l 257
 1246 34 l 257
 1355 34 l 257
 1355 0 l 257
 1088 0 l 257
EndSplineSet
EndChar

StartChar: onesuperior
Encoding: 185 185 325
Width: 531
VWidth: 0
Flags: HW
PickledData: "(dp1
S'org.robofab.postScriptHintData'
p2
(dp3
sS'com.fontlab.hintData'
p4
(dp5
S'vhints'
p6
((dp7
S'position'
p8
I131
sS'width'
p9
I281
stp10
ssS'com.typemytype.robofont.layerData'
p11
(dp12
S'b'
(dp13
S'name'
p14
S'uni00B9'
p15
sS'lib'
p16
(dp17
sS'unicodes'
p18
(tsg9
I531
sS'contours'
p19
(tsS'components'
p20
(tsS'anchors'
p21
(tsss."
VStem: 131 281<550 584 550 584>
LayerCount: 2
Fore
SplineSet
131 550 m 257
 131 584 l 257
 252 584 l 257
 252 1262 l 257
 146 1237 l 257
 135 1273 l 257
 296 1308 l 257
 296 584 l 257
 412 584 l 257
 412 550 l 257
 131 550 l 257
EndSplineSet
EndChar

StartChar: ordfeminine
Encoding: 170 170 326
Width: 801
VWidth: 0
Flags: HW
PickledData: "(dp1
S'org.robofab.postScriptHintData'
p2
(dp3
sS'com.fontlab.hintData'
p4
(dp5
S'vhints'
p6
((dp7
S'position'
p8
I128
sS'width'
p9
I44
s(dp10
g8
I554
sg9
I44
stp11
sS'hhints'
p12
((dp13
g8
I572
sg9
I36
s(dp14
g8
I875
sg9
I35
s(dp15
g8
I1138
sg9
I36
stp16
ssS'com.typemytype.robofont.layerData'
p17
(dp18
S'b'
(dp19
S'name'
p20
S'ordfeminine'
p21
sS'lib'
p22
(dp23
sS'unicodes'
p24
(tsg9
I801
sS'contours'
p25
(tsS'components'
p26
(tsS'anchors'
p27
(tsss."
HStem: 572 36<277.5 368.5> 875 35<318 398 304 403> 1138 36<344 441>
VStem: 128 44<704 796.5 704 811.5> 554 44<645 645 685 862 685 685 893 893 893 979>
LayerCount: 2
Fore
SplineSet
331 608 m 256
 410 608 496 634 554 685 c 257
 554 862 l 257
 494 868 431 875 375 875 c 256
 261 875 172 849 172 744 c 256
 172 664 224 608 331 608 c 256
331 572 m 256
 189 572 128 655 128 745 c 256
 128 878 243 910 365 910 c 256
 431 910 500 901 554 893 c 257
 554 979 l 258
 554 1086 500 1138 382 1138 c 256
 306 1138 233 1121 177 1076 c 257
 156 1109 l 257
 222 1158 298 1174 378 1174 c 256
 570 1174 598 1056 598 990 c 258
 598 616 l 257
 702 616 l 257
 702 580 l 257
 555 580 l 257
 554 645 l 257
 504 604 406 572 331 572 c 256
EndSplineSet
EndChar

StartChar: ordmasculine
Encoding: 186 186 327
Width: 806
VWidth: 0
Flags: HW
PickledData: "(dp1
S'org.robofab.postScriptHintData'
p2
(dp3
sS'com.fontlab.hintData'
p4
(dp5
S'vhints'
p6
((dp7
S'position'
p8
I104
sS'width'
p9
I44
s(dp10
g8
I658
sg9
I44
stp11
sS'hhints'
p12
((dp13
g8
I562
sg9
I36
s(dp14
g8
I1138
sg9
I36
stp15
ssS'com.typemytype.robofont.layerData'
p16
(dp17
S'b'
(dp18
S'name'
p19
S'ordmasculine'
p20
sS'lib'
p21
(dp22
sS'unicodes'
p23
(tsg9
I806
sS'contours'
p24
(tsS'components'
p25
(tsS'anchors'
p26
(tsss."
HStem: 562 36<338.5 467.5 338.5 482> 1138 36<338.5 467.5>
VStem: 104 44<772.5 963.5 772.5 971.5> 658 44<772.5 963.5>
LayerCount: 2
Fore
SplineSet
403 598 m 256
 532 598 658 677 658 868 c 256
 658 1059 532 1138 403 1138 c 256
 274 1138 148 1059 148 868 c 256
 148 677 274 598 403 598 c 256
403 562 m 256
 245 562 104 661 104 868 c 256
 104 1075 245 1174 403 1174 c 256
 561 1174 702 1075 702 868 c 256
 702 661 561 562 403 562 c 256
EndSplineSet
EndChar

StartChar: oslash
Encoding: 248 248 328
Width: 1023
VWidth: 0
Flags: HW
PickledData: "(dp1
S'org.robofab.postScriptHintData'
p2
(dp3
sS'com.fontlab.hintData'
p4
(dp5
S'vhints'
p6
((dp7
S'position'
p8
I63
sS'width'
p9
I42
s(dp10
g8
I881
sg9
I42
stp11
sS'hhints'
p12
((dp13
g8
I-22
sg9
I34
s(dp14
g8
I792
sg9
I34
stp15
ssS'com.typemytype.robofont.layerData'
p16
(dp17
S'b'
(dp18
S'name'
p19
S'oslash'
p20
sS'lib'
p21
(dp22
sS'unicodes'
p23
(tsg9
I1023
sS'contours'
p24
(tsS'components'
p25
(tsS'anchors'
p26
(tsss."
HStem: -22 34 792 34
VStem: 63 42 881 42
LayerCount: 2
Fore
SplineSet
187 -193 m 257
 168 -176 l 257
 870 995 l 257
 890 979 l 257
 187 -193 l 257
EndSplineSet
Refer: 312 111 N 1 0 0 1 0 0 2
EndChar

StartChar: p
Encoding: 112 112 331
Width: 1037
VWidth: 0
Flags: HW
PickledData: "(dp1
S'org.robofab.postScriptHintData'
p2
(dp3
sS'com.fontlab.hintData'
p4
(dp5
S'vhints'
p6
((dp7
S'position'
p8
I65
sS'width'
p9
I318
s(dp10
g8
I932
sg9
I42
stp11
sS'hhints'
p12
((dp13
g8
I-22
sg9
I34
s(dp14
g8
I792
sg9
I34
stp15
ssS'com.typemytype.robofont.layerData'
p16
(dp17
S'b'
(dp18
S'name'
p19
S'p'
sS'lib'
p20
(dp21
sS'unicodes'
p22
(tsg9
I1037
sS'contours'
p23
(tsS'components'
p24
(tsS'anchors'
p25
(tsss."
HStem: -22 34<493.361 664 493.361 675> 792 34<512.315 675>
VStem: 65 318<-316 -282 -316 -282> 932 42<400 400>
LayerCount: 2
Fore
SplineSet
65 -316 m 257
 65 -282 l 257
 205 -282 l 257
 205 770 l 257
 81 770 l 257
 81 804 l 257
 249 804 l 257
 249.753 712.096 l 257
 341.795 782.402 459.362 826 561 826 c 256
 820 826 979 662 974 400 c 256
 970 141 805 -22 545 -22 c 256
 440.114 -22 329.505 23.7834 249.395 99.087 c 257
 249 -282 l 257
 383 -282 l 257
 383 -316 l 257
 65 -316 l 257
249.438 140.171 m 257
 331.056 60.4245 441.721 12 545 12 c 256
 783 12 932 162 932 400 c 256
 932 641 789 792 561 792 c 256
 463.63 792 346.009 747.279 249.993 674.889 c 257
 249.438 140.171 l 257
EndSplineSet
EndChar

StartChar: paragraph
Encoding: 182 182 332
Width: 953
VWidth: 0
Flags: HW
PickledData: "(dp1
S'org.robofab.postScriptHintData'
p2
(dp3
sS'com.fontlab.hintData'
p4
(dp5
S'vhints'
p6
((dp7
S'position'
p8
I115
sS'width'
p9
I362
stp10
ssS'com.typemytype.robofont.layerData'
p11
(dp12
S'b'
(dp13
S'name'
p14
S'paragraph'
p15
sS'lib'
p16
(dp17
sS'unicodes'
p18
(tsg9
I953
sS'contours'
p19
(tsS'components'
p20
(tsS'anchors'
p21
(tsss."
VStem: 115 362<878 976.5>
LayerCount: 2
Fore
SplineSet
477 737 m 257
 654 737 l 257
 654 1123 l 257
 477 1123 l 257
 477 737 l 257
488 -19 m 257
 488 16 l 257
 654 16 l 257
 654 690 l 257
 414 690 l 258
 205 688 115 826 115 930 c 256
 115 1023 207 1152 406 1152 c 258
 860 1152 l 257
 860 1123 l 257
 698 1123 l 257
 698 16 l 257
 837 16 l 257
 837 -19 l 257
 488 -19 l 257
EndSplineSet
EndChar

StartChar: parenleft
Encoding: 40 40 333
Width: 500
VWidth: 0
Flags: HW
PickledData: "(dp1
S'org.robofab.postScriptHintData'
p2
(dp3
sS'com.fontlab.hintData'
p4
(dp5
S'vhints'
p6
((dp7
S'position'
p8
I97
sS'width'
p9
I43
stp10
ssS'com.typemytype.robofont.layerData'
p11
(dp12
S'b'
(dp13
S'name'
p14
S'parenleft'
p15
sS'lib'
p16
(dp17
sS'unicodes'
p18
(tsg9
I500
sS'contours'
p19
(tsS'components'
p20
(tsS'anchors'
p21
(tsss."
VStem: 97 43<399.5 662.5 399.5 668>
LayerCount: 2
Fore
SplineSet
474 -114 m 257
 223 -28 97 250 97 529 c 256
 97 807 223 1086 474 1174 c 257
 476 1149 l 257
 252 1057 140 794 140 531 c 256
 140 268 252 5 476 -88 c 257
 474 -114 l 257
EndSplineSet
EndChar

StartChar: parenright
Encoding: 41 41 334
Width: 501
VWidth: 0
Flags: HW
PickledData: "(dp1
S'org.robofab.postScriptHintData'
p2
(dp3
sS'com.fontlab.hintData'
p4
(dp5
S'vhints'
p6
((dp7
S'position'
p8
I419
sS'width'
p9
I43
stp10
ssS'com.typemytype.robofont.layerData'
p11
(dp12
S'b'
(dp13
S'name'
p14
S'parenright'
p15
sS'lib'
p16
(dp17
sS'unicodes'
p18
(tsg9
I501
sS'contours'
p19
(tsS'components'
p20
(tsS'anchors'
p21
(tsss."
VStem: 419 43<399.5 662.5>
LayerCount: 2
Fore
SplineSet
84 -114 m 257
 82 -88 l 257
 306 5 419 268 419 531 c 256
 419 794 306 1057 82 1149 c 257
 84 1174 l 257
 336 1086 462 807 462 529 c 256
 462 250 336 -28 84 -114 c 257
EndSplineSet
EndChar

StartChar: partialdiff
Encoding: 8706 8706 335
Width: 1018
VWidth: 0
Flags: HW
PickledData: "(dp1
S'org.robofab.postScriptHintData'
p2
(dp3
sS'com.fontlab.hintData'
p4
(dp5
S'vhints'
p6
((dp7
S'position'
p8
I140
sS'width'
p9
I40
s(dp10
g8
I266
sg9
I34
s(dp11
g8
I816
sg9
I27
stp12
sS'hhints'
p13
((dp14
g8
I-22
sg9
I31
s(dp15
g8
I661
sg9
I33
s(dp16
g8
I1132
sg9
I34
stp17
ss."
HStem: -22 31<321 529.5 321 568> 661 33<416 627.928 410 631> 1132 34<445 584.351>
VStem: 140 40<178 307 178 323> 266 34<999 1033 971 1062> 816 27
LayerCount: 2
Fore
SplineSet
410 9 m 256
 649 9 785 259 809 507 c 257
 786 600 702 661 560 661 c 256
 272 661 180 378 180 236 c 256
 180 120 232 9 410 9 c 256
401 -22 m 256
 205 -22 140 100 140 236 c 256
 140 410 259 694 561 694 c 256
 694.857 694 784.712 629.116 815.752 565.686 c 257
 809.13 1021.57 670.701 1132 498 1132 c 256
 392 1132 300 1095 300 971 c 257
 284 971 266 978 266 1020 c 256
 266 1104 357 1166 496 1166 c 256
 729 1166 843 954 843 626 c 256
 843 335 735 -22 401 -22 c 256
EndSplineSet
EndChar

StartChar: percent
Encoding: 37 37 337
Width: 1578
VWidth: 0
Flags: HW
PickledData: "(dp1
S'org.robofab.postScriptHintData'
p2
(dp3
sS'com.fontlab.hintData'
p4
(dp5
S'vhints'
p6
((dp7
S'position'
p8
I111
sS'width'
p9
I42
s(dp10
g8
I629
sg9
I42
s(dp11
g8
I924
sg9
I42
s(dp12
g8
I1442
sg9
I42
stp13
sS'hhints'
p14
((dp15
g8
I-22
sg9
I35
s(dp16
g8
I483
sg9
I33
s(dp17
g8
I636
sg9
I35
s(dp18
g8
I1141
sg9
I33
stp19
ssS'com.typemytype.robofont.layerData'
p20
(dp21
S'b'
(dp22
S'name'
p23
S'percent'
p24
sS'lib'
p25
(dp26
sS'unicodes'
p27
(tsg9
I1578
sS'contours'
p28
(tsS'components'
p29
(tsS'anchors'
p30
(tsss."
HStem: -22 35<1133.5 1273 1133.5 1285.5> 483 33<1133.5 1273> 636 35<320.5 460 320.5 472.5> 1141 33<320.5 460>
VStem: 111 42<838 975.5 838 985> 629 42<838 975.5> 924 42<180 317.5 180 327> 1442 42<180 317.5>
LayerCount: 2
Fore
SplineSet
1203 -22 m 256
 1040 -22 924 90 924 249 c 256
 924 405 1040 516 1203 516 c 256
 1368 516 1484 405 1484 249 c 256
 1484 90 1368 -22 1203 -22 c 256
1203 13 m 256
 1343 13 1442 111 1442 249 c 256
 1442 386 1343 483 1203 483 c 256
 1064 483 966 386 966 249 c 256
 966 111 1064 13 1203 13 c 256
303 -36 m 257
 274 -11 l 257
 1299 1222 l 257
 1324 1203 l 257
 303 -36 l 257
390 636 m 256
 227 636 111 748 111 907 c 256
 111 1063 227 1174 390 1174 c 256
 555 1174 671 1063 671 907 c 256
 671 748 555 636 390 636 c 256
390 671 m 256
 530 671 629 769 629 907 c 256
 629 1044 530 1141 390 1141 c 256
 251 1141 153 1044 153 907 c 256
 153 769 251 671 390 671 c 256
EndSplineSet
EndChar

StartChar: period
Encoding: 46 46 338
Width: 452
VWidth: 0
Flags: HW
PickledData: "(dp1
S'org.robofab.postScriptHintData'
p2
(dp3
sS'com.fontlab.hintData'
p4
(dp5
S'vhints'
p6
((dp7
S'position'
p8
I197
sS'width'
p9
I71
stp10
sS'hhints'
p11
((dp12
g8
I0
sg9
I84
stp13
ssS'com.typemytype.robofont.layerData'
p14
(dp15
S'b'
(dp16
S'name'
p17
S'period'
p18
sS'lib'
p19
(dp20
sS'unicodes'
p21
(tsg9
I452
sS'contours'
p22
(tsS'components'
p23
(tsS'anchors'
p24
(tsss."
HStem: 0 84<197 268 197 268>
VStem: 197 71<0 84 0 84>
LayerCount: 2
Fore
SplineSet
197 0 m 257
 197 84 l 257
 268 84 l 257
 268 0 l 257
 197 0 l 257
EndSplineSet
EndChar

StartChar: periodcentered
Encoding: 183 183 339
Width: 453
VWidth: 0
Flags: HW
PickledData: "(dp1
S'org.robofab.postScriptHintData'
p2
(dp3
sS'com.fontlab.hintData'
p4
(dp5
S'vhints'
p6
((dp7
S'position'
p8
I192
sS'width'
p9
I91
stp10
sS'hhints'
p11
((dp12
g8
I512
sg9
I83
stp13
ssS'com.typemytype.robofont.layerData'
p14
(dp15
S'b'
(dp16
S'name'
p17
S'periodcentered'
p18
sS'lib'
p19
(dp20
sS'unicodes'
p21
(tsg9
I453
sS'contours'
p22
(tsS'components'
p23
(tsS'anchors'
p24
(tsss."
HStem: 512 83<223 250>
VStem: 192 91<541.5 566>
LayerCount: 2
Fore
SplineSet
236 512 m 256
 210 512 192 529 192 554 c 256
 192 578 210 595 236 595 c 256
 264 595 283 578 283 554 c 256
 283 529 264 512 236 512 c 256
EndSplineSet
EndChar

StartChar: perthousand
Encoding: 8240 8240 340
Width: 2272
VWidth: 0
Flags: HW
PickledData: "(dp1
S'org.robofab.postScriptHintData'
p2
(dp3
sS'com.fontlab.hintData'
p4
(dp5
S'vhints'
p6
((dp7
S'position'
p8
I111
sS'width'
p9
I42
s(dp10
g8
I629
sg9
I42
s(dp11
g8
I924
sg9
I42
s(dp12
g8
I1442
sg9
I42
s(dp13
g8
I1625
sg9
I42
s(dp14
g8
I2143
sg9
I42
stp15
sS'hhints'
p16
((dp17
g8
I-22
sg9
I35
s(dp18
g8
I483
sg9
I33
s(dp19
g8
I636
sg9
I35
s(dp20
g8
I1141
sg9
I33
stp21
ss."
HStem: -22 35<1834.5 1974 1834.5 1986.5> 483 33<1834.5 1974> 636 35 1141 33
VStem: 111 42 629 42 924 42 1442 42 1625 42<180 317.5 180 327> 2143 42<180 317.5>
LayerCount: 2
Fore
SplineSet
1904 13 m 256
 2044 13 2143 111 2143 249 c 256
 2143 386 2044 483 1904 483 c 256
 1765 483 1667 386 1667 249 c 256
 1667 111 1765 13 1904 13 c 256
1904 -22 m 256
 1741 -22 1625 90 1625 249 c 256
 1625 405 1741 516 1904 516 c 256
 2069 516 2185 405 2185 249 c 256
 2185 90 2069 -22 1904 -22 c 256
EndSplineSet
Refer: 337 37 N 1 0 0 1 0 0 2
EndChar

StartChar: pi
Encoding: 960 960 341
Width: 1111
VWidth: 0
Flags: HW
PickledData: "(dp1
S'org.robofab.postScriptHintData'
p2
(dp3
sS'com.fontlab.hintData'
p4
(dp5
S'vhints'
p6
((dp7
S'position'
p8
I171
sS'width'
p9
I33
s(dp10
g8
I731
sg9
I46
stp11
sS'hhints'
p12
((dp13
g8
I-10
sg9
I36
s(dp14
g8
I770
sg9
I34
stp15
ss."
HStem: -10 36<873.5 913.5> 770 34<293 294 294 390 390 390 426 832 832 832 867 1027>
VStem: 171 33<636 679.5> 731 46<174.5 300 174.5 302>
LayerCount: 2
Fore
SplineSet
901 -10 m 256
 795 -10 731 67 731 238 c 256
 731 366 789 614 832 770 c 257
 426 770 l 257
 363 237 l 258
 342 58 309 -4 120 -4 c 257
 120 30 l 257
 276 30 292 103 312 237 c 258
 390 770 l 257
 293 770 l 258
 241 770 204 739 204 636 c 257
 171 636 l 257
 171 723 195 804 294 804 c 258
 1027 804 l 257
 1027 770 l 257
 867 770 l 257
 827 594 777 353 777 247 c 256
 777 102 825 26 922 26 c 256
 944 26 968 31 996 40 c 257
 996 9 l 257
 963 -3 926 -10 901 -10 c 256
EndSplineSet
EndChar

StartChar: plus
Encoding: 43 43 342
Width: 690
VWidth: 0
Flags: HW
PickledData: "(dp1
S'org.robofab.postScriptHintData'
p2
(dp3
sS'com.typemytype.robofont.layerData'
p4
(dp5
S'b'
(dp6
S'name'
p7
S'plus'
p8
sS'lib'
p9
(dp10
sS'unicodes'
p11
(tsS'width'
p12
I690
sS'contours'
p13
(tsS'components'
p14
(tsS'anchors'
p15
(tsss."
LayerCount: 2
Fore
SplineSet
328 156 m 257
 328 554 l 257
 -10 554 l 257
 -10 596 l 257
 328 596 l 257
 328 977 l 257
 365 977 l 257
 365 596 l 257
 700 596 l 257
 700 554 l 257
 365 554 l 257
 365 156 l 257
 328 156 l 257
EndSplineSet
EndChar

StartChar: plusminus
Encoding: 177 177 343
Width: 659
VWidth: 0
Flags: HW
PickledData: "(dp1
S'org.robofab.postScriptHintData'
p2
(dp3
sS'com.typemytype.robofont.layerData'
p4
(dp5
S'b'
(dp6
S'name'
p7
S'plusminus'
p8
sS'lib'
p9
(dp10
sS'unicodes'
p11
(tsS'width'
p12
I659
sS'contours'
p13
(tsS'components'
p14
(tsS'anchors'
p15
(tsss."
LayerCount: 2
Fore
SplineSet
-38 0 m 257
 -38 38 l 257
 694 38 l 257
 694 0 l 257
 -38 0 l 257
313 76 m 257
 313 479 l 257
 -35 479 l 257
 -35 520 l 257
 313 520 l 257
 313 906 l 257
 350 906 l 257
 350 520 l 257
 697 520 l 257
 697 479 l 257
 350 479 l 257
 350 76 l 257
 313 76 l 257
EndSplineSet
EndChar

StartChar: product
Encoding: 8719 8719 344
Width: 1305
VWidth: 0
Flags: HW
PickledData: "(dp1
S'org.robofab.postScriptHintData'
p2
(dp3
sS'com.typemytype.robofont.layerData'
p4
(dp5
S'b'
(dp6
S'name'
p7
S'product'
p8
sS'lib'
p9
(dp10
sS'unicodes'
p11
(tsS'width'
p12
I1305
sS'contours'
p13
(tsS'components'
p14
(tsS'anchors'
p15
(tsss."
LayerCount: 2
Fore
SplineSet
116 0 m 257
 116 36 l 257
 264 36 l 257
 264 1117 l 257
 116 1117 l 257
 116 1152 l 257
 1189 1152 l 257
 1189 1117 l 257
 1041 1117 l 257
 1041 36 l 257
 1189 36 l 257
 1189 0 l 257
 851 0 l 257
 851 36 l 257
 999 36 l 257
 999 1117 l 257
 306 1117 l 257
 306 36 l 257
 454 36 l 257
 454 0 l 257
 116 0 l 257
EndSplineSet
EndChar

StartChar: q
Encoding: 113 113 345
Width: 1049
VWidth: 0
Flags: HW
PickledData: "(dp1
S'org.robofab.postScriptHintData'
p2
(dp3
sS'com.fontlab.hintData'
p4
(dp5
S'vhints'
p6
((dp7
S'position'
p8
I63
sS'width'
p9
I42
stp10
sS'hhints'
p11
((dp12
g8
I-22
sg9
I34
s(dp13
g8
I792
sg9
I34
stp14
ssS'com.typemytype.robofont.layerData'
p15
(dp16
S'b'
(dp17
S'name'
p18
S'q'
sS'lib'
p19
(dp20
sS'unicodes'
p21
(tsg9
I1049
sS'contours'
p22
(tsS'components'
p23
(tsS'anchors'
p24
(tsss."
HStem: -22 34<377.5 540.669 377.5 541.861> 792 34<359 519.57>
VStem: 63 42<397 397>
LayerCount: 2
Fore
SplineSet
658 -330 m 257
 658 -296 l 257
 793 -296 l 257
 793 92.8918 l 257
 712.086 24.3679 593.722 -22 490 -22 c 256
 243 -22 66 152 63 397 c 256
 60 648 226 826 464 826 c 256
 577.203 826 707.075 778.494 794.268 709.352 c 257
 799 804 l 257
 966 804 l 257
 966 770 l 257
 837 770 l 257
 837 -296 l 257
 975 -296 l 257
 975 -330 l 257
 658 -330 l 257
793 676.772 m 257
 703.706 745.527 575.139 792 464 792 c 256
 254 792 105 628 105 397 c 256
 105 172 265 12 490 12 c 256
 591.339 12 709.87 60.3023 793 130.98 c 257
 793 676.772 l 257
EndSplineSet
EndChar

StartChar: question
Encoding: 63 63 346
Width: 629
VWidth: 0
Flags: HW
PickledData: "(dp1
S'org.robofab.postScriptHintData'
p2
(dp3
sS'com.fontlab.hintData'
p4
(dp5
S'vhints'
p6
((dp7
S'position'
p8
I7
sS'width'
p9
I30
s(dp10
g8
I227
sg9
I99
s(dp11
g8
I571
sg9
I36
stp12
sS'hhints'
p13
((dp14
g8
I-22
sg9
I91
s(dp15
g8
I1138
sg9
I36
stp16
ssS'com.typemytype.robofont.layerData'
p17
(dp18
S'b'
(dp19
S'name'
p20
S'question'
p21
sS'lib'
p22
(dp23
sS'unicodes'
p24
(tsg9
I629
sS'contours'
p25
(tsS'components'
p26
(tsS'anchors'
p27
(tsss."
HStem: -22 91<261 290> 1138 36<230 392>
VStem: 7 30<949 949> 227 99<10.5 37> 571 36<773.5 978>
LayerCount: 2
Fore
SplineSet
275 -22 m 256
 247 -22 227 -3 227 24 c 256
 227 50 247 69 275 69 c 256
 305 69 326 50 326 24 c 256
 326 -3 305 -22 275 -22 c 256
268 279 m 257
 308 706 571 640 571 907 c 256
 571 1049 477 1138 307 1138 c 256
 153 1138 68 1094 37 949 c 257
 7 949 l 257
 24 1115 137 1174 307 1174 c 256
 499 1174 607 1071 607 907 c 256
 607 619 352 690 288 279 c 257
 268 279 l 257
EndSplineSet
EndChar

StartChar: quotedbl
Encoding: 34 34 348
Width: 514
VWidth: 0
Flags: HW
PickledData: "(dp1
S'org.robofab.postScriptHintData'
p2
(dp3
sS'com.fontlab.hintData'
p4
(dp5
S'vhints'
p6
((dp7
S'position'
p8
I166
sS'width'
p9
I49
s(dp10
g8
I308
sg9
I49
stp11
sS'hhints'
p12
((dp13
g8
I909
sg9
I350
stp14
ssS'com.typemytype.robofont.layerData'
p15
(dp16
S'b'
(dp17
S'name'
p18
S'quotedbl'
p19
sS'lib'
p20
(dp21
sS'unicodes'
p22
(tsg9
I514
sS'contours'
p23
(tsS'components'
p24
(tsS'anchors'
p25
(tsss."
HStem: 909 350<185 204 204 204 317 335 335 335>
VStem: 166 49<1259 1259> 308 49<1259 1259>
LayerCount: 2
Fore
SplineSet
317 909 m 257
 308 1259 l 257
 357 1259 l 257
 335 909 l 257
 317 909 l 257
185 909 m 257
 166 1259 l 257
 215 1259 l 257
 204 909 l 257
 185 909 l 257
EndSplineSet
EndChar

StartChar: quotedblbase
Encoding: 8222 8222 349
Width: 652
VWidth: 0
Flags: HW
PickledData: "(dp1
S'org.robofab.postScriptHintData'
p2
(dp3
sS'com.fontlab.hintData'
p4
(dp5
S'vhints'
p6
((dp7
S'position'
p8
I245
sS'width'
p9
I47
s(dp10
g8
I435
sg9
I49
stp11
sS'hhints'
p12
((dp13
g8
I-157
sg9
I27
stp14
ssS'com.typemytype.robofont.layerData'
p15
(dp16
S'b'
(dp17
S'name'
p18
S'quotedblbase'
p19
sS'lib'
p20
(dp21
sS'unicodes'
p22
(tsg9
I652
sS'contours'
p23
(tsS'components'
p24
(tsS'anchors'
p25
(tsss."
HStem: -157 27<190 190>
VStem: 245 47<-6 -6> 435 49<-8 -6>
LayerCount: 2
Fore
SplineSet
382 -157 m 257
 382 -130 l 257
 441 -107 435 -84 435 -6 c 257
 394 -6 l 257
 394 78 l 257
 484 78 l 257
 484 -8 l 258
 484 -81 461 -156 382 -157 c 257
190 -157 m 257
 190 -130 l 257
 249 -107 244 -83 245 -6 c 257
 202 -6 l 257
 202 78 l 257
 292 78 l 257
 292 -8 l 258
 292 -81 270 -156 190 -157 c 257
EndSplineSet
EndChar

StartChar: quotedblleft
Encoding: 8220 8220 350
Width: 642
VWidth: 0
Flags: HW
PickledData: "(dp1
S'org.robofab.postScriptHintData'
p2
(dp3
sS'com.fontlab.hintData'
p4
(dp5
S'vhints'
p6
((dp7
S'position'
p8
I173
sS'width'
p9
I49
s(dp10
g8
I356
sg9
I49
stp11
sS'hhints'
p12
((dp13
g8
I1262
sg9
I27
stp14
ssS'com.typemytype.robofont.layerData'
p15
(dp16
S'b'
(dp17
S'name'
p18
S'quotedblleft'
p19
sS'lib'
p20
(dp21
sS'unicodes'
p22
(tsg9
I642
sS'contours'
p23
(tsS'components'
p24
(tsS'anchors'
p25
(tsss."
HStem: 1262 27<277 277>
VStem: 173 49<1137 1140> 356 49<1137 1140>
LayerCount: 2
Fore
SplineSet
356 1053 m 257
 356 1140 l 258
 356 1214 379 1287 460 1289 c 257
 460 1262 l 257
 401 1238 405 1215 405 1137 c 257
 446 1137 l 257
 446 1053 l 257
 356 1053 l 257
173 1053 m 257
 173 1140 l 258
 173 1214 196 1288 277 1289 c 257
 277 1262 l 257
 217 1238 222 1215 222 1137 c 257
 263 1137 l 257
 263 1053 l 257
 173 1053 l 257
EndSplineSet
EndChar

StartChar: quotedblright
Encoding: 8221 8221 351
Width: 649
VWidth: 0
Flags: HW
PickledData: "(dp1
S'org.robofab.postScriptHintData'
p2
(dp3
sS'com.fontlab.hintData'
p4
(dp5
S'vhints'
p6
((dp7
S'position'
p8
I245
sS'width'
p9
I48
s(dp10
g8
I428
sg9
I49
stp11
sS'hhints'
p12
((dp13
g8
I1030
sg9
I28
stp14
ssS'com.typemytype.robofont.layerData'
p15
(dp16
S'b'
(dp17
S'name'
p18
S'quotedblright'
p19
sS'lib'
p20
(dp21
sS'unicodes'
p22
(tsg9
I649
sS'contours'
p23
(tsS'components'
p24
(tsS'anchors'
p25
(tsss."
HStem: 1030 28<190 190>
VStem: 245 48<1183 1183> 428 49<1179 1183>
LayerCount: 2
Fore
SplineSet
373 1030 m 257
 373 1058 l 257
 432 1080 428 1105 428 1183 c 257
 387 1183 l 257
 387 1266 l 257
 477 1266 l 257
 477 1179 l 258
 477 1106 454 1031 373 1030 c 257
190 1030 m 257
 190 1058 l 257
 249 1080 244 1105 245 1183 c 257
 204 1183 l 257
 204 1266 l 257
 293 1266 l 257
 293 1179 l 258
 294 1106 270 1031 190 1030 c 257
EndSplineSet
EndChar

StartChar: quoteleft
Encoding: 8216 8216 352
Width: 399
VWidth: 0
Flags: HW
PickledData: "(dp1
S'org.robofab.postScriptHintData'
p2
(dp3
sS'com.fontlab.hintData'
p4
(dp5
S'vhints'
p6
((dp7
S'position'
p8
I134
sS'width'
p9
I48
stp10
sS'hhints'
p11
((dp12
g8
I1262
sg9
I27
stp13
ssS'com.typemytype.robofont.layerData'
p14
(dp15
S'b'
(dp16
S'name'
p17
S'quoteleft'
p18
sS'lib'
p19
(dp20
sS'unicodes'
p21
(tsg9
I399
sS'contours'
p22
(tsS'components'
p23
(tsS'anchors'
p24
(tsss."
HStem: 1262 27<237 237>
VStem: 134 48<1137 1140>
LayerCount: 2
Fore
SplineSet
134 1053 m 257
 134 1140 l 258
 134 1214 157 1288 237 1289 c 257
 237 1262 l 257
 178 1238 182 1215 182 1137 c 257
 223 1137 l 257
 223 1053 l 257
 134 1053 l 257
EndSplineSet
EndChar

StartChar: quoteright
Encoding: 8217 8217 353
Width: 409
VWidth: 0
Flags: HW
PickledData: "(dp1
S'org.robofab.postScriptHintData'
p2
(dp3
sS'com.fontlab.hintData'
p4
(dp5
S'vhints'
p6
((dp7
S'position'
p8
I229
sS'width'
p9
I49
stp10
sS'hhints'
p11
((dp12
g8
I1030
sg9
I28
stp13
ssS'com.typemytype.robofont.layerData'
p14
(dp15
S'b'
(dp16
S'name'
p17
S'quoteright'
p18
sS'lib'
p19
(dp20
sS'unicodes'
p21
(tsg9
I409
sS'contours'
p22
(tsS'components'
p23
(tsS'anchors'
p24
(tsss."
HStem: 1030 28<174 174>
VStem: 229 49<1179 1183>
LayerCount: 2
Fore
SplineSet
174 1030 m 257
 174 1058 l 257
 234 1080 229 1105 229 1183 c 257
 188 1183 l 257
 188 1266 l 257
 278 1266 l 257
 278 1179 l 258
 278 1106 255 1031 174 1030 c 257
EndSplineSet
EndChar

StartChar: quotesinglbase
Encoding: 8218 8218 354
Width: 403
VWidth: 0
Flags: HW
PickledData: "(dp1
S'org.robofab.postScriptHintData'
p2
(dp3
sS'com.fontlab.hintData'
p4
(dp5
S'vhints'
p6
((dp7
S'position'
p8
I235
sS'width'
p9
I47
stp10
sS'hhints'
p11
((dp12
g8
I-157
sg9
I27
stp13
ssS'com.typemytype.robofont.layerData'
p14
(dp15
S'b'
(dp16
S'name'
p17
S'quotesinglbase'
p18
sS'lib'
p19
(dp20
sS'unicodes'
p21
(tsg9
I403
sS'contours'
p22
(tsS'components'
p23
(tsS'anchors'
p24
(tsss."
HStem: -157 27<180 180>
VStem: 235 47<-8 -6>
LayerCount: 2
Fore
SplineSet
180 -157 m 257
 180 -130 l 257
 239 -107 235 -83 235 -6 c 257
 193 -6 l 257
 193 78 l 257
 282 78 l 257
 282 -8 l 258
 283 -81 261 -156 180 -157 c 257
EndSplineSet
EndChar

StartChar: quotesingle
Encoding: 39 39 355
Width: 239
VWidth: 0
Flags: HW
PickledData: "(dp1
S'org.robofab.postScriptHintData'
p2
(dp3
sS'com.fontlab.hintData'
p4
(dp5
S'vhints'
p6
((dp7
S'position'
p8
I99
sS'width'
p9
I49
stp10
sS'hhints'
p11
((dp12
g8
I909
sg9
I350
stp13
ssS'com.typemytype.robofont.layerData'
p14
(dp15
S'b'
(dp16
S'name'
p17
S'quotesingle'
p18
sS'lib'
p19
(dp20
sS'unicodes'
p21
(tsg9
I239
sS'contours'
p22
(tsS'components'
p23
(tsS'anchors'
p24
(tsss."
HStem: 909 350<118 137 137 137>
VStem: 99 49<1259 1259>
LayerCount: 2
Fore
SplineSet
118 909 m 257
 99 1259 l 257
 148 1259 l 257
 137 909 l 257
 118 909 l 257
EndSplineSet
EndChar

StartChar: r
Encoding: 114 114 356
Width: 773
VWidth: 0
Flags: HW
PickledData: "(dp1
S'org.robofab.postScriptHintData'
p2
(dp3
sS'com.fontlab.hintData'
p4
(dp5
S'vhints'
p6
((dp7
S'position'
p8
I120
sS'width'
p9
I401
s(dp10
g8
I323
sg9
I24
stp11
sS'hhints'
p12
((dp13
g8
I791
sg9
I34
stp14
ssS'com.typemytype.robofont.layerData'
p15
(dp16
S'b'
(dp17
S'name'
p18
S'r'
sS'lib'
p19
(dp20
sS'unicodes'
p21
(tsg9
I773
sS'contours'
p22
((dp23
S'points'
p24
((dp25
S'segmentType'
p26
S'line'
p27
sS'x'
I338
sS'smooth'
p28
I0
sS'y'
I449
s(dp29
S'y'
I643
sS'x'
I338
sg28
I0
s(dp30
S'y'
I756
sS'x'
I441
sg28
I0
s(dp31
g26
S'curve'
p32
sS'x'
I570
sg28
I1
sS'y'
I756
s(dp33
S'y'
I756
sS'x'
I614
sg28
I0
s(dp34
S'y'
I742
sS'x'
I651
sg28
I0
s(dp35
g26
S'curve'
p36
sS'x'
I704
sg28
I0
sS'y'
I716
s(dp37
g26
S'line'
p38
sS'x'
I722
sg28
I0
sS'y'
I784
s(dp39
S'y'
I810
sS'x'
I664
sg28
I0
s(dp40
S'y'
I820
sS'x'
I622
sg28
I0
s(dp41
g26
S'curve'
p42
sS'x'
I575
sg28
I1
sS'y'
I820
s(dp43
S'y'
I820
sS'x'
I467
sg28
I0
s(dp44
S'y'
I769
sS'x'
I381
sg28
I0
s(dp45
g26
S'curve'
p46
sS'x'
I316
sg28
I0
sS'y'
I582
stp47
stp48
sS'components'
p49
(tsS'anchors'
p50
(tsss."
HStem: 791 34<513.454 581.5 513.454 584.5>
VStem: 120 401<0 34 0 34> 323 24
LayerCount: 2
Fore
SplineSet
347 467 m 257
 345 473.833 l 257
 345 34 l 257
 521 34 l 257
 521 0 l 257
 120 0 l 257
 120 34 l 257
 301 34 l 257
 301 770 l 257
 123 770 l 257
 123 804 l 257
 345 804 l 257
 345 646 l 257
 345 643.816 l 257
 389.077 777.07 472.908 825 554 825 c 256
 609 825 653 813 698 787 c 257
 689 755 l 257
 647 778 612 791 557 791 c 256
 447 791 347 670 347 467 c 257
EndSplineSet
EndChar

StartChar: radical
Encoding: 8730 8730 358
Width: 1118
VWidth: 0
Flags: HW
PickledData: "(dp1
S'org.robofab.postScriptHintData'
p2
(dp3
sS'com.typemytype.robofont.layerData'
p4
(dp5
S'b'
(dp6
S'name'
p7
S'radical'
p8
sS'lib'
p9
(dp10
sS'unicodes'
p11
(tsS'width'
p12
I1118
sS'contours'
p13
(tsS'components'
p14
(tsS'anchors'
p15
(tsss."
LayerCount: 2
Fore
SplineSet
514 -14 m 257
 246 587 l 257
 56 587 l 257
 56 621 l 257
 286 621 l 257
 524 75 l 257
 946 1363 l 257
 986 1363 l 257
 532 -14 l 257
 514 -14 l 257
EndSplineSet
EndChar

StartChar: registered
Encoding: 174 174 361
Width: 1512
VWidth: 0
Flags: HW
PickledData: "(dp1
S'org.robofab.postScriptHintData'
p2
(dp3
sS'com.fontlab.hintData'
p4
(dp5
S'vhints'
p6
((dp7
S'position'
p8
I128
sS'width'
p9
I42
s(dp10
g8
I974
sg9
I38
s(dp11
g8
I1286
sg9
I42
stp12
sS'hhints'
p13
((dp14
g8
I-22
sg9
I36
s(dp15
g8
I577
sg9
I35
s(dp16
g8
I935
sg9
I32
s(dp17
g8
I1136
sg9
I36
stp18
ssS'com.typemytype.robofont.layerData'
p19
(dp20
S'b'
(dp21
S'name'
p22
S'registered'
p23
sS'lib'
p24
(dp25
sS'unicodes'
p26
(tsg9
I1512
sS'contours'
p27
(tsS'components'
p28
(tsS'anchors'
p29
(tsss."
HStem: -22 36<728 919 532.5 937.5> 577 35<558 752 752 752> 935 32<414 519 519 519 558 796 414 852.5> 1136 36<534.5 919>
VStem: 128 42<436 702 436 711.5> 974 38<714.5 818.5> 1286 42<441 702>
LayerCount: 2
Fore
SplineSet
728 -22 m 256
 309 -23 128 291 128 571 c 256
 128 852 313 1172 728 1172 c 256
 1144 1172 1328 851 1328 571 c 256
 1328 289 1147 -22 728 -22 c 256
728 14 m 256
 1110 14 1286 310 1286 572 c 256
 1286 832 1110 1136 728 1136 c 256
 341 1136 170 832 170 572 c 256
 170 300 337 14 728 14 c 256
558 612 m 257
 797 612 l 258
 909 612 974 666 974 763 c 256
 974 874 909 935 796 935 c 258
 558 935 l 257
 558 612 l 257
422 217 m 257
 422 249 l 257
 519 249 l 257
 519 935 l 257
 414 935 l 257
 414 967 l 257
 796 967 l 258
 935 967 1012 894 1012 763 c 256
 1012 650 934 585 794 580 c 257
 981 251 l 257
 1086 251 l 257
 1086 217 l 257
 955 217 l 257
 752 577 l 257
 558 577 l 257
 558 249 l 257
 657 249 l 257
 657 217 l 257
 422 217 l 257
EndSplineSet
EndChar

StartChar: ring
Encoding: 730 730 362
Width: 317
VWidth: 0
Flags: HW
PickledData: "(dp1
S'org.robofab.postScriptHintData'
p2
(dp3
sS'com.fontlab.hintData'
p4
(dp5
S'vhints'
p6
((dp7
S'position'
p8
I41
sS'width'
p9
I33
s(dp10
g8
I236
sg9
I32
stp11
sS'hhints'
p12
((dp13
g8
I887
sg9
I27
s(dp14
g8
I1080
sg9
I28
stp15
ssS'com.typemytype.robofont.layerData'
p16
(dp17
S'b'
(dp18
S'name'
p19
S'ring'
p20
sS'lib'
p21
(dp22
sS'unicodes'
p23
(tsg9
I317
sS'contours'
p24
(tsS'components'
p25
(tsS'anchors'
p26
(tsss."
HStem: 887 27<130.5 181 130.5 191.5> 1080 28<130.5 181>
VStem: 41 33<999 999> 236 32<972 1024.5>
LayerCount: 2
Fore
SplineSet
156 914 m 256
 206 914 236 945 236 999 c 256
 236 1050 206 1080 156 1080 c 256
 105 1080 74 1050 74 999 c 256
 74 945 105 914 156 914 c 256
156 887 m 256
 84 887 42 928 41 999 c 256
 42 1068 84 1108 155 1108 c 256
 226 1108 268 1068 268 999 c 256
 268 928 227 887 156 887 c 256
EndSplineSet
EndChar

StartChar: s
Encoding: 115 115 363
Width: 919
VWidth: 0
Flags: HW
PickledData: "(dp1
S'org.robofab.postScriptHintData'
p2
(dp3
sS'com.fontlab.hintData'
p4
(dp5
S'vhints'
p6
((dp7
S'position'
p8
I148
sS'width'
p9
I40
s(dp10
g8
I710
sg9
I42
s(dp11
g8
I756
sg9
I40
stp12
sS'hhints'
p13
((dp14
g8
I-22
sg9
I34
s(dp15
g8
I792
sg9
I34
stp16
ssS'com.typemytype.robofont.layerData'
p17
(dp18
S'b'
(dp19
S'name'
p20
S's'
sS'lib'
p21
(dp22
sS'unicodes'
p23
(tsg9
I919
sS'contours'
p24
(tsS'components'
p25
(tsS'anchors'
p26
(tsss."
HStem: -22 34<419 558.5> 792 34<383.5 492.5>
VStem: 148 40<0 84 0 233 0 84> 710 42<728 804 728 728> 756 40<193 193>
LayerCount: 2
Fore
SplineSet
479 -22 m 256
 353 -22 238 27 188 84 c 257
 188 0 l 257
 148 0 l 257
 148 233 l 257
 187 233 l 257
 190 125 l 257
 257 49 359 12 479 12 c 256
 642 12 758 84 756 193 c 256
 755 322 678 353 503 389 c 258
 366 417 l 258
 241 443 155 496 155 604 c 256
 155 761 296 826 445 826 c 256
 541 826 646 790 710 728 c 257
 710 804 l 257
 752 804 l 257
 752 545 l 257
 712 545 l 257
 707 682 l 257
 663 744 540 792 445 792 c 256
 322 792 196 735 197 606 c 256
 199 514 279 476 372 456 c 258
 511 426 l 258
 685 388 796 364 796 193 c 256
 796 44 638 -22 479 -22 c 256
EndSplineSet
EndChar

StartChar: section
Encoding: 167 167 371
Width: 954
VWidth: 0
Flags: HW
PickledData: "(dp1
S'org.robofab.postScriptHintData'
p2
(dp3
sS'com.fontlab.hintData'
p4
(dp5
S'vhints'
p6
((dp7
S'position'
p8
I206
sS'width'
p9
I42
s(dp10
g8
I234
sg9
I29
s(dp11
g8
I242
sg9
I40
s(dp12
g8
I729
sg9
I25
s(dp13
g8
I743
sg9
I37
s(dp14
g8
I790
sg9
I38
stp15
sS'hhints'
p16
((dp17
g8
I-131
sg9
I30
s(dp18
g8
I1209
sg9
I30
stp19
ss."
HStem: -131 30<431 590.5 431 599.5> 1209 30<431 583>
VStem: 206 42<572.5 668 572.5 679.5> 234 29 242 40<970.5 1076.5 955 1083.5> 729 25 743 37<36.5 141 29 154.5> 790 38
LayerCount: 2
Fore
SplineSet
704 273 m 257
 770 325 790 391 790 469 c 256
 790 558 724 611 513 727 c 258
 384 798 l 257
 295 770 248 707 248 629 c 256
 248 516 308 492 482 400 c 256
 569 354 653 312 704 273 c 257
505 -131 m 256
 328 -131 234 -83 234 25 c 256
 234 59 249 63 263 63 c 257
 267 -73 357 -101 505 -101 c 256
 676 -101 743 -24 743 97 c 256
 743 212 706 243 465 366 c 256
 265 468 206 508 206 629 c 256
 206 730 278 793 366 811 c 257
 287 861 242 919 242 1022 c 256
 242 1145 335 1239 506 1239 c 256
 694 1239 754 1136 754 1051 c 256
 754 1025 749 1014 729 1014 c 257
 717 1134 660 1209 506 1209 c 256
 356 1209 282 1131 282 1022 c 256
 282 888 350 863 531 759 c 256
 739 639 824 587 828 476 c 256
 831 385 795 306 720 257 c 257
 755 222 780 183 780 99 c 256
 780 -41 694 -131 505 -131 c 256
EndSplineSet
EndChar

StartChar: semicolon
Encoding: 59 59 372
Width: 294
VWidth: 0
Flags: HW
PickledData: "(dp1
S'org.robofab.postScriptHintData'
p2
(dp3
sS'com.fontlab.hintData'
p4
(dp5
S'vhints'
p6
((dp7
S'position'
p8
I129
sS'width'
p9
I48
stp10
sS'hhints'
p11
((dp12
g8
I121
sg9
I29
stp13
ssS'com.typemytype.robofont.layerData'
p14
(dp15
S'b'
(dp16
S'name'
p17
S'semicolon'
p18
sS'lib'
p19
(dp20
sS'unicodes'
p21
(tsg9
I294
sS'contours'
p22
(tsS'components'
p23
(tsS'anchors'
p24
(tsss."
HStem: 121 29<78 78>
VStem: 129 48<270 274>
LayerCount: 2
Fore
SplineSet
100 729 m 257
 100 813 l 257
 173 813 l 257
 173 729 l 257
 100 729 l 257
78 121 m 257
 78 150 l 257
 135 172 129 197 129 274 c 257
 92 274 l 257
 92 358 l 257
 177 358 l 257
 177 270 l 258
 177 199 156 122 78 121 c 257
EndSplineSet
EndChar

StartChar: seven
Encoding: 55 55 373
Width: 964
VWidth: 0
Flags: HW
PickledData: "(dp1
S'org.robofab.postScriptHintData'
p2
(dp3
sS'com.fontlab.hintData'
p4
(dp5
S'vhints'
p6
((dp7
S'position'
p8
I427
sS'width'
p9
I43
stp10
ssS'com.typemytype.robofont.layerData'
p11
(dp12
S'b'
(dp13
S'name'
p14
S'seven'
p15
sS'lib'
p16
(dp17
sS'unicodes'
p18
(tsg9
I964
sS'contours'
p19
(tsS'components'
p20
(tsS'anchors'
p21
(tsss."
VStem: 427 43<0 0>
LayerCount: 2
Fore
SplineSet
427 0 m 257
 427 0 580 507 803 1118 c 257
 169 1118 l 257
 169 852 l 257
 125 852 l 257
 125 1152 l 257
 849 1152 l 257
 849 1119 l 257
 688 691 470 0 470 0 c 257
 427 0 l 257
EndSplineSet
EndChar

StartChar: six
Encoding: 54 54 374
Width: 829
VWidth: 0
Flags: HW
PickledData: "(dp1
S'org.robofab.postScriptHintData'
p2
(dp3
sS'com.fontlab.hintData'
p4
(dp5
S'vhints'
p6
((dp7
S'position'
p8
I57
sS'width'
p9
I42
s(dp10
g8
I728
sg9
I42
stp11
sS'hhints'
p12
((dp13
g8
I-22
sg9
I32
s(dp14
g8
I631
sg9
I32
stp15
ssS'com.typemytype.robofont.layerData'
p16
(dp17
S'b'
(dp18
S'name'
p19
S'six'
p20
sS'lib'
p21
(dp22
sS'unicodes'
p23
(tsg9
I829
sS'contours'
p24
(tsS'components'
p25
(tsS'anchors'
p26
(tsss."
HStem: -22 32<316 505 316 518> 631 32<381 509.5>
VStem: 57 42<220 375.5> 728 42<225 415.5>
LayerCount: 2
Fore
SplineSet
406 10 m 256
 604 10 728 130 728 320 c 256
 728 511 606 631 413 631 c 256
 257 631 99 514 99 307 c 256
 99 133 226 10 406 10 c 256
406 -22 m 256
 202 -22 57 114 57 307 c 256
 57 444 113 548 142 598 c 258
 505 1228 l 257
 547 1208 l 257
 172 572 l 257
 233 637 349 663 413 663 c 256
 632 663 770 531 770 320 c 256
 770 110 630 -22 406 -22 c 256
EndSplineSet
EndChar

StartChar: slash
Encoding: 47 47 375
Width: 295
VWidth: 0
Flags: HW
PickledData: "(dp1
S'org.robofab.postScriptHintData'
p2
(dp3
sS'com.typemytype.robofont.layerData'
p4
(dp5
S'b'
(dp6
S'name'
p7
S'slash'
p8
sS'lib'
p9
(dp10
sS'unicodes'
p11
(tsS'width'
p12
I295
sS'contours'
p13
(tsS'components'
p14
(tsS'anchors'
p15
(tsss."
LayerCount: 2
Fore
SplineSet
-36 -25 m 257
 277 1172 l 257
 318 1172 l 257
 10 -25 l 257
 -36 -25 l 257
EndSplineSet
EndChar

StartChar: sterling
Encoding: 163 163 377
Width: 1047
VWidth: 0
Flags: HW
PickledData: "(dp1
S'org.robofab.postScriptHintData'
p2
(dp3
sS'com.fontlab.hintData'
p4
(dp5
S'vhints'
p6
((dp7
S'position'
p8
I78
sS'width'
p9
I42
s(dp10
g8
I332
sg9
I44
s(dp11
g8
I949
sg9
I39
s(dp12
g8
I1012
sg9
I35
stp13
sS'hhints'
p14
((dp15
g8
I-22
sg9
I36
s(dp16
g8
I-4
sg9
I36
s(dp17
g8
I289
sg9
I36
s(dp18
g8
I1219
sg9
I36
stp19
ss."
HStem: -22 36<239 336 239 352> -4 36<767 883.5 767 892> 289 36<242.5 330.5> 1219 36<590.5 771.5>
VStem: 78 42<105 189 105 200.5> 332 44<885.5 1024.5 883 1035> 949 39<968 1039.5> 1012 35<212.5 250.5 173 287>
LayerCount: 2
Fore
SplineSet
292 14 m 256
 380 14 488 74 511 173 c 257
 456 241 364 289 297 289 c 256
 188 289 120 233 120 145 c 256
 120 65 186 14 292 14 c 256
291 -22 m 256
 160 -22 78 42 78 145 c 256
 78 256 162 325 296 325 c 256
 380 325 480 273 525 212 c 257
 548 284 556 400 487 562 c 257
 213 562 l 257
 213 596 l 257
 469 596 l 257
 415 699 332 831 332 940 c 256
 332 1130 485 1255 675 1255 c 256
 882 1255 988 1146 988 968 c 257
 949 968 l 257
 949 1111 868 1219 675 1219 c 256
 506 1219 376 1107 376 942 c 256
 376 824 452 719 516 596 c 257
 911 596 l 257
 911 562 l 257
 532 562 l 257
 595 397 588 284 555 182 c 257
 619 99 722 32 812 32 c 256
 955 32 1012 138 1012 287 c 257
 1044 287 l 257
 1046 272 1047 258 1047 243 c 256
 1047 103 970 -4 814 -4 c 256
 717 -4 618 52 541 146 c 257
 501 51 413 -22 291 -22 c 256
EndSplineSet
EndChar

StartChar: summation
Encoding: 8721 8721 378
Width: 1212
VWidth: 0
Flags: HW
PickledData: "(dp1
S'org.robofab.postScriptHintData'
p2
(dp3
sS'com.typemytype.robofont.layerData'
p4
(dp5
S'b'
(dp6
S'name'
p7
S'summation'
p8
sS'lib'
p9
(dp10
sS'unicodes'
p11
(tsS'width'
p12
I1212
sS'contours'
p13
(tsS'components'
p14
(tsS'anchors'
p15
(tsss."
LayerCount: 2
Fore
SplineSet
119 0 m 257
 119 34 l 257
 265 34 l 257
 673 601 l 257
 274 1118 l 257
 119 1118 l 257
 119 1152 l 257
 1034 1152 l 257
 1034 796 l 257
 996 796 l 257
 996 1118 l 257
 319 1118 l 257
 710 617 l 257
 710 586 l 257
 314 34 l 257
 1022 34 l 257
 1022 362 l 257
 1062 362 l 257
 1062 0 l 257
 119 0 l 257
EndSplineSet
EndChar

StartChar: t
Encoding: 116 116 379
Width: 572
VWidth: 0
Flags: HW
PickledData: "(dp1
S'org.robofab.postScriptHintData'
p2
(dp3
sS'com.fontlab.hintData'
p4
(dp5
S'vhints'
p6
((dp7
S'position'
p8
I195
sS'width'
p9
I44
stp10
sS'hhints'
p11
((dp12
g8
I0
sg9
I34
stp13
ssS'com.typemytype.robofont.layerData'
p14
(dp15
S'b'
(dp16
S'name'
p17
S't'
sS'lib'
p18
(dp19
sS'unicodes'
p20
(tsg9
I572
sS'contours'
p21
(tsS'components'
p22
(tsS'anchors'
p23
(tsss."
HStem: 0 34<449 522>
VStem: 195 44<131 770 219 770 219 770 804 1084 219 804>
LayerCount: 2
Fore
SplineSet
449 0 m 258
 304 0 195 46 195 216 c 258
 195 770 l 257
 41 770 l 257
 41 804 l 257
 195 804 l 257
 195 1084 l 257
 239 1096 l 257
 239 804 l 257
 479 804 l 257
 478 770 l 257
 239 770 l 257
 239 219 l 258
 239 82 301 34 449 34 c 258
 522 34 l 257
 522 0 l 257
 449 0 l 258
EndSplineSet
EndChar

StartChar: thorn
Encoding: 254 254 384
Width: 1026
VWidth: 0
Flags: HW
PickledData: "(dp1
S'org.robofab.postScriptHintData'
p2
(dp3
sS'com.fontlab.hintData'
p4
(dp5
S'vhints'
p6
((dp7
S'position'
p8
I921
sS'width'
p9
I42
stp10
sS'hhints'
p11
((dp12
g8
I-1
sg9
I34
s(dp13
g8
I813
sg9
I34
stp14
ssS'com.typemytype.robofont.layerData'
p15
(dp16
S'b'
(dp17
S'name'
p18
S'thorn'
p19
sS'lib'
p20
(dp21
sS'unicodes'
p22
(tsg9
I1026
sS'contours'
p23
(tsS'components'
p24
(tsS'anchors'
p25
(tsss."
HStem: -1 34<477 653 477 664> 813 34<497 664>
VStem: 921 42<421 421>
LayerCount: 2
Fore
SplineSet
534 -1 m 256
 418 -1 295 55 214 145 c 257
 214 187 l 257
 297 92 420 33 534 33 c 256
 772 33 921 183 921 421 c 256
 921 662 778 813 550 813 c 256
 444 813 314 760 214 676 c 257
 214 713 l 257
 309 795 439 847 550 847 c 256
 809 847 968 683 963 421 c 256
 959 162 794 -1 534 -1 c 256
21 -383 m 257
 21 -348 l 257
 195 -348 l 257
 195 1114 l 257
 43 1114 l 257
 43 1152 l 257
 243 1152 l 257
 239 -383 l 257
 21 -383 l 257
EndSplineSet
EndChar

StartChar: three
Encoding: 51 51 385
Width: 964
VWidth: 0
Flags: HW
PickledData: "(dp1
S'org.robofab.postScriptHintData'
p2
(dp3
sS'com.fontlab.hintData'
p4
(dp5
S'vhints'
p6
((dp7
S'position'
p8
I811
sS'width'
p9
I42
stp10
sS'hhints'
p11
((dp12
g8
I-20
sg9
I36
s(dp13
g8
I590
sg9
I34
s(dp14
g8
I1138
sg9
I36
stp15
ssS'com.typemytype.robofont.layerData'
p16
(dp17
S'b'
(dp18
S'name'
p19
S'three'
p20
sS'lib'
p21
(dp22
sS'unicodes'
p23
(tsg9
I964
sS'contours'
p24
(tsS'components'
p25
(tsS'anchors'
p26
(tsss."
HStem: -20 36<393.5 579 393.5 592.5> 590 34<419 542 419 545> 1138 36<378 567>
VStem: 811 42<228.5 408 217 413>
LayerCount: 2
Fore
SplineSet
469 -20 m 256
 295 -20 163 59 100 200 c 257
 132 224 l 257
 198 90 318 16 469 16 c 256
 689 16 811 128 811 329 c 256
 811 497 671 590 419 590 c 257
 419 624 l 257
 665 624 801 714 801 875 c 256
 801 1044 678 1138 456 1138 c 256
 300 1138 182 1063 127 929 c 257
 95 943 l 257
 149 1091 278 1174 456 1174 c 256
 705 1174 843 1067 843 875 c 256
 843 720 742 624 560 606 c 257
 748 586 853 487 853 329 c 256
 853 105 716 -20 469 -20 c 256
EndSplineSet
EndChar

StartChar: threequarters
Encoding: 190 190 386
Width: 1497
VWidth: 0
Flags: HW
PickledData: "(dp1
S'org.robofab.postScriptHintData'
p2
(dp3
sS'com.fontlab.hintData'
p4
(dp5
S'vhints'
p6
((dp7
S'position'
p8
I561
sS'width'
p9
I42
stp10
sS'hhints'
p11
((dp12
g8
I369
sg9
I36
s(dp13
g8
I761
sg9
I36
s(dp14
g8
I1140
sg9
I34
stp15
ss."
HStem: 369 36<276 400.5 276 412.5> 761 36<308 380 306 385.5> 1140 34<287.5 401>
VStem: 561 42<525.5 634 516 635>
LayerCount: 2
Fore
SplineSet
1020 296 m 257
 1350 296 l 257
 1350 759 l 257
 1020 296 l 257
481 0 m 257
 1258 1152 l 257
 1297 1152 l 257
 523 0 l 257
 481 0 l 257
1230 0 m 257
 1230 34 l 257
 1350 34 l 257
 1350 262 l 257
 982 262 l 257
 969 286 l 257
 1339 804 l 257
 1388 804 l 257
 1388 296 l 257
 1495 296 l 257
 1495 262 l 257
 1388 262 l 257
 1388 34 l 257
 1497 34 l 257
 1497 0 l 257
 1230 0 l 257
328 369 m 256
 207 369 107 423 68 509 c 257
 98 531 l 257
 134 454 223 405 329 405 c 256
 472 405 561 472 561 579 c 256
 561 691 463 761 308 761 c 257
 306 797 l 257
 454 797 547 859 547 959 c 256
 547 1070 466 1140 336 1140 c 256
 239 1140 153 1093 113 1017 c 257
 84 1036 l 257
 127 1121 225 1174 338 1174 c 256
 492 1174 589 1091 589 960 c 256
 589 862 515 793 397 780 c 257
 524 764 603 687 603 581 c 256
 603 451 497 369 328 369 c 256
EndSplineSet
EndChar

StartChar: threesuperior
Encoding: 179 179 387
Width: 964
VWidth: 0
Flags: HW
PickledData: "(dp1
S'org.robofab.postScriptHintData'
p2
(dp3
sS'com.fontlab.hintData'
p4
(dp5
S'vhints'
p6
((dp7
S'position'
p8
I711
sS'width'
p9
I42
stp10
sS'hhints'
p11
((dp12
g8
I530
sg9
I36
s(dp13
g8
I922
sg9
I36
s(dp14
g8
I1301
sg9
I34
stp15
ss."
HStem: 530 36<426 550.5 426 563> 922 36<458 530 456 545.5> 1301 34<438 551.5>
VStem: 711 42<687 794.5 676.5 796.5>
LayerCount: 2
Fore
SplineSet
479 530 m 256
 357 530 257 584 218 670 c 257
 248 692 l 257
 284 615 373 566 479 566 c 256
 622 566 711 633 711 741 c 256
 711 852 633 922 458 922 c 257
 456 958 l 257
 604 958 697 1020 697 1121 c 256
 697 1231 616 1301 487 1301 c 256
 389 1301 303 1254 263 1178 c 257
 234 1197 l 257
 277 1282 375 1335 487 1335 c 256
 642 1335 739 1252 739 1121 c 256
 739 1023 661 953 543 940 c 257
 668 932 753 848 753 741 c 256
 753 612 647 530 479 530 c 256
EndSplineSet
EndChar

StartChar: tilde
Encoding: 732 732 388
Width: 429
VWidth: 0
Flags: HW
PickledData: "(dp1
S'org.robofab.postScriptHintData'
p2
(dp3
sS'com.fontlab.hintData'
p4
(dp5
S'vhints'
p6
((dp7
S'position'
p8
I23
sS'width'
p9
I24
stp10
sS'hhints'
p11
((dp12
g8
I940
sg9
I32
s(dp13
g8
I1027
sg9
I32
stp14
ssS'com.typemytype.robofont.layerData'
p15
(dp16
S'b'
(dp17
S'name'
p18
S'tilde'
p19
sS'lib'
p20
(dp21
sS'unicodes'
p22
(tsg9
I429
sS'contours'
p23
(tsS'components'
p24
(tsS'anchors'
p25
(tsss."
HStem: 940 32<299.5 345.5 299.5 365.5> 1027 32<91 138.5>
VStem: 23 24<942 942>
LayerCount: 2
Fore
SplineSet
334 940 m 256
 244 940 170 1027 107 1027 c 256
 75 1027 63 1012 47 942 c 257
 23 942 l 257
 32 1012 53 1059 109 1059 c 256
 187 1059 270 972 329 972 c 256
 362 972 378 979 394 1055 c 257
 417 1055 l 257
 409 978 397 940 334 940 c 256
EndSplineSet
EndChar

StartChar: trademark
Encoding: 8482 8482 389
Width: 1581
VWidth: 0
Flags: HW
PickledData: "(dp1
S'org.robofab.postScriptHintData'
p2
(dp3
sS'com.typemytype.robofont.layerData'
p4
(dp5
S'b'
(dp6
S'name'
p7
S'trademark'
p8
sS'lib'
p9
(dp10
sS'unicodes'
p11
(tsS'width'
p12
I1581
sS'contours'
p13
(tsS'components'
p14
(tsS'anchors'
p15
(tsss."
LayerCount: 2
Fore
SplineSet
269 584 m 261
 269 613 l 261
 341 613 l 261
 341 1123 l 261
 144 1123 l 261
 144 960 l 261
 107 960 l 261
 107 1152 l 261
 615 1152 l 261
 615 960 l 261
 577 960 l 261
 577 1123 l 261
 373 1123 l 261
 373 613 l 261
 446 613 l 261
 446 584 l 261
 269 584 l 261
776 584 m 261
 776 615 l 261
 846 615 l 261
 846 1121 l 261
 776 1121 l 261
 776 1152 l 261
 882 1152 l 261
 1114 717 l 261
 1333 1152 l 261
 1438 1152 l 261
 1438 1121 l 261
 1369 1121 l 261
 1369 615 l 261
 1438 615 l 261
 1438 584 l 261
 1261 584 l 261
 1261 615 l 261
 1334 615 l 261
 1334 1079 l 261
 1115 652 l 261
 1114 652 l 261
 883 1082 l 261
 883 615 l 261
 958 615 l 261
 958 584 l 261
 776 584 l 261
EndSplineSet
EndChar

StartChar: two
Encoding: 50 50 390
Width: 964
VWidth: 0
Flags: HW
PickledData: "(dp1
S'org.robofab.postScriptHintData'
p2
(dp3
sS'com.fontlab.hintData'
p4
(dp5
S'vhints'
p6
((dp7
S'position'
p8
I133
sS'width'
p9
I42
s(dp10
g8
I786
sg9
I35
stp11
sS'hhints'
p12
((dp13
g8
I1138
sg9
I36
stp14
ssS'com.typemytype.robofont.layerData'
p15
(dp16
S'b'
(dp17
S'name'
p18
S'two'
p19
sS'lib'
p20
(dp21
sS'unicodes'
p22
(tsg9
I964
sS'contours'
p23
(tsS'components'
p24
(tsS'anchors'
p25
(tsss."
HStem: 1138 36<386.5 571.5>
VStem: 133 42<836.5 936.5 836.5 947.5> 786 35<34 243 34 34>
LayerCount: 2
Fore
SplineSet
118 0 m 257
 118 37 l 257
 534 452 l 258
 705 622 778 742 778 854 c 256
 778 1028 663 1138 480 1138 c 256
 293 1138 175 1026 175 847 c 256
 175 826 181 785 190 740 c 257
 149 740 l 257
 139 777 133 819 133 847 c 256
 133 1048 267 1174 480 1174 c 256
 689 1174 820 1051 820 854 c 256
 820 734 743 606 563 426 c 258
 171 34 l 257
 786 34 l 257
 786 243 l 257
 821 243 l 257
 821 0 l 257
 118 0 l 257
EndSplineSet
EndChar

StartChar: twosuperior
Encoding: 178 178 391
Width: 897
VWidth: 0
Flags: HW
PickledData: "(dp1
S'org.robofab.postScriptHintData'
p2
(dp3
sS'com.fontlab.hintData'
p4
(dp5
S'vhints'
p6
((dp7
S'position'
p8
I186
sS'width'
p9
I38
s(dp10
g8
I648
sg9
I39
stp11
sS'hhints'
p12
((dp13
g8
I1301
sg9
I34
stp14
ssS'com.typemytype.robofont.layerData'
p15
(dp16
S'b'
(dp17
S'name'
p18
S'uni00B2'
p19
sS'lib'
p20
(dp21
sS'unicodes'
p22
(tsg9
I897
sS'contours'
p23
(tsS'components'
p24
(tsS'anchors'
p25
(tsss."
HStem: 1301 34<366.5 500.5>
VStem: 186 38<1077 1143.5 1075.5 1155> 648 39<1073.5 1182.5>
LayerCount: 2
Fore
SplineSet
195 574 m 257
 509 876 l 258
 611 975 648 1021 648 1126 c 256
 648 1239 562 1301 439 1301 c 256
 294 1301 224 1200 224 1087 c 256
 224 1064 227 1040 233 1016 c 257
 194 1016 l 257
 189 1041 186 1065 186 1089 c 256
 186 1221 266 1335 439 1335 c 256
 575 1335 687 1266 687 1124 c 256
 687 1015 635 943 532 845 c 258
 246 574 l 257
 674 574 l 257
 673 719 l 257
 709 719 l 257
 709 540 l 257
 195 540 l 257
 195 574 l 257
EndSplineSet
EndChar

StartChar: u
Encoding: 117 117 392
Width: 1025
VWidth: 0
Flags: HW
PickledData: "(dp1
S'org.robofab.postScriptHintData'
p2
(dp3
sS'com.fontlab.hintData'
p4
(dp5
S'vhints'
p6
((dp7
S'position'
p8
I199
sS'width'
p9
I44
s(dp10
g8
I782
sg9
I44
stp11
sS'hhints'
p12
((dp13
g8
I-22
sg9
I34
stp14
ssS'com.typemytype.robofont.layerData'
p15
(dp16
S'b'
(dp17
S'name'
p18
S'u'
sS'lib'
p19
(dp20
sS'unicodes'
p21
(tsg9
I1025
sS'contours'
p22
(tsS'components'
p23
(tsS'anchors'
p24
(tsss."
HStem: -22 34<372 507>
VStem: 199 44<166.5 804 204 770> 782 44<133 770 133 133>
LayerCount: 2
Fore
SplineSet
443 -22 m 256
 238 -22 199 130 199 203 c 258
 199 770 l 257
 40 770 l 257
 40 804 l 257
 243 804 l 257
 243 204 l 258
 243 108 302 12 442 12 c 256
 580 12 675 64 782 133 c 257
 782 770 l 257
 630 770 l 257
 630 804 l 257
 826 804 l 257
 826 32 l 257
 978 32 l 257
 978 0 l 257
 791 0 l 257
 785 101 l 257
 681 30 571 -22 443 -22 c 256
EndSplineSet
EndChar

StartChar: underscore
Encoding: 95 95 400
Width: 762
VWidth: 0
Flags: HW
PickledData: "(dp1
S'org.robofab.postScriptHintData'
p2
(dp3
sS'com.fontlab.hintData'
p4
(dp5
S'vhints'
p6
((dp7
S'position'
p8
I48
sS'width'
p9
I666
stp10
sS'hhints'
p11
((dp12
g8
I-123
sg9
I36
stp13
ssS'com.typemytype.robofont.layerData'
p14
(dp15
S'b'
(dp16
S'name'
p17
S'underscore'
p18
sS'lib'
p19
(dp20
sS'unicodes'
p21
(tsg9
I762
sS'contours'
p22
(tsS'components'
p23
(tsS'anchors'
p24
(tsss."
HStem: -123 36<48 714 48 714>
VStem: 48 666<-123 -87 -123 -87>
LayerCount: 2
Fore
SplineSet
48 -123 m 257
 48 -87 l 257
 714 -87 l 257
 714 -123 l 257
 48 -123 l 257
EndSplineSet
EndChar

StartChar: uni00B5
Encoding: 181 181 407
Width: 1025
VWidth: 0
Flags: HW
PickledData: "(dp1
S'org.robofab.postScriptHintData'
p2
(dp3
sS'com.fontlab.hintData'
p4
(dp5
S'vhints'
p6
((dp7
S'position'
p8
I199
sS'width'
p9
I44
s(dp10
g8
I782
sg9
I44
stp11
sS'hhints'
p12
((dp13
g8
I-22
sg9
I34
stp14
ssS'com.typemytype.robofont.layerData'
p15
(dp16
S'b'
(dp17
S'name'
p18
S'uni00B5'
p19
sS'lib'
p20
(dp21
sS'unicodes'
p22
(tsg9
I1025
sS'contours'
p23
(tsS'components'
p24
(tsS'anchors'
p25
(tsss."
HStem: -22 34
VStem: 199 44<-261 365 -261 365> 782 44
LayerCount: 2
Fore
SplineSet
199 -261 m 257
 199 365 l 257
 243 365 l 257
 243 -261 l 257
 199 -261 l 257
EndSplineSet
Refer: 392 117 N 1 0 0 1 0 0 2
EndChar

StartChar: uni0237
Encoding: 567 567 473
Width: 398
VWidth: 0
Flags: HW
PickledData: "(dp1
S'org.robofab.postScriptHintData'
p2
(dp3
sS'com.fontlab.hintData'
p4
(dp5
S'vhints'
p6
((dp7
S'position'
p8
I221
sS'width'
p9
I44
stp10
sS'hhints'
p11
((dp12
g8
I-240
sg9
I32
stp13
ssS'com.typemytype.robofont.layerData'
p14
(dp15
S'b'
(dp16
S'name'
p17
S'uni0237'
p18
sS'lib'
p19
(dp20
sS'unicodes'
p21
(tsg9
I398
sS'contours'
p22
(tsS'components'
p23
(tsS'anchors'
p24
(tsss."
HStem: -240 32<23 85 23 95 23 192.5>
VStem: 221 44<-95.5 804 -34 770>
LayerCount: 2
Fore
SplineSet
23 -240 m 257
 23 -208 l 257
 85 -208 l 258
 228 -208 221 -152 221 -39 c 258
 221 770 l 257
 48 770 l 257
 48 804 l 257
 265 804 l 257
 265 -34 l 258
 265 -101 290 -240 95 -240 c 258
 23 -240 l 257
EndSplineSet
EndChar

StartChar: uni02C9
Encoding: 713 713 474
Width: 600
VWidth: 0
Flags: HW
PickledData: "(dp1
S'org.robofab.postScriptHintData'
p2
(dp3
sS'com.fontlab.hintData'
p4
(dp5
S'vhints'
p6
((dp7
S'position'
p8
I118
sS'width'
p9
I369
stp10
sS'hhints'
p11
((dp12
g8
I903
sg9
I48
stp13
ss."
HStem: 903 48<118 487 118 487>
VStem: 118 369<903 951 903 951>
LayerCount: 2
Fore
SplineSet
118 903 m 257
 118 951 l 257
 487 951 l 257
 487 903 l 257
 118 903 l 257
EndSplineSet
EndChar

StartChar: uni0307
Encoding: 775 775 475
Width: 342
VWidth: 0
Flags: HW
PickledData: "(dp1
S'org.robofab.postScriptHintData'
p2
(dp3
sS'com.fontlab.hintData'
p4
(dp5
S'vhints'
p6
((dp7
S'position'
p8
I115
sS'width'
p9
I111
stp10
sS'hhints'
p11
((dp12
g8
I978
sg9
I101
stp13
ssS'com.typemytype.robofont.layerData'
p14
(dp15
S'b'
(dp16
S'name'
p17
S'uni0307'
p18
sS'lib'
p19
(dp20
sS'unicodes'
p21
(tsg9
I342
sS'contours'
p22
(tsS'components'
p23
(tsS'anchors'
p24
(tsss."
HStem: 978 101<149.5 189.5>
VStem: 115 111<1017.5 1028>
LayerCount: 2
Fore
SplineSet
170 978 m 256
 129 978 115 1007 115 1028 c 256
 116 1052 129 1079 170 1079 c 256
 212 1079 226 1050 226 1028 c 256
 226 1006 209 978 170 978 c 256
EndSplineSet
EndChar

StartChar: uni0311
Encoding: 785 785 476
Width: 962
VWidth: 0
Flags: HW
PickledData: "(dp1
S'org.robofab.postScriptHintData'
p2
(dp3
sS'com.fontlab.hintData'
p4
(dp5
S'vhints'
p6
((dp7
S'position'
p8
I352
sS'width'
p9
I30
s(dp10
g8
I591
sg9
I28
stp11
sS'hhints'
p12
((dp13
g8
I1026
sg9
I33
stp14
ssS'com.typemytype.robofont.layerData'
p15
(dp16
S'b'
(dp17
S'name'
p18
S'uni0311'
p19
sS'lib'
p20
(dp21
sS'unicodes'
p22
(tsg9
I962
sS'contours'
p23
(tsS'components'
p24
(tsS'anchors'
p25
(tsss."
HStem: 1026 33<487 487>
VStem: 352 30<934 934> 591 28<934 934>
LayerCount: 2
Fore
SplineSet
352 934 m 257
 371 1019 415 1060 487 1059 c 256
 561 1060 604 1019 619 934 c 257
 591 934 l 257
 573 996 539 1026 487 1026 c 256
 434 1026 400 996 382 934 c 257
 352 934 l 257
EndSplineSet
EndChar

StartChar: uni2113
Encoding: 8467 8467 495
Width: 552
VWidth: 0
Flags: HW
PickledData: "(dp1
S'org.robofab.postScriptHintData'
p2
(dp3
sS'com.fontlab.hintData'
p4
(dp5
S'hhints'
p6
((dp7
S'position'
p8
I-12
sS'width'
p9
I27
stp10
ss."
HStem: -12 27<365 365>
LayerCount: 2
Fore
SplineSet
365 -12 m 257
 150 -14 134 55 167 258 c 258
 319 1178 l 257
 130 1178 l 257
 129 1215 l 257
 355 1215 l 257
 204 257 l 258
 168 28 226 15 374 15 c 257
 365 -12 l 257
EndSplineSet
EndChar

StartChar: uni2126
Encoding: 8486 8486 496
Width: 1426
VWidth: 0
Flags: HW
PickledData: "(dp1
S'org.robofab.postScriptHintData'
p2
(dp3
sS'com.fontlab.hintData'
p4
(dp5
S'vhints'
p6
((dp7
S'position'
p8
I172
sS'width'
p9
I41
s(dp10
g8
I1213
sg9
I41
stp11
sS'hhints'
p12
((dp13
g8
I1139
sg9
I35
stp14
ss."
HStem: 1139 35<546.5 879.5>
VStem: 172 41<528 768.5 528 771> 1213 41<528 768.5>
LayerCount: 2
Fore
SplineSet
191 0 m 257
 191 34 l 257
 511 34 l 257
 283 168 172 409 172 629 c 256
 172 913 356 1174 713 1174 c 256
 1070 1174 1254 913 1254 629 c 256
 1254 409 1143 168 915 34 c 257
 1235 34 l 257
 1235 0 l 257
 878 0 l 257
 878 38 l 257
 1102 177 1213 420 1213 636 c 256
 1213 901 1046 1139 713 1139 c 256
 380 1139 213 901 213 636 c 256
 213 420 324 177 548 38 c 257
 548 0 l 257
 191 0 l 257
EndSplineSet
EndChar

StartChar: uni2206
Encoding: 8710 8710 497
Width: 679
VWidth: 0
Flags: HW
PickledData: "(dp1
S'org.robofab.postScriptHintData'
p2
(dp3
sS'com.fontlab.hintData'
p4
(dp5
S'vhints'
p6
((dp7
S'position'
p8
I58
sS'width'
p9
I588
stp10
ssS'com.typemytype.robofont.layerData'
p11
(dp12
S'b'
(dp13
S'name'
p14
S'uni2206'
p15
sS'lib'
p16
(dp17
sS'unicodes'
p18
(tsg9
I679
sS'contours'
p19
(tsS'components'
p20
(tsS'anchors'
p21
(tsss."
VStem: 58 588<0 45 0 45 0 48>
LayerCount: 2
Fore
SplineSet
85 47 m 257
 614 47 l 257
 350 919 l 257
 85 47 l 257
58 0 m 257
 58 48 l 257
 344 988 l 257
 356 988 l 257
 646 45 l 257
 646 0 l 257
 58 0 l 257
EndSplineSet
EndChar

StartChar: v
Encoding: 118 118 503
Width: 1054
VWidth: 0
Flags: HW
PickledData: "(dp1
S'org.robofab.postScriptHintData'
p2
(dp3
sS'com.typemytype.robofont.layerData'
p4
(dp5
S'b'
(dp6
S'name'
p7
S'v'
sS'lib'
p8
(dp9
sS'unicodes'
p10
(tsS'width'
p11
I1054
sS'contours'
p12
(tsS'components'
p13
(tsS'anchors'
p14
(tsss."
LayerCount: 2
Fore
SplineSet
504 0 m 257
 166 771 l 257
 18 771 l 257
 18 805 l 257
 389 805 l 257
 389 771 l 257
 212 771 l 257
 533 30 l 257
 842 771 l 257
 668 771 l 257
 668 805 l 257
 1035 805 l 257
 1035 771 l 257
 891 771 l 257
 561 0 l 257
 504 0 l 257
EndSplineSet
EndChar

StartChar: w
Encoding: 119 119 504
Width: 1574
VWidth: 0
Flags: HW
PickledData: "(dp1
S'org.robofab.postScriptHintData'
p2
(dp3
sS'com.typemytype.robofont.layerData'
p4
(dp5
S'b'
(dp6
S'name'
p7
S'w'
sS'lib'
p8
(dp9
sS'unicodes'
p10
(tsS'width'
p11
I1574
sS'contours'
p12
(tsS'components'
p13
(tsS'anchors'
p14
(tsss."
LayerCount: 2
Fore
SplineSet
450 0 m 257
 172 771 l 257
 35 771 l 257
 35 805 l 257
 380 805 l 257
 380 771 l 257
 218 771 l 257
 482 28 l 257
 757 771 l 257
 607 771 l 257
 607 805 l 257
 959 805 l 257
 959 771 l 257
 805 771 l 257
 1084 30 l 257
 1335 771 l 257
 1191 771 l 257
 1191 805 l 257
 1520 805 l 257
 1520 771 l 257
 1380 771 l 257
 1114 0 l 257
 1056 0 l 257
 783 731 l 257
 511 0 l 257
 450 0 l 257
EndSplineSet
EndChar

StartChar: x
Encoding: 120 120 509
Width: 1088
VWidth: 0
Flags: HW
PickledData: "(dp1
S'org.robofab.postScriptHintData'
p2
(dp3
sS'com.typemytype.robofont.layerData'
p4
(dp5
S'b'
(dp6
S'name'
p7
S'x'
sS'lib'
p8
(dp9
sS'unicodes'
p10
(tsS'width'
p11
I1088
sS'contours'
p12
(tsS'components'
p13
(tsS'anchors'
p14
(tsss."
LayerCount: 2
Fore
SplineSet
50 0 m 257
 50 34 l 257
 204 34 l 257
 521 417 l 257
 228 770 l 257
 78 770 l 257
 78 804 l 257
 439 804 l 257
 439 770 l 257
 271 770 l 257
 547 440 l 257
 817 770 l 257
 648 770 l 257
 648 804 l 257
 1030 804 l 257
 1030 770 l 257
 861 770 l 257
 569 411 l 257
 884 34 l 257
 1042 34 l 257
 1042 0 l 257
 660 0 l 257
 660 34 l 257
 843 34 l 257
 543 390 l 257
 252 34 l 257
 410 34 l 257
 410 0 l 257
 50 0 l 257
EndSplineSet
EndChar

StartChar: y
Encoding: 121 121 510
Width: 1072
VWidth: 0
Flags: HW
PickledData: "(dp1
S'org.robofab.postScriptHintData'
p2
(dp3
sS'com.fontlab.hintData'
p4
(dp5
S'hhints'
p6
((dp7
S'position'
p8
I-237
sS'width'
p9
I43
stp10
ssS'com.typemytype.robofont.layerData'
p11
(dp12
S'b'
(dp13
S'name'
p14
S'y'
sS'lib'
p15
(dp16
sS'unicodes'
p17
(tsg9
I1072
sS'contours'
p18
(tsS'components'
p19
(tsS'anchors'
p20
(tsss."
HStem: -237 43<240 318 240 383>
LayerCount: 2
Fore
SplineSet
240 -237 m 257
 240 -194 l 257
 318 -194 l 258
 441 -194 462 -179 503 -87 c 258
 571 64 l 257
 539 64 l 257
 221 770 l 257
 52 770 l 257
 52 804 l 257
 417 804 l 257
 417 770 l 257
 268 770 l 257
 577 72 l 257
 874 770 l 257
 699 770 l 257
 699 804 l 257
 1051 804 l 257
 1051 770 l 257
 920 770 l 257
 542 -104 l 258
 493 -218 448 -237 318 -237 c 258
 240 -237 l 257
EndSplineSet
EndChar

StartChar: yen
Encoding: 165 165 514
Width: 1477
VWidth: 0
Flags: HW
PickledData: "(dp1
S'org.robofab.postScriptHintData'
p2
(dp3
sS'com.typemytype.robofont.layerData'
p4
(dp5
S'b'
(dp6
S'name'
p7
S'yen'
p8
sS'lib'
p9
(dp10
sS'unicodes'
p11
(tsS'width'
p12
I1477
sS'contours'
p13
(tsS'components'
p14
(tsS'anchors'
p15
(tsss."
LayerCount: 2
Fore
SplineSet
308 359 m 257
 308 390 l 257
 942 390 l 257
 942 359 l 257
 308 359 l 257
308 206 m 257
 308 237 l 257
 942 237 l 257
 942 206 l 257
 308 206 l 257
EndSplineSet
Refer: 137 89 N 1 0 0 1 0 0 2
EndChar

StartChar: z
Encoding: 122 122 516
Width: 955
VWidth: 0
Flags: HW
PickledData: "(dp1
S'org.robofab.postScriptHintData'
p2
(dp3
sS'com.fontlab.hintData'
p4
(dp5
S'vhints'
p6
((dp7
S'position'
p8
I150
sS'width'
p9
I638
stp10
ssS'com.typemytype.robofont.layerData'
p11
(dp12
S'b'
(dp13
S'name'
p14
S'z'
sS'lib'
p15
(dp16
sS'unicodes'
p17
(tsg9
I955
sS'contours'
p18
(tsS'components'
p19
(tsS'anchors'
p20
(tsss."
VStem: 150 638<0 262 0 43>
LayerCount: 2
Fore
SplineSet
150 0 m 257
 150 43 l 257
 735 771 l 257
 223 771 l 257
 223 572 l 257
 179 572 l 257
 179 805 l 257
 774 805 l 257
 774 756 l 257
 200 34 l 257
 747 34 l 257
 747 262 l 257
 788 262 l 257
 788 0 l 257
 150 0 l 257
EndSplineSet
EndChar

StartChar: zero
Encoding: 48 48 520
Width: 1090
VWidth: 0
Flags: HW
PickledData: "(dp1
S'org.robofab.postScriptHintData'
p2
(dp3
sS'com.fontlab.hintData'
p4
(dp5
S'vhints'
p6
((dp7
S'position'
p8
I132
sS'width'
p9
I42
s(dp10
g8
I917
sg9
I42
stp11
sS'hhints'
p12
((dp13
g8
I-22
sg9
I32
s(dp14
g8
I1140
sg9
I34
stp15
ssS'com.typemytype.robofont.layerData'
p16
(dp17
S'b'
(dp18
S'name'
p19
S'zero'
p20
sS'lib'
p21
(dp22
sS'unicodes'
p23
(tsg9
I1090
sS'contours'
p24
(tsS'components'
p25
(tsS'anchors'
p26
(tsss."
HStem: -22 32<545 664.5 545 678> 1140 34<426 664.5>
VStem: 132 42<391.5 756 391.5 767> 917 42<392.5 756>
LayerCount: 2
Fore
SplineSet
545 -22 m 256
 280 -22 132 191 132 574 c 256
 132 960 280 1174 545 1174 c 256
 811 1174 959 960 959 574 c 256
 959 191 811 -22 545 -22 c 256
545 10 m 256
 784 10 917 211 917 574 c 256
 917 938 784 1140 545 1140 c 256
 307 1140 174 938 174 574 c 256
 174 209 307 8 545 10 c 256
EndSplineSet
EndChar

